G04 #@! TF.GenerationSoftware,KiCad,Pcbnew,(5.1.10)-1*
G04 #@! TF.CreationDate,2021-06-06T14:26:22+02:00*
G04 #@! TF.ProjectId,ww2020,77773230-3230-42e6-9b69-6361645f7063,rev?*
G04 #@! TF.SameCoordinates,Original*
G04 #@! TF.FileFunction,Paste,Top*
G04 #@! TF.FilePolarity,Positive*
%FSLAX46Y46*%
G04 Gerber Fmt 4.6, Leading zero omitted, Abs format (unit mm)*
G04 Created by KiCad (PCBNEW (5.1.10)-1) date 2021-06-06 14:26:22*
%MOMM*%
%LPD*%
G01*
G04 APERTURE LIST*
%ADD10R,1.000000X3.150000*%
%ADD11R,0.890000X3.060000*%
%ADD12R,5.350000X8.540000*%
%ADD13R,0.500000X2.200000*%
%ADD14R,3.100000X2.400000*%
%ADD15R,0.700000X0.600000*%
%ADD16R,1.000000X1.500000*%
G04 APERTURE END LIST*
G36*
G01*
X132418600Y-54775000D02*
X132218600Y-54775000D01*
G75*
G02*
X132118600Y-54675000I0J100000D01*
G01*
X132118600Y-53400000D01*
G75*
G02*
X132218600Y-53300000I100000J0D01*
G01*
X132418600Y-53300000D01*
G75*
G02*
X132518600Y-53400000I0J-100000D01*
G01*
X132518600Y-54675000D01*
G75*
G02*
X132418600Y-54775000I-100000J0D01*
G01*
G37*
G36*
G01*
X133068600Y-54775000D02*
X132868600Y-54775000D01*
G75*
G02*
X132768600Y-54675000I0J100000D01*
G01*
X132768600Y-53400000D01*
G75*
G02*
X132868600Y-53300000I100000J0D01*
G01*
X133068600Y-53300000D01*
G75*
G02*
X133168600Y-53400000I0J-100000D01*
G01*
X133168600Y-54675000D01*
G75*
G02*
X133068600Y-54775000I-100000J0D01*
G01*
G37*
G36*
G01*
X133718600Y-54775000D02*
X133518600Y-54775000D01*
G75*
G02*
X133418600Y-54675000I0J100000D01*
G01*
X133418600Y-53400000D01*
G75*
G02*
X133518600Y-53300000I100000J0D01*
G01*
X133718600Y-53300000D01*
G75*
G02*
X133818600Y-53400000I0J-100000D01*
G01*
X133818600Y-54675000D01*
G75*
G02*
X133718600Y-54775000I-100000J0D01*
G01*
G37*
G36*
G01*
X134368600Y-54775000D02*
X134168600Y-54775000D01*
G75*
G02*
X134068600Y-54675000I0J100000D01*
G01*
X134068600Y-53400000D01*
G75*
G02*
X134168600Y-53300000I100000J0D01*
G01*
X134368600Y-53300000D01*
G75*
G02*
X134468600Y-53400000I0J-100000D01*
G01*
X134468600Y-54675000D01*
G75*
G02*
X134368600Y-54775000I-100000J0D01*
G01*
G37*
G36*
G01*
X135018600Y-54775000D02*
X134818600Y-54775000D01*
G75*
G02*
X134718600Y-54675000I0J100000D01*
G01*
X134718600Y-53400000D01*
G75*
G02*
X134818600Y-53300000I100000J0D01*
G01*
X135018600Y-53300000D01*
G75*
G02*
X135118600Y-53400000I0J-100000D01*
G01*
X135118600Y-54675000D01*
G75*
G02*
X135018600Y-54775000I-100000J0D01*
G01*
G37*
G36*
G01*
X135668600Y-54775000D02*
X135468600Y-54775000D01*
G75*
G02*
X135368600Y-54675000I0J100000D01*
G01*
X135368600Y-53400000D01*
G75*
G02*
X135468600Y-53300000I100000J0D01*
G01*
X135668600Y-53300000D01*
G75*
G02*
X135768600Y-53400000I0J-100000D01*
G01*
X135768600Y-54675000D01*
G75*
G02*
X135668600Y-54775000I-100000J0D01*
G01*
G37*
G36*
G01*
X136318600Y-54775000D02*
X136118600Y-54775000D01*
G75*
G02*
X136018600Y-54675000I0J100000D01*
G01*
X136018600Y-53400000D01*
G75*
G02*
X136118600Y-53300000I100000J0D01*
G01*
X136318600Y-53300000D01*
G75*
G02*
X136418600Y-53400000I0J-100000D01*
G01*
X136418600Y-54675000D01*
G75*
G02*
X136318600Y-54775000I-100000J0D01*
G01*
G37*
G36*
G01*
X136968600Y-54775000D02*
X136768600Y-54775000D01*
G75*
G02*
X136668600Y-54675000I0J100000D01*
G01*
X136668600Y-53400000D01*
G75*
G02*
X136768600Y-53300000I100000J0D01*
G01*
X136968600Y-53300000D01*
G75*
G02*
X137068600Y-53400000I0J-100000D01*
G01*
X137068600Y-54675000D01*
G75*
G02*
X136968600Y-54775000I-100000J0D01*
G01*
G37*
G36*
G01*
X136968600Y-60500000D02*
X136768600Y-60500000D01*
G75*
G02*
X136668600Y-60400000I0J100000D01*
G01*
X136668600Y-59125000D01*
G75*
G02*
X136768600Y-59025000I100000J0D01*
G01*
X136968600Y-59025000D01*
G75*
G02*
X137068600Y-59125000I0J-100000D01*
G01*
X137068600Y-60400000D01*
G75*
G02*
X136968600Y-60500000I-100000J0D01*
G01*
G37*
G36*
G01*
X136318600Y-60500000D02*
X136118600Y-60500000D01*
G75*
G02*
X136018600Y-60400000I0J100000D01*
G01*
X136018600Y-59125000D01*
G75*
G02*
X136118600Y-59025000I100000J0D01*
G01*
X136318600Y-59025000D01*
G75*
G02*
X136418600Y-59125000I0J-100000D01*
G01*
X136418600Y-60400000D01*
G75*
G02*
X136318600Y-60500000I-100000J0D01*
G01*
G37*
G36*
G01*
X135668600Y-60500000D02*
X135468600Y-60500000D01*
G75*
G02*
X135368600Y-60400000I0J100000D01*
G01*
X135368600Y-59125000D01*
G75*
G02*
X135468600Y-59025000I100000J0D01*
G01*
X135668600Y-59025000D01*
G75*
G02*
X135768600Y-59125000I0J-100000D01*
G01*
X135768600Y-60400000D01*
G75*
G02*
X135668600Y-60500000I-100000J0D01*
G01*
G37*
G36*
G01*
X135018600Y-60500000D02*
X134818600Y-60500000D01*
G75*
G02*
X134718600Y-60400000I0J100000D01*
G01*
X134718600Y-59125000D01*
G75*
G02*
X134818600Y-59025000I100000J0D01*
G01*
X135018600Y-59025000D01*
G75*
G02*
X135118600Y-59125000I0J-100000D01*
G01*
X135118600Y-60400000D01*
G75*
G02*
X135018600Y-60500000I-100000J0D01*
G01*
G37*
G36*
G01*
X134368600Y-60500000D02*
X134168600Y-60500000D01*
G75*
G02*
X134068600Y-60400000I0J100000D01*
G01*
X134068600Y-59125000D01*
G75*
G02*
X134168600Y-59025000I100000J0D01*
G01*
X134368600Y-59025000D01*
G75*
G02*
X134468600Y-59125000I0J-100000D01*
G01*
X134468600Y-60400000D01*
G75*
G02*
X134368600Y-60500000I-100000J0D01*
G01*
G37*
G36*
G01*
X133718600Y-60500000D02*
X133518600Y-60500000D01*
G75*
G02*
X133418600Y-60400000I0J100000D01*
G01*
X133418600Y-59125000D01*
G75*
G02*
X133518600Y-59025000I100000J0D01*
G01*
X133718600Y-59025000D01*
G75*
G02*
X133818600Y-59125000I0J-100000D01*
G01*
X133818600Y-60400000D01*
G75*
G02*
X133718600Y-60500000I-100000J0D01*
G01*
G37*
G36*
G01*
X133068600Y-60500000D02*
X132868600Y-60500000D01*
G75*
G02*
X132768600Y-60400000I0J100000D01*
G01*
X132768600Y-59125000D01*
G75*
G02*
X132868600Y-59025000I100000J0D01*
G01*
X133068600Y-59025000D01*
G75*
G02*
X133168600Y-59125000I0J-100000D01*
G01*
X133168600Y-60400000D01*
G75*
G02*
X133068600Y-60500000I-100000J0D01*
G01*
G37*
G36*
G01*
X132418600Y-60500000D02*
X132218600Y-60500000D01*
G75*
G02*
X132118600Y-60400000I0J100000D01*
G01*
X132118600Y-59125000D01*
G75*
G02*
X132218600Y-59025000I100000J0D01*
G01*
X132418600Y-59025000D01*
G75*
G02*
X132518600Y-59125000I0J-100000D01*
G01*
X132518600Y-60400000D01*
G75*
G02*
X132418600Y-60500000I-100000J0D01*
G01*
G37*
D10*
X148945600Y-45875000D03*
X148945600Y-50925000D03*
X146405600Y-45875000D03*
X146405600Y-50925000D03*
X143865600Y-45875000D03*
X143865600Y-50925000D03*
X141325600Y-45875000D03*
X141325600Y-50925000D03*
X138785600Y-45875000D03*
X138785600Y-50925000D03*
G36*
G01*
X140975000Y-54775000D02*
X140775000Y-54775000D01*
G75*
G02*
X140675000Y-54675000I0J100000D01*
G01*
X140675000Y-53400000D01*
G75*
G02*
X140775000Y-53300000I100000J0D01*
G01*
X140975000Y-53300000D01*
G75*
G02*
X141075000Y-53400000I0J-100000D01*
G01*
X141075000Y-54675000D01*
G75*
G02*
X140975000Y-54775000I-100000J0D01*
G01*
G37*
G36*
G01*
X141625000Y-54775000D02*
X141425000Y-54775000D01*
G75*
G02*
X141325000Y-54675000I0J100000D01*
G01*
X141325000Y-53400000D01*
G75*
G02*
X141425000Y-53300000I100000J0D01*
G01*
X141625000Y-53300000D01*
G75*
G02*
X141725000Y-53400000I0J-100000D01*
G01*
X141725000Y-54675000D01*
G75*
G02*
X141625000Y-54775000I-100000J0D01*
G01*
G37*
G36*
G01*
X142275000Y-54775000D02*
X142075000Y-54775000D01*
G75*
G02*
X141975000Y-54675000I0J100000D01*
G01*
X141975000Y-53400000D01*
G75*
G02*
X142075000Y-53300000I100000J0D01*
G01*
X142275000Y-53300000D01*
G75*
G02*
X142375000Y-53400000I0J-100000D01*
G01*
X142375000Y-54675000D01*
G75*
G02*
X142275000Y-54775000I-100000J0D01*
G01*
G37*
G36*
G01*
X142925000Y-54775000D02*
X142725000Y-54775000D01*
G75*
G02*
X142625000Y-54675000I0J100000D01*
G01*
X142625000Y-53400000D01*
G75*
G02*
X142725000Y-53300000I100000J0D01*
G01*
X142925000Y-53300000D01*
G75*
G02*
X143025000Y-53400000I0J-100000D01*
G01*
X143025000Y-54675000D01*
G75*
G02*
X142925000Y-54775000I-100000J0D01*
G01*
G37*
G36*
G01*
X143575000Y-54775000D02*
X143375000Y-54775000D01*
G75*
G02*
X143275000Y-54675000I0J100000D01*
G01*
X143275000Y-53400000D01*
G75*
G02*
X143375000Y-53300000I100000J0D01*
G01*
X143575000Y-53300000D01*
G75*
G02*
X143675000Y-53400000I0J-100000D01*
G01*
X143675000Y-54675000D01*
G75*
G02*
X143575000Y-54775000I-100000J0D01*
G01*
G37*
G36*
G01*
X144225000Y-54775000D02*
X144025000Y-54775000D01*
G75*
G02*
X143925000Y-54675000I0J100000D01*
G01*
X143925000Y-53400000D01*
G75*
G02*
X144025000Y-53300000I100000J0D01*
G01*
X144225000Y-53300000D01*
G75*
G02*
X144325000Y-53400000I0J-100000D01*
G01*
X144325000Y-54675000D01*
G75*
G02*
X144225000Y-54775000I-100000J0D01*
G01*
G37*
G36*
G01*
X144875000Y-54775000D02*
X144675000Y-54775000D01*
G75*
G02*
X144575000Y-54675000I0J100000D01*
G01*
X144575000Y-53400000D01*
G75*
G02*
X144675000Y-53300000I100000J0D01*
G01*
X144875000Y-53300000D01*
G75*
G02*
X144975000Y-53400000I0J-100000D01*
G01*
X144975000Y-54675000D01*
G75*
G02*
X144875000Y-54775000I-100000J0D01*
G01*
G37*
G36*
G01*
X145525000Y-54775000D02*
X145325000Y-54775000D01*
G75*
G02*
X145225000Y-54675000I0J100000D01*
G01*
X145225000Y-53400000D01*
G75*
G02*
X145325000Y-53300000I100000J0D01*
G01*
X145525000Y-53300000D01*
G75*
G02*
X145625000Y-53400000I0J-100000D01*
G01*
X145625000Y-54675000D01*
G75*
G02*
X145525000Y-54775000I-100000J0D01*
G01*
G37*
G36*
G01*
X146175000Y-54775000D02*
X145975000Y-54775000D01*
G75*
G02*
X145875000Y-54675000I0J100000D01*
G01*
X145875000Y-53400000D01*
G75*
G02*
X145975000Y-53300000I100000J0D01*
G01*
X146175000Y-53300000D01*
G75*
G02*
X146275000Y-53400000I0J-100000D01*
G01*
X146275000Y-54675000D01*
G75*
G02*
X146175000Y-54775000I-100000J0D01*
G01*
G37*
G36*
G01*
X146825000Y-54775000D02*
X146625000Y-54775000D01*
G75*
G02*
X146525000Y-54675000I0J100000D01*
G01*
X146525000Y-53400000D01*
G75*
G02*
X146625000Y-53300000I100000J0D01*
G01*
X146825000Y-53300000D01*
G75*
G02*
X146925000Y-53400000I0J-100000D01*
G01*
X146925000Y-54675000D01*
G75*
G02*
X146825000Y-54775000I-100000J0D01*
G01*
G37*
G36*
G01*
X147475000Y-54775000D02*
X147275000Y-54775000D01*
G75*
G02*
X147175000Y-54675000I0J100000D01*
G01*
X147175000Y-53400000D01*
G75*
G02*
X147275000Y-53300000I100000J0D01*
G01*
X147475000Y-53300000D01*
G75*
G02*
X147575000Y-53400000I0J-100000D01*
G01*
X147575000Y-54675000D01*
G75*
G02*
X147475000Y-54775000I-100000J0D01*
G01*
G37*
G36*
G01*
X148125000Y-54775000D02*
X147925000Y-54775000D01*
G75*
G02*
X147825000Y-54675000I0J100000D01*
G01*
X147825000Y-53400000D01*
G75*
G02*
X147925000Y-53300000I100000J0D01*
G01*
X148125000Y-53300000D01*
G75*
G02*
X148225000Y-53400000I0J-100000D01*
G01*
X148225000Y-54675000D01*
G75*
G02*
X148125000Y-54775000I-100000J0D01*
G01*
G37*
G36*
G01*
X148775000Y-54775000D02*
X148575000Y-54775000D01*
G75*
G02*
X148475000Y-54675000I0J100000D01*
G01*
X148475000Y-53400000D01*
G75*
G02*
X148575000Y-53300000I100000J0D01*
G01*
X148775000Y-53300000D01*
G75*
G02*
X148875000Y-53400000I0J-100000D01*
G01*
X148875000Y-54675000D01*
G75*
G02*
X148775000Y-54775000I-100000J0D01*
G01*
G37*
G36*
G01*
X149425000Y-54775000D02*
X149225000Y-54775000D01*
G75*
G02*
X149125000Y-54675000I0J100000D01*
G01*
X149125000Y-53400000D01*
G75*
G02*
X149225000Y-53300000I100000J0D01*
G01*
X149425000Y-53300000D01*
G75*
G02*
X149525000Y-53400000I0J-100000D01*
G01*
X149525000Y-54675000D01*
G75*
G02*
X149425000Y-54775000I-100000J0D01*
G01*
G37*
G36*
G01*
X149425000Y-60500000D02*
X149225000Y-60500000D01*
G75*
G02*
X149125000Y-60400000I0J100000D01*
G01*
X149125000Y-59125000D01*
G75*
G02*
X149225000Y-59025000I100000J0D01*
G01*
X149425000Y-59025000D01*
G75*
G02*
X149525000Y-59125000I0J-100000D01*
G01*
X149525000Y-60400000D01*
G75*
G02*
X149425000Y-60500000I-100000J0D01*
G01*
G37*
G36*
G01*
X148775000Y-60500000D02*
X148575000Y-60500000D01*
G75*
G02*
X148475000Y-60400000I0J100000D01*
G01*
X148475000Y-59125000D01*
G75*
G02*
X148575000Y-59025000I100000J0D01*
G01*
X148775000Y-59025000D01*
G75*
G02*
X148875000Y-59125000I0J-100000D01*
G01*
X148875000Y-60400000D01*
G75*
G02*
X148775000Y-60500000I-100000J0D01*
G01*
G37*
G36*
G01*
X148125000Y-60500000D02*
X147925000Y-60500000D01*
G75*
G02*
X147825000Y-60400000I0J100000D01*
G01*
X147825000Y-59125000D01*
G75*
G02*
X147925000Y-59025000I100000J0D01*
G01*
X148125000Y-59025000D01*
G75*
G02*
X148225000Y-59125000I0J-100000D01*
G01*
X148225000Y-60400000D01*
G75*
G02*
X148125000Y-60500000I-100000J0D01*
G01*
G37*
G36*
G01*
X147475000Y-60500000D02*
X147275000Y-60500000D01*
G75*
G02*
X147175000Y-60400000I0J100000D01*
G01*
X147175000Y-59125000D01*
G75*
G02*
X147275000Y-59025000I100000J0D01*
G01*
X147475000Y-59025000D01*
G75*
G02*
X147575000Y-59125000I0J-100000D01*
G01*
X147575000Y-60400000D01*
G75*
G02*
X147475000Y-60500000I-100000J0D01*
G01*
G37*
G36*
G01*
X146825000Y-60500000D02*
X146625000Y-60500000D01*
G75*
G02*
X146525000Y-60400000I0J100000D01*
G01*
X146525000Y-59125000D01*
G75*
G02*
X146625000Y-59025000I100000J0D01*
G01*
X146825000Y-59025000D01*
G75*
G02*
X146925000Y-59125000I0J-100000D01*
G01*
X146925000Y-60400000D01*
G75*
G02*
X146825000Y-60500000I-100000J0D01*
G01*
G37*
G36*
G01*
X146175000Y-60500000D02*
X145975000Y-60500000D01*
G75*
G02*
X145875000Y-60400000I0J100000D01*
G01*
X145875000Y-59125000D01*
G75*
G02*
X145975000Y-59025000I100000J0D01*
G01*
X146175000Y-59025000D01*
G75*
G02*
X146275000Y-59125000I0J-100000D01*
G01*
X146275000Y-60400000D01*
G75*
G02*
X146175000Y-60500000I-100000J0D01*
G01*
G37*
G36*
G01*
X145525000Y-60500000D02*
X145325000Y-60500000D01*
G75*
G02*
X145225000Y-60400000I0J100000D01*
G01*
X145225000Y-59125000D01*
G75*
G02*
X145325000Y-59025000I100000J0D01*
G01*
X145525000Y-59025000D01*
G75*
G02*
X145625000Y-59125000I0J-100000D01*
G01*
X145625000Y-60400000D01*
G75*
G02*
X145525000Y-60500000I-100000J0D01*
G01*
G37*
G36*
G01*
X144875000Y-60500000D02*
X144675000Y-60500000D01*
G75*
G02*
X144575000Y-60400000I0J100000D01*
G01*
X144575000Y-59125000D01*
G75*
G02*
X144675000Y-59025000I100000J0D01*
G01*
X144875000Y-59025000D01*
G75*
G02*
X144975000Y-59125000I0J-100000D01*
G01*
X144975000Y-60400000D01*
G75*
G02*
X144875000Y-60500000I-100000J0D01*
G01*
G37*
G36*
G01*
X144225000Y-60500000D02*
X144025000Y-60500000D01*
G75*
G02*
X143925000Y-60400000I0J100000D01*
G01*
X143925000Y-59125000D01*
G75*
G02*
X144025000Y-59025000I100000J0D01*
G01*
X144225000Y-59025000D01*
G75*
G02*
X144325000Y-59125000I0J-100000D01*
G01*
X144325000Y-60400000D01*
G75*
G02*
X144225000Y-60500000I-100000J0D01*
G01*
G37*
G36*
G01*
X143575000Y-60500000D02*
X143375000Y-60500000D01*
G75*
G02*
X143275000Y-60400000I0J100000D01*
G01*
X143275000Y-59125000D01*
G75*
G02*
X143375000Y-59025000I100000J0D01*
G01*
X143575000Y-59025000D01*
G75*
G02*
X143675000Y-59125000I0J-100000D01*
G01*
X143675000Y-60400000D01*
G75*
G02*
X143575000Y-60500000I-100000J0D01*
G01*
G37*
G36*
G01*
X142925000Y-60500000D02*
X142725000Y-60500000D01*
G75*
G02*
X142625000Y-60400000I0J100000D01*
G01*
X142625000Y-59125000D01*
G75*
G02*
X142725000Y-59025000I100000J0D01*
G01*
X142925000Y-59025000D01*
G75*
G02*
X143025000Y-59125000I0J-100000D01*
G01*
X143025000Y-60400000D01*
G75*
G02*
X142925000Y-60500000I-100000J0D01*
G01*
G37*
G36*
G01*
X142275000Y-60500000D02*
X142075000Y-60500000D01*
G75*
G02*
X141975000Y-60400000I0J100000D01*
G01*
X141975000Y-59125000D01*
G75*
G02*
X142075000Y-59025000I100000J0D01*
G01*
X142275000Y-59025000D01*
G75*
G02*
X142375000Y-59125000I0J-100000D01*
G01*
X142375000Y-60400000D01*
G75*
G02*
X142275000Y-60500000I-100000J0D01*
G01*
G37*
G36*
G01*
X141625000Y-60500000D02*
X141425000Y-60500000D01*
G75*
G02*
X141325000Y-60400000I0J100000D01*
G01*
X141325000Y-59125000D01*
G75*
G02*
X141425000Y-59025000I100000J0D01*
G01*
X141625000Y-59025000D01*
G75*
G02*
X141725000Y-59125000I0J-100000D01*
G01*
X141725000Y-60400000D01*
G75*
G02*
X141625000Y-60500000I-100000J0D01*
G01*
G37*
G36*
G01*
X140975000Y-60500000D02*
X140775000Y-60500000D01*
G75*
G02*
X140675000Y-60400000I0J100000D01*
G01*
X140675000Y-59125000D01*
G75*
G02*
X140775000Y-59025000I100000J0D01*
G01*
X140975000Y-59025000D01*
G75*
G02*
X141075000Y-59125000I0J-100000D01*
G01*
X141075000Y-60400000D01*
G75*
G02*
X140975000Y-60500000I-100000J0D01*
G01*
G37*
G36*
G01*
X104000000Y-71150001D02*
X104000000Y-69849999D01*
G75*
G02*
X104249999Y-69600000I249999J0D01*
G01*
X105075001Y-69600000D01*
G75*
G02*
X105325000Y-69849999I0J-249999D01*
G01*
X105325000Y-71150001D01*
G75*
G02*
X105075001Y-71400000I-249999J0D01*
G01*
X104249999Y-71400000D01*
G75*
G02*
X104000000Y-71150001I0J249999D01*
G01*
G37*
G36*
G01*
X100875000Y-71150001D02*
X100875000Y-69849999D01*
G75*
G02*
X101124999Y-69600000I249999J0D01*
G01*
X101950001Y-69600000D01*
G75*
G02*
X102200000Y-69849999I0J-249999D01*
G01*
X102200000Y-71150001D01*
G75*
G02*
X101950001Y-71400000I-249999J0D01*
G01*
X101124999Y-71400000D01*
G75*
G02*
X100875000Y-71150001I0J249999D01*
G01*
G37*
G36*
G01*
X154750001Y-46100000D02*
X153849999Y-46100000D01*
G75*
G02*
X153600000Y-45850001I0J249999D01*
G01*
X153600000Y-45149999D01*
G75*
G02*
X153849999Y-44900000I249999J0D01*
G01*
X154750001Y-44900000D01*
G75*
G02*
X155000000Y-45149999I0J-249999D01*
G01*
X155000000Y-45850001D01*
G75*
G02*
X154750001Y-46100000I-249999J0D01*
G01*
G37*
G36*
G01*
X154750001Y-48100000D02*
X153849999Y-48100000D01*
G75*
G02*
X153600000Y-47850001I0J249999D01*
G01*
X153600000Y-47149999D01*
G75*
G02*
X153849999Y-46900000I249999J0D01*
G01*
X154750001Y-46900000D01*
G75*
G02*
X155000000Y-47149999I0J-249999D01*
G01*
X155000000Y-47850001D01*
G75*
G02*
X154750001Y-48100000I-249999J0D01*
G01*
G37*
D11*
X101290000Y-65200000D03*
X102560000Y-65200000D03*
X103830000Y-65200000D03*
X105100000Y-65200000D03*
X106370000Y-65200000D03*
X108910000Y-65200000D03*
X107640000Y-65200000D03*
D12*
X105100000Y-57895000D03*
D13*
X156575000Y-78775000D03*
X155305000Y-78775000D03*
X154035000Y-78775000D03*
X152765000Y-78775000D03*
X152765000Y-73025000D03*
X154035000Y-73025000D03*
X155305000Y-73025000D03*
X156575000Y-73025000D03*
D14*
X154670000Y-75900000D03*
D13*
X151075000Y-78775000D03*
X149805000Y-78775000D03*
X148535000Y-78775000D03*
X147265000Y-78775000D03*
X147265000Y-73025000D03*
X148535000Y-73025000D03*
X149805000Y-73025000D03*
X151075000Y-73025000D03*
D14*
X149170000Y-75900000D03*
D13*
X143605000Y-78775000D03*
X142335000Y-78775000D03*
X141065000Y-78775000D03*
X139795000Y-78775000D03*
X139795000Y-73025000D03*
X141065000Y-73025000D03*
X142335000Y-73025000D03*
X143605000Y-73025000D03*
D14*
X141700000Y-75900000D03*
D13*
X138105000Y-78775000D03*
X136835000Y-78775000D03*
X135565000Y-78775000D03*
X134295000Y-78775000D03*
X134295000Y-73025000D03*
X135565000Y-73025000D03*
X136835000Y-73025000D03*
X138105000Y-73025000D03*
D14*
X136200000Y-75900000D03*
D13*
X130605000Y-78775000D03*
X129335000Y-78775000D03*
X128065000Y-78775000D03*
X126795000Y-78775000D03*
X126795000Y-73025000D03*
X128065000Y-73025000D03*
X129335000Y-73025000D03*
X130605000Y-73025000D03*
D14*
X128700000Y-75900000D03*
G36*
G01*
X153445000Y-69350000D02*
X152495000Y-69350000D01*
G75*
G02*
X152245000Y-69100000I0J250000D01*
G01*
X152245000Y-68425000D01*
G75*
G02*
X152495000Y-68175000I250000J0D01*
G01*
X153445000Y-68175000D01*
G75*
G02*
X153695000Y-68425000I0J-250000D01*
G01*
X153695000Y-69100000D01*
G75*
G02*
X153445000Y-69350000I-250000J0D01*
G01*
G37*
G36*
G01*
X153445000Y-71425000D02*
X152495000Y-71425000D01*
G75*
G02*
X152245000Y-71175000I0J250000D01*
G01*
X152245000Y-70500000D01*
G75*
G02*
X152495000Y-70250000I250000J0D01*
G01*
X153445000Y-70250000D01*
G75*
G02*
X153695000Y-70500000I0J-250000D01*
G01*
X153695000Y-71175000D01*
G75*
G02*
X153445000Y-71425000I-250000J0D01*
G01*
G37*
G36*
G01*
X147945000Y-69350000D02*
X146995000Y-69350000D01*
G75*
G02*
X146745000Y-69100000I0J250000D01*
G01*
X146745000Y-68425000D01*
G75*
G02*
X146995000Y-68175000I250000J0D01*
G01*
X147945000Y-68175000D01*
G75*
G02*
X148195000Y-68425000I0J-250000D01*
G01*
X148195000Y-69100000D01*
G75*
G02*
X147945000Y-69350000I-250000J0D01*
G01*
G37*
G36*
G01*
X147945000Y-71425000D02*
X146995000Y-71425000D01*
G75*
G02*
X146745000Y-71175000I0J250000D01*
G01*
X146745000Y-70500000D01*
G75*
G02*
X146995000Y-70250000I250000J0D01*
G01*
X147945000Y-70250000D01*
G75*
G02*
X148195000Y-70500000I0J-250000D01*
G01*
X148195000Y-71175000D01*
G75*
G02*
X147945000Y-71425000I-250000J0D01*
G01*
G37*
G36*
G01*
X140475000Y-69350000D02*
X139525000Y-69350000D01*
G75*
G02*
X139275000Y-69100000I0J250000D01*
G01*
X139275000Y-68425000D01*
G75*
G02*
X139525000Y-68175000I250000J0D01*
G01*
X140475000Y-68175000D01*
G75*
G02*
X140725000Y-68425000I0J-250000D01*
G01*
X140725000Y-69100000D01*
G75*
G02*
X140475000Y-69350000I-250000J0D01*
G01*
G37*
G36*
G01*
X140475000Y-71425000D02*
X139525000Y-71425000D01*
G75*
G02*
X139275000Y-71175000I0J250000D01*
G01*
X139275000Y-70500000D01*
G75*
G02*
X139525000Y-70250000I250000J0D01*
G01*
X140475000Y-70250000D01*
G75*
G02*
X140725000Y-70500000I0J-250000D01*
G01*
X140725000Y-71175000D01*
G75*
G02*
X140475000Y-71425000I-250000J0D01*
G01*
G37*
G36*
G01*
X134975000Y-69350000D02*
X134025000Y-69350000D01*
G75*
G02*
X133775000Y-69100000I0J250000D01*
G01*
X133775000Y-68425000D01*
G75*
G02*
X134025000Y-68175000I250000J0D01*
G01*
X134975000Y-68175000D01*
G75*
G02*
X135225000Y-68425000I0J-250000D01*
G01*
X135225000Y-69100000D01*
G75*
G02*
X134975000Y-69350000I-250000J0D01*
G01*
G37*
G36*
G01*
X134975000Y-71425000D02*
X134025000Y-71425000D01*
G75*
G02*
X133775000Y-71175000I0J250000D01*
G01*
X133775000Y-70500000D01*
G75*
G02*
X134025000Y-70250000I250000J0D01*
G01*
X134975000Y-70250000D01*
G75*
G02*
X135225000Y-70500000I0J-250000D01*
G01*
X135225000Y-71175000D01*
G75*
G02*
X134975000Y-71425000I-250000J0D01*
G01*
G37*
G36*
G01*
X127475000Y-69350000D02*
X126525000Y-69350000D01*
G75*
G02*
X126275000Y-69100000I0J250000D01*
G01*
X126275000Y-68425000D01*
G75*
G02*
X126525000Y-68175000I250000J0D01*
G01*
X127475000Y-68175000D01*
G75*
G02*
X127725000Y-68425000I0J-250000D01*
G01*
X127725000Y-69100000D01*
G75*
G02*
X127475000Y-69350000I-250000J0D01*
G01*
G37*
G36*
G01*
X127475000Y-71425000D02*
X126525000Y-71425000D01*
G75*
G02*
X126275000Y-71175000I0J250000D01*
G01*
X126275000Y-70500000D01*
G75*
G02*
X126525000Y-70250000I250000J0D01*
G01*
X127475000Y-70250000D01*
G75*
G02*
X127725000Y-70500000I0J-250000D01*
G01*
X127725000Y-71175000D01*
G75*
G02*
X127475000Y-71425000I-250000J0D01*
G01*
G37*
G36*
G01*
X151405000Y-82550000D02*
X150455000Y-82550000D01*
G75*
G02*
X150205000Y-82300000I0J250000D01*
G01*
X150205000Y-81625000D01*
G75*
G02*
X150455000Y-81375000I250000J0D01*
G01*
X151405000Y-81375000D01*
G75*
G02*
X151655000Y-81625000I0J-250000D01*
G01*
X151655000Y-82300000D01*
G75*
G02*
X151405000Y-82550000I-250000J0D01*
G01*
G37*
G36*
G01*
X151405000Y-84625000D02*
X150455000Y-84625000D01*
G75*
G02*
X150205000Y-84375000I0J250000D01*
G01*
X150205000Y-83700000D01*
G75*
G02*
X150455000Y-83450000I250000J0D01*
G01*
X151405000Y-83450000D01*
G75*
G02*
X151655000Y-83700000I0J-250000D01*
G01*
X151655000Y-84375000D01*
G75*
G02*
X151405000Y-84625000I-250000J0D01*
G01*
G37*
G36*
G01*
X145915000Y-77750000D02*
X144965000Y-77750000D01*
G75*
G02*
X144715000Y-77500000I0J250000D01*
G01*
X144715000Y-76825000D01*
G75*
G02*
X144965000Y-76575000I250000J0D01*
G01*
X145915000Y-76575000D01*
G75*
G02*
X146165000Y-76825000I0J-250000D01*
G01*
X146165000Y-77500000D01*
G75*
G02*
X145915000Y-77750000I-250000J0D01*
G01*
G37*
G36*
G01*
X145915000Y-79825000D02*
X144965000Y-79825000D01*
G75*
G02*
X144715000Y-79575000I0J250000D01*
G01*
X144715000Y-78900000D01*
G75*
G02*
X144965000Y-78650000I250000J0D01*
G01*
X145915000Y-78650000D01*
G75*
G02*
X146165000Y-78900000I0J-250000D01*
G01*
X146165000Y-79575000D01*
G75*
G02*
X145915000Y-79825000I-250000J0D01*
G01*
G37*
G36*
G01*
X138475000Y-82550000D02*
X137525000Y-82550000D01*
G75*
G02*
X137275000Y-82300000I0J250000D01*
G01*
X137275000Y-81625000D01*
G75*
G02*
X137525000Y-81375000I250000J0D01*
G01*
X138475000Y-81375000D01*
G75*
G02*
X138725000Y-81625000I0J-250000D01*
G01*
X138725000Y-82300000D01*
G75*
G02*
X138475000Y-82550000I-250000J0D01*
G01*
G37*
G36*
G01*
X138475000Y-84625000D02*
X137525000Y-84625000D01*
G75*
G02*
X137275000Y-84375000I0J250000D01*
G01*
X137275000Y-83700000D01*
G75*
G02*
X137525000Y-83450000I250000J0D01*
G01*
X138475000Y-83450000D01*
G75*
G02*
X138725000Y-83700000I0J-250000D01*
G01*
X138725000Y-84375000D01*
G75*
G02*
X138475000Y-84625000I-250000J0D01*
G01*
G37*
G36*
G01*
X132925000Y-77750000D02*
X131975000Y-77750000D01*
G75*
G02*
X131725000Y-77500000I0J250000D01*
G01*
X131725000Y-76825000D01*
G75*
G02*
X131975000Y-76575000I250000J0D01*
G01*
X132925000Y-76575000D01*
G75*
G02*
X133175000Y-76825000I0J-250000D01*
G01*
X133175000Y-77500000D01*
G75*
G02*
X132925000Y-77750000I-250000J0D01*
G01*
G37*
G36*
G01*
X132925000Y-79825000D02*
X131975000Y-79825000D01*
G75*
G02*
X131725000Y-79575000I0J250000D01*
G01*
X131725000Y-78900000D01*
G75*
G02*
X131975000Y-78650000I250000J0D01*
G01*
X132925000Y-78650000D01*
G75*
G02*
X133175000Y-78900000I0J-250000D01*
G01*
X133175000Y-79575000D01*
G75*
G02*
X132925000Y-79825000I-250000J0D01*
G01*
G37*
G36*
G01*
X125443000Y-82550000D02*
X124493000Y-82550000D01*
G75*
G02*
X124243000Y-82300000I0J250000D01*
G01*
X124243000Y-81625000D01*
G75*
G02*
X124493000Y-81375000I250000J0D01*
G01*
X125443000Y-81375000D01*
G75*
G02*
X125693000Y-81625000I0J-250000D01*
G01*
X125693000Y-82300000D01*
G75*
G02*
X125443000Y-82550000I-250000J0D01*
G01*
G37*
G36*
G01*
X125443000Y-84625000D02*
X124493000Y-84625000D01*
G75*
G02*
X124243000Y-84375000I0J250000D01*
G01*
X124243000Y-83700000D01*
G75*
G02*
X124493000Y-83450000I250000J0D01*
G01*
X125443000Y-83450000D01*
G75*
G02*
X125693000Y-83700000I0J-250000D01*
G01*
X125693000Y-84375000D01*
G75*
G02*
X125443000Y-84625000I-250000J0D01*
G01*
G37*
G36*
G01*
X112750000Y-68050000D02*
X113850000Y-68050000D01*
G75*
G02*
X114100000Y-68300000I0J-250000D01*
G01*
X114100000Y-71300000D01*
G75*
G02*
X113850000Y-71550000I-250000J0D01*
G01*
X112750000Y-71550000D01*
G75*
G02*
X112500000Y-71300000I0J250000D01*
G01*
X112500000Y-68300000D01*
G75*
G02*
X112750000Y-68050000I250000J0D01*
G01*
G37*
G36*
G01*
X112750000Y-62650000D02*
X113850000Y-62650000D01*
G75*
G02*
X114100000Y-62900000I0J-250000D01*
G01*
X114100000Y-65900000D01*
G75*
G02*
X113850000Y-66150000I-250000J0D01*
G01*
X112750000Y-66150000D01*
G75*
G02*
X112500000Y-65900000I0J250000D01*
G01*
X112500000Y-62900000D01*
G75*
G02*
X112750000Y-62650000I250000J0D01*
G01*
G37*
G36*
G01*
X107300000Y-70049999D02*
X107300000Y-70950001D01*
G75*
G02*
X107050001Y-71200000I-249999J0D01*
G01*
X106349999Y-71200000D01*
G75*
G02*
X106100000Y-70950001I0J249999D01*
G01*
X106100000Y-70049999D01*
G75*
G02*
X106349999Y-69800000I249999J0D01*
G01*
X107050001Y-69800000D01*
G75*
G02*
X107300000Y-70049999I0J-249999D01*
G01*
G37*
G36*
G01*
X109300000Y-70049999D02*
X109300000Y-70950001D01*
G75*
G02*
X109050001Y-71200000I-249999J0D01*
G01*
X108349999Y-71200000D01*
G75*
G02*
X108100000Y-70950001I0J249999D01*
G01*
X108100000Y-70049999D01*
G75*
G02*
X108349999Y-69800000I249999J0D01*
G01*
X109050001Y-69800000D01*
G75*
G02*
X109300000Y-70049999I0J-249999D01*
G01*
G37*
G36*
G01*
X108100000Y-68550001D02*
X108100000Y-67649999D01*
G75*
G02*
X108349999Y-67400000I249999J0D01*
G01*
X109050001Y-67400000D01*
G75*
G02*
X109300000Y-67649999I0J-249999D01*
G01*
X109300000Y-68550001D01*
G75*
G02*
X109050001Y-68800000I-249999J0D01*
G01*
X108349999Y-68800000D01*
G75*
G02*
X108100000Y-68550001I0J249999D01*
G01*
G37*
G36*
G01*
X106100000Y-68550001D02*
X106100000Y-67649999D01*
G75*
G02*
X106349999Y-67400000I249999J0D01*
G01*
X107050001Y-67400000D01*
G75*
G02*
X107300000Y-67649999I0J-249999D01*
G01*
X107300000Y-68550001D01*
G75*
G02*
X107050001Y-68800000I-249999J0D01*
G01*
X106349999Y-68800000D01*
G75*
G02*
X106100000Y-68550001I0J249999D01*
G01*
G37*
G36*
G01*
X131168600Y-54512500D02*
X130218600Y-54512500D01*
G75*
G02*
X129968600Y-54262500I0J250000D01*
G01*
X129968600Y-53587500D01*
G75*
G02*
X130218600Y-53337500I250000J0D01*
G01*
X131168600Y-53337500D01*
G75*
G02*
X131418600Y-53587500I0J-250000D01*
G01*
X131418600Y-54262500D01*
G75*
G02*
X131168600Y-54512500I-250000J0D01*
G01*
G37*
G36*
G01*
X131168600Y-56587500D02*
X130218600Y-56587500D01*
G75*
G02*
X129968600Y-56337500I0J250000D01*
G01*
X129968600Y-55662500D01*
G75*
G02*
X130218600Y-55412500I250000J0D01*
G01*
X131168600Y-55412500D01*
G75*
G02*
X131418600Y-55662500I0J-250000D01*
G01*
X131418600Y-56337500D01*
G75*
G02*
X131168600Y-56587500I-250000J0D01*
G01*
G37*
G36*
G01*
X104000000Y-68750001D02*
X104000000Y-67449999D01*
G75*
G02*
X104249999Y-67200000I249999J0D01*
G01*
X105075001Y-67200000D01*
G75*
G02*
X105325000Y-67449999I0J-249999D01*
G01*
X105325000Y-68750001D01*
G75*
G02*
X105075001Y-69000000I-249999J0D01*
G01*
X104249999Y-69000000D01*
G75*
G02*
X104000000Y-68750001I0J249999D01*
G01*
G37*
G36*
G01*
X100875000Y-68750001D02*
X100875000Y-67449999D01*
G75*
G02*
X101124999Y-67200000I249999J0D01*
G01*
X101950001Y-67200000D01*
G75*
G02*
X102200000Y-67449999I0J-249999D01*
G01*
X102200000Y-68750001D01*
G75*
G02*
X101950001Y-69000000I-249999J0D01*
G01*
X101124999Y-69000000D01*
G75*
G02*
X100875000Y-68750001I0J249999D01*
G01*
G37*
G36*
G01*
X108100000Y-73150001D02*
X108100000Y-72249999D01*
G75*
G02*
X108349999Y-72000000I249999J0D01*
G01*
X109050001Y-72000000D01*
G75*
G02*
X109300000Y-72249999I0J-249999D01*
G01*
X109300000Y-73150001D01*
G75*
G02*
X109050001Y-73400000I-249999J0D01*
G01*
X108349999Y-73400000D01*
G75*
G02*
X108100000Y-73150001I0J249999D01*
G01*
G37*
G36*
G01*
X106100000Y-73150001D02*
X106100000Y-72249999D01*
G75*
G02*
X106349999Y-72000000I249999J0D01*
G01*
X107050001Y-72000000D01*
G75*
G02*
X107300000Y-72249999I0J-249999D01*
G01*
X107300000Y-73150001D01*
G75*
G02*
X107050001Y-73400000I-249999J0D01*
G01*
X106349999Y-73400000D01*
G75*
G02*
X106100000Y-73150001I0J249999D01*
G01*
G37*
G36*
G01*
X104100000Y-73150001D02*
X104100000Y-72249999D01*
G75*
G02*
X104349999Y-72000000I249999J0D01*
G01*
X105050001Y-72000000D01*
G75*
G02*
X105300000Y-72249999I0J-249999D01*
G01*
X105300000Y-73150001D01*
G75*
G02*
X105050001Y-73400000I-249999J0D01*
G01*
X104349999Y-73400000D01*
G75*
G02*
X104100000Y-73150001I0J249999D01*
G01*
G37*
G36*
G01*
X102100000Y-73150001D02*
X102100000Y-72249999D01*
G75*
G02*
X102349999Y-72000000I249999J0D01*
G01*
X103050001Y-72000000D01*
G75*
G02*
X103300000Y-72249999I0J-249999D01*
G01*
X103300000Y-73150001D01*
G75*
G02*
X103050001Y-73400000I-249999J0D01*
G01*
X102349999Y-73400000D01*
G75*
G02*
X102100000Y-73150001I0J249999D01*
G01*
G37*
D15*
X107700000Y-91900000D03*
X107700000Y-90500000D03*
G36*
G01*
X130243599Y-59300000D02*
X131143601Y-59300000D01*
G75*
G02*
X131393600Y-59549999I0J-249999D01*
G01*
X131393600Y-60250001D01*
G75*
G02*
X131143601Y-60500000I-249999J0D01*
G01*
X130243599Y-60500000D01*
G75*
G02*
X129993600Y-60250001I0J249999D01*
G01*
X129993600Y-59549999D01*
G75*
G02*
X130243599Y-59300000I249999J0D01*
G01*
G37*
G36*
G01*
X130243599Y-57300000D02*
X131143601Y-57300000D01*
G75*
G02*
X131393600Y-57549999I0J-249999D01*
G01*
X131393600Y-58250001D01*
G75*
G02*
X131143601Y-58500000I-249999J0D01*
G01*
X130243599Y-58500000D01*
G75*
G02*
X129993600Y-58250001I0J249999D01*
G01*
X129993600Y-57549999D01*
G75*
G02*
X130243599Y-57300000I249999J0D01*
G01*
G37*
D13*
X125105000Y-78775000D03*
X123835000Y-78775000D03*
X122565000Y-78775000D03*
X121295000Y-78775000D03*
X121295000Y-73025000D03*
X122565000Y-73025000D03*
X123835000Y-73025000D03*
X125105000Y-73025000D03*
D14*
X123200000Y-75900000D03*
G36*
G01*
X121975000Y-69350000D02*
X121025000Y-69350000D01*
G75*
G02*
X120775000Y-69100000I0J250000D01*
G01*
X120775000Y-68425000D01*
G75*
G02*
X121025000Y-68175000I250000J0D01*
G01*
X121975000Y-68175000D01*
G75*
G02*
X122225000Y-68425000I0J-250000D01*
G01*
X122225000Y-69100000D01*
G75*
G02*
X121975000Y-69350000I-250000J0D01*
G01*
G37*
G36*
G01*
X121975000Y-71425000D02*
X121025000Y-71425000D01*
G75*
G02*
X120775000Y-71175000I0J250000D01*
G01*
X120775000Y-70500000D01*
G75*
G02*
X121025000Y-70250000I250000J0D01*
G01*
X121975000Y-70250000D01*
G75*
G02*
X122225000Y-70500000I0J-250000D01*
G01*
X122225000Y-71175000D01*
G75*
G02*
X121975000Y-71425000I-250000J0D01*
G01*
G37*
G36*
G01*
X119925000Y-77750000D02*
X118975000Y-77750000D01*
G75*
G02*
X118725000Y-77500000I0J250000D01*
G01*
X118725000Y-76825000D01*
G75*
G02*
X118975000Y-76575000I250000J0D01*
G01*
X119925000Y-76575000D01*
G75*
G02*
X120175000Y-76825000I0J-250000D01*
G01*
X120175000Y-77500000D01*
G75*
G02*
X119925000Y-77750000I-250000J0D01*
G01*
G37*
G36*
G01*
X119974725Y-79825000D02*
X119025275Y-79825000D01*
G75*
G02*
X118775000Y-79574725I0J250275D01*
G01*
X118775000Y-78900275D01*
G75*
G02*
X119025275Y-78650000I250275J0D01*
G01*
X119974725Y-78650000D01*
G75*
G02*
X120225000Y-78900275I0J-250275D01*
G01*
X120225000Y-79574725D01*
G75*
G02*
X119974725Y-79825000I-250275J0D01*
G01*
G37*
G36*
G01*
X130800000Y-51049999D02*
X130800000Y-51950001D01*
G75*
G02*
X130550001Y-52200000I-249999J0D01*
G01*
X129849999Y-52200000D01*
G75*
G02*
X129600000Y-51950001I0J249999D01*
G01*
X129600000Y-51049999D01*
G75*
G02*
X129849999Y-50800000I249999J0D01*
G01*
X130550001Y-50800000D01*
G75*
G02*
X130800000Y-51049999I0J-249999D01*
G01*
G37*
G36*
G01*
X132800000Y-51049999D02*
X132800000Y-51950001D01*
G75*
G02*
X132550001Y-52200000I-249999J0D01*
G01*
X131849999Y-52200000D01*
G75*
G02*
X131600000Y-51950001I0J249999D01*
G01*
X131600000Y-51049999D01*
G75*
G02*
X131849999Y-50800000I249999J0D01*
G01*
X132550001Y-50800000D01*
G75*
G02*
X132800000Y-51049999I0J-249999D01*
G01*
G37*
G36*
G01*
X135400000Y-51950001D02*
X135400000Y-51049999D01*
G75*
G02*
X135649999Y-50800000I249999J0D01*
G01*
X136350001Y-50800000D01*
G75*
G02*
X136600000Y-51049999I0J-249999D01*
G01*
X136600000Y-51950001D01*
G75*
G02*
X136350001Y-52200000I-249999J0D01*
G01*
X135649999Y-52200000D01*
G75*
G02*
X135400000Y-51950001I0J249999D01*
G01*
G37*
G36*
G01*
X133400000Y-51950001D02*
X133400000Y-51049999D01*
G75*
G02*
X133649999Y-50800000I249999J0D01*
G01*
X134350001Y-50800000D01*
G75*
G02*
X134600000Y-51049999I0J-249999D01*
G01*
X134600000Y-51950001D01*
G75*
G02*
X134350001Y-52200000I-249999J0D01*
G01*
X133649999Y-52200000D01*
G75*
G02*
X133400000Y-51950001I0J249999D01*
G01*
G37*
G36*
G01*
X138310600Y-57346000D02*
X139260600Y-57346000D01*
G75*
G02*
X139510600Y-57596000I0J-250000D01*
G01*
X139510600Y-58271000D01*
G75*
G02*
X139260600Y-58521000I-250000J0D01*
G01*
X138310600Y-58521000D01*
G75*
G02*
X138060600Y-58271000I0J250000D01*
G01*
X138060600Y-57596000D01*
G75*
G02*
X138310600Y-57346000I250000J0D01*
G01*
G37*
G36*
G01*
X138310600Y-55271000D02*
X139260600Y-55271000D01*
G75*
G02*
X139510600Y-55521000I0J-250000D01*
G01*
X139510600Y-56196000D01*
G75*
G02*
X139260600Y-56446000I-250000J0D01*
G01*
X138310600Y-56446000D01*
G75*
G02*
X138060600Y-56196000I0J250000D01*
G01*
X138060600Y-55521000D01*
G75*
G02*
X138310600Y-55271000I250000J0D01*
G01*
G37*
D16*
X113800000Y-98450000D03*
X117000000Y-98450000D03*
X113800000Y-93550000D03*
X117000000Y-93550000D03*
X108200000Y-98450000D03*
X111400000Y-98450000D03*
X108200000Y-93550000D03*
X111400000Y-93550000D03*
G36*
G01*
X115050000Y-91775000D02*
X115050000Y-90825000D01*
G75*
G02*
X115300000Y-90575000I250000J0D01*
G01*
X115975000Y-90575000D01*
G75*
G02*
X116225000Y-90825000I0J-250000D01*
G01*
X116225000Y-91775000D01*
G75*
G02*
X115975000Y-92025000I-250000J0D01*
G01*
X115300000Y-92025000D01*
G75*
G02*
X115050000Y-91775000I0J250000D01*
G01*
G37*
G36*
G01*
X112975000Y-91775000D02*
X112975000Y-90825000D01*
G75*
G02*
X113225000Y-90575000I250000J0D01*
G01*
X113900000Y-90575000D01*
G75*
G02*
X114150000Y-90825000I0J-250000D01*
G01*
X114150000Y-91775000D01*
G75*
G02*
X113900000Y-92025000I-250000J0D01*
G01*
X113225000Y-92025000D01*
G75*
G02*
X112975000Y-91775000I0J250000D01*
G01*
G37*
G36*
G01*
X111112500Y-91775000D02*
X111112500Y-90825000D01*
G75*
G02*
X111362500Y-90575000I250000J0D01*
G01*
X112037500Y-90575000D01*
G75*
G02*
X112287500Y-90825000I0J-250000D01*
G01*
X112287500Y-91775000D01*
G75*
G02*
X112037500Y-92025000I-250000J0D01*
G01*
X111362500Y-92025000D01*
G75*
G02*
X111112500Y-91775000I0J250000D01*
G01*
G37*
G36*
G01*
X109037500Y-91775000D02*
X109037500Y-90825000D01*
G75*
G02*
X109287500Y-90575000I250000J0D01*
G01*
X109962500Y-90575000D01*
G75*
G02*
X110212500Y-90825000I0J-250000D01*
G01*
X110212500Y-91775000D01*
G75*
G02*
X109962500Y-92025000I-250000J0D01*
G01*
X109287500Y-92025000D01*
G75*
G02*
X109037500Y-91775000I0J250000D01*
G01*
G37*
G36*
G01*
X156750001Y-46100000D02*
X155849999Y-46100000D01*
G75*
G02*
X155600000Y-45850001I0J249999D01*
G01*
X155600000Y-45149999D01*
G75*
G02*
X155849999Y-44900000I249999J0D01*
G01*
X156750001Y-44900000D01*
G75*
G02*
X157000000Y-45149999I0J-249999D01*
G01*
X157000000Y-45850001D01*
G75*
G02*
X156750001Y-46100000I-249999J0D01*
G01*
G37*
G36*
G01*
X156750001Y-48100000D02*
X155849999Y-48100000D01*
G75*
G02*
X155600000Y-47850001I0J249999D01*
G01*
X155600000Y-47149999D01*
G75*
G02*
X155849999Y-46900000I249999J0D01*
G01*
X156750001Y-46900000D01*
G75*
G02*
X157000000Y-47149999I0J-249999D01*
G01*
X157000000Y-47850001D01*
G75*
G02*
X156750001Y-48100000I-249999J0D01*
G01*
G37*
G36*
G01*
X127000000Y-51049999D02*
X127000000Y-51950001D01*
G75*
G02*
X126750001Y-52200000I-249999J0D01*
G01*
X126049999Y-52200000D01*
G75*
G02*
X125800000Y-51950001I0J249999D01*
G01*
X125800000Y-51049999D01*
G75*
G02*
X126049999Y-50800000I249999J0D01*
G01*
X126750001Y-50800000D01*
G75*
G02*
X127000000Y-51049999I0J-249999D01*
G01*
G37*
G36*
G01*
X129000000Y-51049999D02*
X129000000Y-51950001D01*
G75*
G02*
X128750001Y-52200000I-249999J0D01*
G01*
X128049999Y-52200000D01*
G75*
G02*
X127800000Y-51950001I0J249999D01*
G01*
X127800000Y-51049999D01*
G75*
G02*
X128049999Y-50800000I249999J0D01*
G01*
X128750001Y-50800000D01*
G75*
G02*
X129000000Y-51049999I0J-249999D01*
G01*
G37*
G36*
G01*
X124000000Y-51950001D02*
X124000000Y-51049999D01*
G75*
G02*
X124249999Y-50800000I249999J0D01*
G01*
X124950001Y-50800000D01*
G75*
G02*
X125200000Y-51049999I0J-249999D01*
G01*
X125200000Y-51950001D01*
G75*
G02*
X124950001Y-52200000I-249999J0D01*
G01*
X124249999Y-52200000D01*
G75*
G02*
X124000000Y-51950001I0J249999D01*
G01*
G37*
G36*
G01*
X122000000Y-51950001D02*
X122000000Y-51049999D01*
G75*
G02*
X122249999Y-50800000I249999J0D01*
G01*
X122950001Y-50800000D01*
G75*
G02*
X123200000Y-51049999I0J-249999D01*
G01*
X123200000Y-51950001D01*
G75*
G02*
X122950001Y-52200000I-249999J0D01*
G01*
X122249999Y-52200000D01*
G75*
G02*
X122000000Y-51950001I0J249999D01*
G01*
G37*
M02*
