G04 #@! TF.GenerationSoftware,KiCad,Pcbnew,(5.1.10)-1*
G04 #@! TF.CreationDate,2021-06-06T14:26:22+02:00*
G04 #@! TF.ProjectId,ww2020,77773230-3230-42e6-9b69-6361645f7063,rev?*
G04 #@! TF.SameCoordinates,Original*
G04 #@! TF.FileFunction,Legend,Bot*
G04 #@! TF.FilePolarity,Positive*
%FSLAX46Y46*%
G04 Gerber Fmt 4.6, Leading zero omitted, Abs format (unit mm)*
G04 Created by KiCad (PCBNEW (5.1.10)-1) date 2021-06-06 14:26:22*
%MOMM*%
%LPD*%
G01*
G04 APERTURE LIST*
%ADD10C,0.155448*%
%ADD11C,0.120000*%
%ADD12C,0.150000*%
%ADD13R,3.500000X1.700000*%
%ADD14R,1.700000X3.500000*%
%ADD15C,1.600000*%
%ADD16R,1.600000X1.600000*%
%ADD17O,1.700000X1.700000*%
%ADD18R,1.700000X1.700000*%
%ADD19O,2.527000X1.327000*%
%ADD20C,3.843000*%
%ADD21C,0.770000*%
%ADD22O,1.750000X1.200000*%
%ADD23C,0.800000*%
%ADD24C,5.400000*%
G04 APERTURE END LIST*
D10*
X152724861Y-44443555D02*
X152518033Y-45312235D01*
X152352570Y-44691749D01*
X152187107Y-45312235D01*
X151980278Y-44443555D01*
X151649353Y-45312235D02*
X151649353Y-44733115D01*
X151649353Y-44443555D02*
X151690718Y-44484921D01*
X151649353Y-44526286D01*
X151607987Y-44484921D01*
X151649353Y-44443555D01*
X151649353Y-44526286D01*
X151111598Y-45312235D02*
X151194330Y-45270869D01*
X151235695Y-45188138D01*
X151235695Y-44443555D01*
X150408381Y-45312235D02*
X150408381Y-44443555D01*
X150408381Y-45270869D02*
X150491113Y-45312235D01*
X150656575Y-45312235D01*
X150739307Y-45270869D01*
X150780673Y-45229503D01*
X150822038Y-45146772D01*
X150822038Y-44898578D01*
X150780673Y-44815846D01*
X150739307Y-44774481D01*
X150656575Y-44733115D01*
X150491113Y-44733115D01*
X150408381Y-44774481D01*
X150077455Y-44443555D02*
X149870627Y-45312235D01*
X149705164Y-44691749D01*
X149539701Y-45312235D01*
X149332873Y-44443555D01*
X149001947Y-45312235D02*
X149001947Y-44733115D01*
X149001947Y-44443555D02*
X149043313Y-44484921D01*
X149001947Y-44526286D01*
X148960581Y-44484921D01*
X149001947Y-44443555D01*
X149001947Y-44526286D01*
X148464193Y-45312235D02*
X148546924Y-45270869D01*
X148588290Y-45188138D01*
X148588290Y-44443555D01*
X148009170Y-45312235D02*
X148091901Y-45270869D01*
X148133267Y-45188138D01*
X148133267Y-44443555D01*
X147760975Y-44733115D02*
X147554147Y-45312235D01*
X147347318Y-44733115D02*
X147554147Y-45312235D01*
X147636878Y-45519063D01*
X147678244Y-45560429D01*
X147760975Y-45601795D01*
X145982250Y-44443555D02*
X146147713Y-44443555D01*
X146230444Y-44484921D01*
X146271810Y-44526286D01*
X146354541Y-44650383D01*
X146395907Y-44815846D01*
X146395907Y-45146772D01*
X146354541Y-45229503D01*
X146313175Y-45270869D01*
X146230444Y-45312235D01*
X146064981Y-45312235D01*
X145982250Y-45270869D01*
X145940884Y-45229503D01*
X145899518Y-45146772D01*
X145899518Y-44939943D01*
X145940884Y-44857212D01*
X145982250Y-44815846D01*
X146064981Y-44774481D01*
X146230444Y-44774481D01*
X146313175Y-44815846D01*
X146354541Y-44857212D01*
X146395907Y-44939943D01*
X145527227Y-44981309D02*
X144865375Y-44981309D01*
X144079427Y-44443555D02*
X144244890Y-44443555D01*
X144327621Y-44484921D01*
X144368987Y-44526286D01*
X144451718Y-44650383D01*
X144493084Y-44815846D01*
X144493084Y-45146772D01*
X144451718Y-45229503D01*
X144410353Y-45270869D01*
X144327621Y-45312235D01*
X144162158Y-45312235D01*
X144079427Y-45270869D01*
X144038061Y-45229503D01*
X143996695Y-45146772D01*
X143996695Y-44939943D01*
X144038061Y-44857212D01*
X144079427Y-44815846D01*
X144162158Y-44774481D01*
X144327621Y-44774481D01*
X144410353Y-44815846D01*
X144451718Y-44857212D01*
X144493084Y-44939943D01*
X143624404Y-44981309D02*
X142962553Y-44981309D01*
X142590261Y-44526286D02*
X142548895Y-44484921D01*
X142466164Y-44443555D01*
X142259335Y-44443555D01*
X142176604Y-44484921D01*
X142135238Y-44526286D01*
X142093873Y-44609018D01*
X142093873Y-44691749D01*
X142135238Y-44815846D01*
X142631627Y-45312235D01*
X142093873Y-45312235D01*
X141556118Y-44443555D02*
X141473387Y-44443555D01*
X141390655Y-44484921D01*
X141349290Y-44526286D01*
X141307924Y-44609018D01*
X141266558Y-44774481D01*
X141266558Y-44981309D01*
X141307924Y-45146772D01*
X141349290Y-45229503D01*
X141390655Y-45270869D01*
X141473387Y-45312235D01*
X141556118Y-45312235D01*
X141638850Y-45270869D01*
X141680215Y-45229503D01*
X141721581Y-45146772D01*
X141762947Y-44981309D01*
X141762947Y-44774481D01*
X141721581Y-44609018D01*
X141680215Y-44526286D01*
X141638850Y-44484921D01*
X141556118Y-44443555D01*
X140935633Y-44526286D02*
X140894267Y-44484921D01*
X140811535Y-44443555D01*
X140604707Y-44443555D01*
X140521975Y-44484921D01*
X140480610Y-44526286D01*
X140439244Y-44609018D01*
X140439244Y-44691749D01*
X140480610Y-44815846D01*
X140976998Y-45312235D01*
X140439244Y-45312235D01*
X139611930Y-45312235D02*
X140108318Y-45312235D01*
X139860124Y-45312235D02*
X139860124Y-44443555D01*
X139942855Y-44567652D01*
X140025587Y-44650383D01*
X140108318Y-44691749D01*
D11*
X151000000Y-63350000D02*
X151000000Y-63750000D01*
X151000000Y-60750000D02*
X151000000Y-61150000D01*
X151000000Y-72750000D02*
X151000000Y-65950000D01*
X140600000Y-72750000D02*
X141000000Y-72750000D01*
X132900000Y-72750000D02*
X133300000Y-72750000D01*
X107500000Y-72750000D02*
X107900000Y-72750000D01*
X100000000Y-72750000D02*
X100300000Y-72750000D01*
X122800000Y-72750000D02*
X123200000Y-72750000D01*
X138000000Y-72750000D02*
X138400000Y-72750000D01*
X117700000Y-72750000D02*
X118100000Y-72750000D01*
X112600000Y-72750000D02*
X113000000Y-72750000D01*
X125300000Y-72750000D02*
X125700000Y-72750000D01*
X130400000Y-72750000D02*
X130800000Y-72750000D01*
X145600000Y-72750000D02*
X146000000Y-72750000D01*
X148200000Y-72750000D02*
X148600000Y-72750000D01*
X143100000Y-72750000D02*
X143500000Y-72750000D01*
X110100000Y-72750000D02*
X110500000Y-72750000D01*
X102400000Y-72750000D02*
X102800000Y-72750000D01*
X105000000Y-72750000D02*
X105400000Y-72750000D01*
X135500000Y-72750000D02*
X135900000Y-72750000D01*
X127800000Y-72750000D02*
X128200000Y-72750000D01*
X120200000Y-72750000D02*
X120600000Y-72750000D01*
X115100000Y-72750000D02*
X115500000Y-72750000D01*
X148200000Y-51750000D02*
X148600000Y-51750000D01*
X145600000Y-51750000D02*
X146000000Y-51750000D01*
X143100000Y-51750000D02*
X143500000Y-51750000D01*
X140600000Y-51750000D02*
X141000000Y-51750000D01*
X138000000Y-51750000D02*
X138400000Y-51750000D01*
X135500000Y-51750000D02*
X135900000Y-51750000D01*
X132900000Y-51750000D02*
X133300000Y-51750000D01*
X130400000Y-51750000D02*
X130800000Y-51750000D01*
X127800000Y-51750000D02*
X128200000Y-51750000D01*
X125300000Y-51750000D02*
X125700000Y-51750000D01*
X122800000Y-51750000D02*
X123200000Y-51750000D01*
X120200000Y-51750000D02*
X120600000Y-51750000D01*
X117700000Y-51750000D02*
X118100000Y-51750000D01*
X115100000Y-51750000D02*
X115500000Y-51750000D01*
X112600000Y-51750000D02*
X113000000Y-51750000D01*
X110100000Y-51750000D02*
X110500000Y-51750000D01*
X107500000Y-51750000D02*
X107900000Y-51750000D01*
X105000000Y-51750000D02*
X105400000Y-51750000D01*
X102400000Y-51750000D02*
X102800000Y-51750000D01*
X100000000Y-51750000D02*
X100300000Y-51750000D01*
X102667000Y-51750000D02*
X102667000Y-54757000D01*
X151000000Y-58550000D02*
X151000000Y-51750000D01*
X100000000Y-51750000D02*
X100000000Y-72750000D01*
X107040000Y-44900000D02*
X107040000Y-47500000D01*
X107040000Y-44900000D02*
X135100000Y-44900000D01*
X135100000Y-44900000D02*
X135100000Y-50100000D01*
X109640000Y-50100000D02*
X135100000Y-50100000D01*
X109640000Y-47500000D02*
X109640000Y-50100000D01*
X107040000Y-47500000D02*
X109640000Y-47500000D01*
X107040000Y-50100000D02*
X108370000Y-50100000D01*
X107040000Y-48770000D02*
X107040000Y-50100000D01*
D12*
X124952380Y-60535714D02*
X125761904Y-60535714D01*
X125857142Y-60583333D01*
X125904761Y-60630952D01*
X125952380Y-60726190D01*
X125952380Y-60916666D01*
X125904761Y-61011904D01*
X125857142Y-61059523D01*
X125761904Y-61107142D01*
X124952380Y-61107142D01*
X125952380Y-62107142D02*
X125952380Y-61535714D01*
X125952380Y-61821428D02*
X124952380Y-61821428D01*
X125095238Y-61726190D01*
X125190476Y-61630952D01*
X125238095Y-61535714D01*
X124952380Y-62726190D02*
X124952380Y-62821428D01*
X125000000Y-62916666D01*
X125047619Y-62964285D01*
X125142857Y-63011904D01*
X125333333Y-63059523D01*
X125571428Y-63059523D01*
X125761904Y-63011904D01*
X125857142Y-62964285D01*
X125904761Y-62916666D01*
X125952380Y-62821428D01*
X125952380Y-62726190D01*
X125904761Y-62630952D01*
X125857142Y-62583333D01*
X125761904Y-62535714D01*
X125571428Y-62488095D01*
X125333333Y-62488095D01*
X125142857Y-62535714D01*
X125047619Y-62583333D01*
X125000000Y-62630952D01*
X124952380Y-62726190D01*
X124952380Y-63678571D02*
X124952380Y-63773809D01*
X125000000Y-63869047D01*
X125047619Y-63916666D01*
X125142857Y-63964285D01*
X125333333Y-64011904D01*
X125571428Y-64011904D01*
X125761904Y-63964285D01*
X125857142Y-63916666D01*
X125904761Y-63869047D01*
X125952380Y-63773809D01*
X125952380Y-63678571D01*
X125904761Y-63583333D01*
X125857142Y-63535714D01*
X125761904Y-63488095D01*
X125571428Y-63440476D01*
X125333333Y-63440476D01*
X125142857Y-63488095D01*
X125047619Y-63535714D01*
X125000000Y-63583333D01*
X124952380Y-63678571D01*
X105052380Y-46261904D02*
X105861904Y-46261904D01*
X105957142Y-46309523D01*
X106004761Y-46357142D01*
X106052380Y-46452380D01*
X106052380Y-46642857D01*
X106004761Y-46738095D01*
X105957142Y-46785714D01*
X105861904Y-46833333D01*
X105052380Y-46833333D01*
X106052380Y-47357142D02*
X106052380Y-47547619D01*
X106004761Y-47642857D01*
X105957142Y-47690476D01*
X105814285Y-47785714D01*
X105623809Y-47833333D01*
X105242857Y-47833333D01*
X105147619Y-47785714D01*
X105100000Y-47738095D01*
X105052380Y-47642857D01*
X105052380Y-47452380D01*
X105100000Y-47357142D01*
X105147619Y-47309523D01*
X105242857Y-47261904D01*
X105480952Y-47261904D01*
X105576190Y-47309523D01*
X105623809Y-47357142D01*
X105671428Y-47452380D01*
X105671428Y-47642857D01*
X105623809Y-47738095D01*
X105576190Y-47785714D01*
X105480952Y-47833333D01*
X105052380Y-48452380D02*
X105052380Y-48547619D01*
X105100000Y-48642857D01*
X105147619Y-48690476D01*
X105242857Y-48738095D01*
X105433333Y-48785714D01*
X105671428Y-48785714D01*
X105861904Y-48738095D01*
X105957142Y-48690476D01*
X106004761Y-48642857D01*
X106052380Y-48547619D01*
X106052380Y-48452380D01*
X106004761Y-48357142D01*
X105957142Y-48309523D01*
X105861904Y-48261904D01*
X105671428Y-48214285D01*
X105433333Y-48214285D01*
X105242857Y-48261904D01*
X105147619Y-48309523D01*
X105100000Y-48357142D01*
X105052380Y-48452380D01*
%LPC*%
D13*
X150300000Y-64790000D03*
X150300000Y-62250000D03*
X150300000Y-59710000D03*
D14*
X149630000Y-72040000D03*
X147090000Y-72040000D03*
X144550000Y-72040000D03*
X142010000Y-72040000D03*
X139470000Y-72040000D03*
X136930000Y-72040000D03*
X134390000Y-72040000D03*
X131850000Y-72040000D03*
X129310000Y-72040000D03*
X126770000Y-72040000D03*
X124230000Y-72040000D03*
X121690000Y-72040000D03*
X119150000Y-72040000D03*
X116610000Y-72040000D03*
X114070000Y-72040000D03*
X111530000Y-72040000D03*
X108990000Y-72040000D03*
X106450000Y-72040000D03*
X103910000Y-72040000D03*
X101370000Y-72040000D03*
X149630000Y-52460000D03*
X147090000Y-52460000D03*
X144550000Y-52460000D03*
X142010000Y-52460000D03*
X139470000Y-52460000D03*
X136930000Y-52460000D03*
X134390000Y-52460000D03*
X131850000Y-52460000D03*
X129310000Y-52460000D03*
X126770000Y-52460000D03*
X124230000Y-52460000D03*
X121690000Y-52460000D03*
X119150000Y-52460000D03*
X116610000Y-52460000D03*
X114070000Y-52460000D03*
X111530000Y-52460000D03*
X108990000Y-52460000D03*
X106450000Y-52460000D03*
X103910000Y-52460000D03*
X101370000Y-52460000D03*
D15*
X154000000Y-59600000D03*
D16*
X154000000Y-62100000D03*
D17*
X159250000Y-63690000D03*
X159250000Y-71310000D03*
X159250000Y-66230000D03*
X159250000Y-68770000D03*
X161790000Y-63690000D03*
X164330000Y-63690000D03*
X161790000Y-66230000D03*
X164330000Y-66230000D03*
X161790000Y-68770000D03*
X164330000Y-68770000D03*
X161790000Y-71310000D03*
D18*
X164330000Y-71310000D03*
D17*
X161790000Y-78700000D03*
X159250000Y-78700000D03*
X164330000Y-78700000D03*
X159250000Y-83780000D03*
X159250000Y-91400000D03*
X159250000Y-81240000D03*
X159250000Y-86320000D03*
X159250000Y-88860000D03*
X161790000Y-81240000D03*
X164330000Y-81240000D03*
X161790000Y-83780000D03*
X164330000Y-83780000D03*
X161790000Y-86320000D03*
X164330000Y-86320000D03*
X161790000Y-88860000D03*
X164330000Y-88860000D03*
X161790000Y-91400000D03*
D18*
X164330000Y-91400000D03*
D19*
X110350000Y-75014001D03*
X110350000Y-88514001D03*
D20*
X116350000Y-78164001D03*
X116350000Y-85364001D03*
D17*
X159250000Y-52400000D03*
X159250000Y-60020000D03*
X159250000Y-54940000D03*
X159250000Y-57480000D03*
X161790000Y-52400000D03*
X164330000Y-52400000D03*
X161790000Y-54940000D03*
X164330000Y-54940000D03*
X161790000Y-57480000D03*
X164330000Y-57480000D03*
X161790000Y-60020000D03*
D18*
X164330000Y-60020000D03*
D21*
X153370000Y-76550000D03*
X153370000Y-75250000D03*
X155970000Y-76550000D03*
X154670000Y-76550000D03*
X154670000Y-75250000D03*
X155970000Y-75250000D03*
X147870000Y-76550000D03*
X147870000Y-75250000D03*
X150470000Y-76550000D03*
X149170000Y-76550000D03*
X149170000Y-75250000D03*
X150470000Y-75250000D03*
X140400000Y-76550000D03*
X140400000Y-75250000D03*
X143000000Y-76550000D03*
X141700000Y-76550000D03*
X141700000Y-75250000D03*
X143000000Y-75250000D03*
X134900000Y-76550000D03*
X134900000Y-75250000D03*
X137500000Y-76550000D03*
X136200000Y-76550000D03*
X136200000Y-75250000D03*
X137500000Y-75250000D03*
X127400000Y-76550000D03*
X127400000Y-75250000D03*
X130000000Y-76550000D03*
X128700000Y-76550000D03*
X128700000Y-75250000D03*
X130000000Y-75250000D03*
D22*
X154100000Y-88050000D03*
X154100000Y-90050000D03*
X154100000Y-92050000D03*
X154100000Y-94050000D03*
X154100000Y-96050000D03*
G36*
G01*
X154725001Y-98650000D02*
X153474999Y-98650000D01*
G75*
G02*
X153225000Y-98400001I0J249999D01*
G01*
X153225000Y-97699999D01*
G75*
G02*
X153474999Y-97450000I249999J0D01*
G01*
X154725001Y-97450000D01*
G75*
G02*
X154975000Y-97699999I0J-249999D01*
G01*
X154975000Y-98400001D01*
G75*
G02*
X154725001Y-98650000I-249999J0D01*
G01*
G37*
X147420000Y-88050000D03*
X147420000Y-90050000D03*
X147420000Y-92050000D03*
X147420000Y-94050000D03*
X147420000Y-96050000D03*
G36*
G01*
X148045001Y-98650000D02*
X146794999Y-98650000D01*
G75*
G02*
X146545000Y-98400001I0J249999D01*
G01*
X146545000Y-97699999D01*
G75*
G02*
X146794999Y-97450000I249999J0D01*
G01*
X148045001Y-97450000D01*
G75*
G02*
X148295000Y-97699999I0J-249999D01*
G01*
X148295000Y-98400001D01*
G75*
G02*
X148045001Y-98650000I-249999J0D01*
G01*
G37*
X140740000Y-88050000D03*
X140740000Y-90050000D03*
X140740000Y-92050000D03*
X140740000Y-94050000D03*
X140740000Y-96050000D03*
G36*
G01*
X141365001Y-98650000D02*
X140114999Y-98650000D01*
G75*
G02*
X139865000Y-98400001I0J249999D01*
G01*
X139865000Y-97699999D01*
G75*
G02*
X140114999Y-97450000I249999J0D01*
G01*
X141365001Y-97450000D01*
G75*
G02*
X141615000Y-97699999I0J-249999D01*
G01*
X141615000Y-98400001D01*
G75*
G02*
X141365001Y-98650000I-249999J0D01*
G01*
G37*
X134060000Y-88050000D03*
X134060000Y-90050000D03*
X134060000Y-92050000D03*
X134060000Y-94050000D03*
X134060000Y-96050000D03*
G36*
G01*
X134685001Y-98650000D02*
X133434999Y-98650000D01*
G75*
G02*
X133185000Y-98400001I0J249999D01*
G01*
X133185000Y-97699999D01*
G75*
G02*
X133434999Y-97450000I249999J0D01*
G01*
X134685001Y-97450000D01*
G75*
G02*
X134935000Y-97699999I0J-249999D01*
G01*
X134935000Y-98400001D01*
G75*
G02*
X134685001Y-98650000I-249999J0D01*
G01*
G37*
X127380000Y-88050000D03*
X127380000Y-90050000D03*
X127380000Y-92050000D03*
X127380000Y-94050000D03*
X127380000Y-96050000D03*
G36*
G01*
X128005001Y-98650000D02*
X126754999Y-98650000D01*
G75*
G02*
X126505000Y-98400001I0J249999D01*
G01*
X126505000Y-97699999D01*
G75*
G02*
X126754999Y-97450000I249999J0D01*
G01*
X128005001Y-97450000D01*
G75*
G02*
X128255000Y-97699999I0J-249999D01*
G01*
X128255000Y-98400001D01*
G75*
G02*
X128005001Y-98650000I-249999J0D01*
G01*
G37*
D15*
X154700000Y-81600000D03*
D16*
X154700000Y-84100000D03*
D15*
X147200000Y-81600000D03*
D16*
X147200000Y-84100000D03*
D15*
X141750000Y-81600000D03*
D16*
X141750000Y-84100000D03*
D15*
X134250000Y-81600000D03*
D16*
X134250000Y-84100000D03*
D15*
X128750000Y-81600000D03*
D16*
X128750000Y-84100000D03*
D15*
X154000000Y-52500000D03*
D16*
X154000000Y-55000000D03*
D23*
X162931891Y-95068109D03*
X161500000Y-94475000D03*
X160068109Y-95068109D03*
X159475000Y-96500000D03*
X160068109Y-97931891D03*
X161500000Y-98525000D03*
X162931891Y-97931891D03*
X163525000Y-96500000D03*
D24*
X161500000Y-96500000D03*
D23*
X162931891Y-46068109D03*
X161500000Y-45475000D03*
X160068109Y-46068109D03*
X159475000Y-47500000D03*
X160068109Y-48931891D03*
X161500000Y-49525000D03*
X162931891Y-48931891D03*
X163525000Y-47500000D03*
D24*
X161500000Y-47500000D03*
D23*
X104931891Y-95068109D03*
X103500000Y-94475000D03*
X102068109Y-95068109D03*
X101475000Y-96500000D03*
X102068109Y-97931891D03*
X103500000Y-98525000D03*
X104931891Y-97931891D03*
X105525000Y-96500000D03*
D24*
X103500000Y-96500000D03*
D23*
X104931891Y-46068109D03*
X103500000Y-45475000D03*
X102068109Y-46068109D03*
X101475000Y-47500000D03*
X102068109Y-48931891D03*
X103500000Y-49525000D03*
X104931891Y-48931891D03*
X105525000Y-47500000D03*
D24*
X103500000Y-47500000D03*
D17*
X102230000Y-91714001D03*
D18*
X104770000Y-91714001D03*
D17*
X133770000Y-46230000D03*
X133770000Y-48770000D03*
X131230000Y-46230000D03*
X131230000Y-48770000D03*
X128690000Y-46230000D03*
X128690000Y-48770000D03*
X126150000Y-46230000D03*
X126150000Y-48770000D03*
X123610000Y-46230000D03*
X123610000Y-48770000D03*
X121070000Y-46230000D03*
X121070000Y-48770000D03*
X118530000Y-46230000D03*
X118530000Y-48770000D03*
X115990000Y-46230000D03*
X115990000Y-48770000D03*
X113450000Y-46230000D03*
X113450000Y-48770000D03*
X110910000Y-46230000D03*
X110910000Y-48770000D03*
X108370000Y-46230000D03*
D18*
X108370000Y-48770000D03*
D21*
X121900000Y-76550000D03*
X121900000Y-75250000D03*
X124500000Y-76550000D03*
X123200000Y-76550000D03*
X123200000Y-75250000D03*
X124500000Y-75250000D03*
D22*
X120700000Y-88050000D03*
X120700000Y-90050000D03*
X120700000Y-92050000D03*
X120700000Y-94050000D03*
X120700000Y-96050000D03*
G36*
G01*
X121325001Y-98650000D02*
X120074999Y-98650000D01*
G75*
G02*
X119825000Y-98400001I0J249999D01*
G01*
X119825000Y-97699999D01*
G75*
G02*
X120074999Y-97450000I249999J0D01*
G01*
X121325001Y-97450000D01*
G75*
G02*
X121575000Y-97699999I0J-249999D01*
G01*
X121575000Y-98400001D01*
G75*
G02*
X121325001Y-98650000I-249999J0D01*
G01*
G37*
D15*
X121200000Y-81600000D03*
D16*
X121200000Y-84100000D03*
D18*
X164330000Y-74990000D03*
D17*
X161790000Y-74990000D03*
X159250000Y-74990000D03*
M02*
