%FSLAX45Y45*%
G04 Gerber Fmt 4.5, Leading zero omitted, Abs format (unit mm)*
G04 Created by KiCad (PCBNEW (5.1.10)-1) date 2021-06-06 14:27:14*
%MOMM*%
%LPD*%
G01*
G04 APERTURE LIST*
%TA.AperFunction,Profile*%
%ADD10C,0.050000*%
%TD*%
%ADD11C,0.200000*%
%ADD12C,0.300000*%
G04 APERTURE END LIST*
D10*
X16260000Y-4400000D02*
X10300000Y-4400000D01*
X16260000Y-10000000D02*
X10300000Y-10000000D01*
X16260000Y-10000000D02*
G75*
G03*
X16560000Y-9700000I0J300000D01*
G01*
X16560000Y-4700000D02*
G75*
G03*
X16260000Y-4400000I-300000J0D01*
G01*
X16560000Y-9700000D02*
X16560000Y-4700000D01*
X10000000Y-4700000D02*
X10000000Y-9700000D01*
X10000000Y-9700000D02*
G75*
G03*
X10300000Y-10000000I300000J0D01*
G01*
X10300000Y-4400000D02*
G75*
G03*
X10000000Y-4700000I0J-300000D01*
G01*
D11*
X12173500Y-7508500D02*
X12206500Y-7541500D01*
X12206500Y-7508500D02*
X12173500Y-7541500D01*
X12173500Y-7638500D02*
X12206500Y-7671500D01*
X12206500Y-7638500D02*
X12173500Y-7671500D01*
X12303500Y-7508500D02*
X12336500Y-7541500D01*
X12336500Y-7508500D02*
X12303500Y-7541500D01*
X12303500Y-7638500D02*
X12336500Y-7671500D01*
X12336500Y-7638500D02*
X12303500Y-7671500D01*
X12433500Y-7508500D02*
X12466500Y-7541500D01*
X12466500Y-7508500D02*
X12433500Y-7541500D01*
X12433500Y-7638500D02*
X12466500Y-7671500D01*
X12466500Y-7638500D02*
X12433500Y-7671500D01*
X12723500Y-7508500D02*
X12756500Y-7541500D01*
X12756500Y-7508500D02*
X12723500Y-7541500D01*
X12723500Y-7638500D02*
X12756500Y-7671500D01*
X12756500Y-7638500D02*
X12723500Y-7671500D01*
X12853500Y-7508500D02*
X12886500Y-7541500D01*
X12886500Y-7508500D02*
X12853500Y-7541500D01*
X12853500Y-7638500D02*
X12886500Y-7671500D01*
X12886500Y-7638500D02*
X12853500Y-7671500D01*
X12983500Y-7508500D02*
X13016500Y-7541500D01*
X13016500Y-7508500D02*
X12983500Y-7541500D01*
X12983500Y-7638500D02*
X13016500Y-7671500D01*
X13016500Y-7638500D02*
X12983500Y-7671500D01*
X13473500Y-7508500D02*
X13506500Y-7541500D01*
X13506500Y-7508500D02*
X13473500Y-7541500D01*
X13473500Y-7638500D02*
X13506500Y-7671500D01*
X13506500Y-7638500D02*
X13473500Y-7671500D01*
X13603500Y-7508500D02*
X13636500Y-7541500D01*
X13636500Y-7508500D02*
X13603500Y-7541500D01*
X13603500Y-7638500D02*
X13636500Y-7671500D01*
X13636500Y-7638500D02*
X13603500Y-7671500D01*
X13733500Y-7508500D02*
X13766500Y-7541500D01*
X13766500Y-7508500D02*
X13733500Y-7541500D01*
X13733500Y-7638500D02*
X13766500Y-7671500D01*
X13766500Y-7638500D02*
X13733500Y-7671500D01*
X14023500Y-7508500D02*
X14056500Y-7541500D01*
X14056500Y-7508500D02*
X14023500Y-7541500D01*
X14023500Y-7638500D02*
X14056500Y-7671500D01*
X14056500Y-7638500D02*
X14023500Y-7671500D01*
X14153500Y-7508500D02*
X14186500Y-7541500D01*
X14186500Y-7508500D02*
X14153500Y-7541500D01*
X14153500Y-7638500D02*
X14186500Y-7671500D01*
X14186500Y-7638500D02*
X14153500Y-7671500D01*
X14283500Y-7508500D02*
X14316500Y-7541500D01*
X14316500Y-7508500D02*
X14283500Y-7541500D01*
X14283500Y-7638500D02*
X14316500Y-7671500D01*
X14316500Y-7638500D02*
X14283500Y-7671500D01*
X14770500Y-7508500D02*
X14803500Y-7541500D01*
X14803500Y-7508500D02*
X14770500Y-7541500D01*
X14770500Y-7638500D02*
X14803500Y-7671500D01*
X14803500Y-7638500D02*
X14770500Y-7671500D01*
X14900500Y-7508500D02*
X14933500Y-7541500D01*
X14933500Y-7508500D02*
X14900500Y-7541500D01*
X14900500Y-7638500D02*
X14933500Y-7671500D01*
X14933500Y-7638500D02*
X14900500Y-7671500D01*
X15030500Y-7508500D02*
X15063500Y-7541500D01*
X15063500Y-7508500D02*
X15030500Y-7541500D01*
X15030500Y-7638500D02*
X15063500Y-7671500D01*
X15063500Y-7638500D02*
X15030500Y-7671500D01*
X15320500Y-7508500D02*
X15353500Y-7541500D01*
X15353500Y-7508500D02*
X15320500Y-7541500D01*
X15320500Y-7638500D02*
X15353500Y-7671500D01*
X15353500Y-7638500D02*
X15320500Y-7671500D01*
X15450500Y-7508500D02*
X15483500Y-7541500D01*
X15483500Y-7508500D02*
X15450500Y-7541500D01*
X15450500Y-7638500D02*
X15483500Y-7671500D01*
X15483500Y-7638500D02*
X15450500Y-7671500D01*
X15580500Y-7508500D02*
X15613500Y-7541500D01*
X15613500Y-7508500D02*
X15580500Y-7541500D01*
X15580500Y-7638500D02*
X15613500Y-7671500D01*
X15613500Y-7638500D02*
X15580500Y-7671500D01*
X10085000Y-5525000D02*
G75*
G03*
X10085000Y-5525000I-20000J0D01*
G01*
X10085000Y-5660000D02*
G75*
G03*
X10085000Y-5660000I-20000J0D01*
G01*
X10085000Y-5790000D02*
G75*
G03*
X10085000Y-5790000I-20000J0D01*
G01*
X10185000Y-5525000D02*
G75*
G03*
X10185000Y-5525000I-20000J0D01*
G01*
X10185000Y-5660000D02*
G75*
G03*
X10185000Y-5660000I-20000J0D01*
G01*
X10185000Y-5790000D02*
G75*
G03*
X10185000Y-5790000I-20000J0D01*
G01*
X10256200Y-8280400D02*
G75*
G03*
X10256200Y-8280400I-20000J0D01*
G01*
X10256200Y-8432800D02*
G75*
G03*
X10256200Y-8432800I-20000J0D01*
G01*
X10256200Y-8585200D02*
G75*
G03*
X10256200Y-8585200I-20000J0D01*
G01*
X10256200Y-8737600D02*
G75*
G03*
X10256200Y-8737600I-20000J0D01*
G01*
X10256200Y-8890000D02*
G75*
G03*
X10256200Y-8890000I-20000J0D01*
G01*
X10600000Y-7900000D02*
G75*
G03*
X10600000Y-7900000I-20000J0D01*
G01*
X10720000Y-8120000D02*
G75*
G03*
X10720000Y-8120000I-20000J0D01*
G01*
X10720000Y-8230000D02*
G75*
G03*
X10720000Y-8230000I-20000J0D01*
G01*
X10728640Y-8351520D02*
G75*
G03*
X10728640Y-8351520I-20000J0D01*
G01*
X10760599Y-8534401D02*
G75*
G03*
X10760599Y-8534401I-20000J0D01*
G01*
X10776019Y-7575617D02*
G75*
G03*
X10776019Y-7575617I-20000J0D01*
G01*
X10795000Y-8725000D02*
G75*
G03*
X10795000Y-8725000I-20000J0D01*
G01*
X10870000Y-8650000D02*
G75*
G03*
X10870000Y-8650000I-20000J0D01*
G01*
X10870880Y-8534401D02*
G75*
G03*
X10870880Y-8534401I-20000J0D01*
G01*
X10885000Y-5560000D02*
G75*
G03*
X10885000Y-5560000I-20000J0D01*
G01*
X10885000Y-5685000D02*
G75*
G03*
X10885000Y-5685000I-20000J0D01*
G01*
X10885000Y-5805000D02*
G75*
G03*
X10885000Y-5805000I-20000J0D01*
G01*
X10895000Y-6135000D02*
G75*
G03*
X10895000Y-6135000I-20000J0D01*
G01*
X10895000Y-6250000D02*
G75*
G03*
X10895000Y-6250000I-20000J0D01*
G01*
X11005000Y-5560000D02*
G75*
G03*
X11005000Y-5560000I-20000J0D01*
G01*
X11005000Y-5685000D02*
G75*
G03*
X11005000Y-5685000I-20000J0D01*
G01*
X11005000Y-5805000D02*
G75*
G03*
X11005000Y-5805000I-20000J0D01*
G01*
X11007984Y-6898584D02*
G75*
G03*
X11007984Y-6898584I-20000J0D01*
G01*
X11010000Y-6135000D02*
G75*
G03*
X11010000Y-6135000I-20000J0D01*
G01*
X11010000Y-6250000D02*
G75*
G03*
X11010000Y-6250000I-20000J0D01*
G01*
X11050000Y-6800000D02*
G75*
G03*
X11050000Y-6800000I-20000J0D01*
G01*
X11060000Y-6440000D02*
G75*
G03*
X11060000Y-6440000I-20000J0D01*
G01*
X11170000Y-8720000D02*
G75*
G03*
X11170000Y-8720000I-20000J0D01*
G01*
X11170000Y-9520000D02*
G75*
G03*
X11170000Y-9520000I-20000J0D01*
G01*
X11230000Y-7460000D02*
G75*
G03*
X11230000Y-7460000I-20000J0D01*
G01*
X11480000Y-5660000D02*
G75*
G03*
X11480000Y-5660000I-20000J0D01*
G01*
X11639162Y-6399737D02*
G75*
G03*
X11639162Y-6399737I-20000J0D01*
G01*
X11640000Y-6290000D02*
G75*
G03*
X11640000Y-6290000I-20000J0D01*
G01*
X11640000Y-6660000D02*
G75*
G03*
X11640000Y-6660000I-20000J0D01*
G01*
X11640001Y-6525458D02*
G75*
G03*
X11640001Y-6525458I-20000J0D01*
G01*
X11645286Y-5474635D02*
G75*
G03*
X11645286Y-5474635I-20000J0D01*
G01*
X11700000Y-9520000D02*
G75*
G03*
X11700000Y-9520000I-20000J0D01*
G01*
X11738955Y-5492676D02*
G75*
G03*
X11738955Y-5492676I-20000J0D01*
G01*
X11764960Y-6725920D02*
G75*
G03*
X11764960Y-6725920I-20000J0D01*
G01*
X11865291Y-6846572D02*
G75*
G03*
X11865291Y-6846572I-20000J0D01*
G01*
X11900000Y-8280000D02*
G75*
G03*
X11900000Y-8280000I-20000J0D01*
G01*
X11900000Y-8370000D02*
G75*
G03*
X11900000Y-8370000I-20000J0D01*
G01*
X11900000Y-8460000D02*
G75*
G03*
X11900000Y-8460000I-20000J0D01*
G01*
X11990000Y-8280000D02*
G75*
G03*
X11990000Y-8280000I-20000J0D01*
G01*
X11990000Y-8370000D02*
G75*
G03*
X11990000Y-8370000I-20000J0D01*
G01*
X11990000Y-8460000D02*
G75*
G03*
X11990000Y-8460000I-20000J0D01*
G01*
X12008800Y-7569200D02*
G75*
G03*
X12008800Y-7569200I-20000J0D01*
G01*
X12080000Y-6960000D02*
G75*
G03*
X12080000Y-6960000I-20000J0D01*
G01*
X12085000Y-7670800D02*
G75*
G03*
X12085000Y-7670800I-20000J0D01*
G01*
X12121926Y-7481474D02*
G75*
G03*
X12121926Y-7481474I-20000J0D01*
G01*
X12212000Y-6096000D02*
G75*
G03*
X12212000Y-6096000I-20000J0D01*
G01*
X12212000Y-6286500D02*
G75*
G03*
X12212000Y-6286500I-20000J0D01*
G01*
X12212000Y-6477000D02*
G75*
G03*
X12212000Y-6477000I-20000J0D01*
G01*
X12212000Y-6667500D02*
G75*
G03*
X12212000Y-6667500I-20000J0D01*
G01*
X12300000Y-9600000D02*
G75*
G03*
X12300000Y-9600000I-20000J0D01*
G01*
X12311699Y-6946352D02*
G75*
G03*
X12311699Y-6946352I-20000J0D01*
G01*
X12316496Y-6852563D02*
G75*
G03*
X12316496Y-6852563I-20000J0D01*
G01*
X12339000Y-9791700D02*
G75*
G03*
X12339000Y-9791700I-20000J0D01*
G01*
X12402500Y-6096000D02*
G75*
G03*
X12402500Y-6096000I-20000J0D01*
G01*
X12402500Y-6286500D02*
G75*
G03*
X12402500Y-6286500I-20000J0D01*
G01*
X12402500Y-6477000D02*
G75*
G03*
X12402500Y-6477000I-20000J0D01*
G01*
X12402500Y-6667500D02*
G75*
G03*
X12402500Y-6667500I-20000J0D01*
G01*
X12403500Y-7997460D02*
G75*
G03*
X12403500Y-7997460I-20000J0D01*
G01*
X12466000Y-9321800D02*
G75*
G03*
X12466000Y-9321800I-20000J0D01*
G01*
X12516800Y-6934200D02*
G75*
G03*
X12516800Y-6934200I-20000J0D01*
G01*
X12540000Y-9600000D02*
G75*
G03*
X12540000Y-9600000I-20000J0D01*
G01*
X12542200Y-8636000D02*
G75*
G03*
X12542200Y-8636000I-20000J0D01*
G01*
X12542200Y-8839200D02*
G75*
G03*
X12542200Y-8839200I-20000J0D01*
G01*
X12542200Y-9017000D02*
G75*
G03*
X12542200Y-9017000I-20000J0D01*
G01*
X12572200Y-7590000D02*
G75*
G03*
X12572200Y-7590000I-20000J0D01*
G01*
X12593000Y-6096000D02*
G75*
G03*
X12593000Y-6096000I-20000J0D01*
G01*
X12593000Y-6286500D02*
G75*
G03*
X12593000Y-6286500I-20000J0D01*
G01*
X12593000Y-6477000D02*
G75*
G03*
X12593000Y-6477000I-20000J0D01*
G01*
X12593000Y-6667500D02*
G75*
G03*
X12593000Y-6667500I-20000J0D01*
G01*
X12673238Y-7488962D02*
G75*
G03*
X12673238Y-7488962I-20000J0D01*
G01*
X12681338Y-7682938D02*
G75*
G03*
X12681338Y-7682938I-20000J0D01*
G01*
X12745400Y-8636000D02*
G75*
G03*
X12745400Y-8636000I-20000J0D01*
G01*
X12783500Y-6096000D02*
G75*
G03*
X12783500Y-6096000I-20000J0D01*
G01*
X12783500Y-6286500D02*
G75*
G03*
X12783500Y-6286500I-20000J0D01*
G01*
X12783500Y-6477000D02*
G75*
G03*
X12783500Y-6477000I-20000J0D01*
G01*
X12862241Y-6851362D02*
G75*
G03*
X12862241Y-6851362I-20000J0D01*
G01*
X12864459Y-6944037D02*
G75*
G03*
X12864459Y-6944037I-20000J0D01*
G01*
X12974000Y-6286500D02*
G75*
G03*
X12974000Y-6286500I-20000J0D01*
G01*
X12974000Y-6477000D02*
G75*
G03*
X12974000Y-6477000I-20000J0D01*
G01*
X12999360Y-5500000D02*
G75*
G03*
X12999360Y-5500000I-20000J0D01*
G01*
X13012100Y-9791700D02*
G75*
G03*
X13012100Y-9791700I-20000J0D01*
G01*
X13024800Y-9017000D02*
G75*
G03*
X13024800Y-9017000I-20000J0D01*
G01*
X13075600Y-6934200D02*
G75*
G03*
X13075600Y-6934200I-20000J0D01*
G01*
X13101000Y-9321800D02*
G75*
G03*
X13101000Y-9321800I-20000J0D01*
G01*
X13140000Y-9600000D02*
G75*
G03*
X13140000Y-9600000I-20000J0D01*
G01*
X13164500Y-6286500D02*
G75*
G03*
X13164500Y-6286500I-20000J0D01*
G01*
X13164500Y-6477000D02*
G75*
G03*
X13164500Y-6477000I-20000J0D01*
G01*
X13205000Y-7490600D02*
G75*
G03*
X13205000Y-7490600I-20000J0D01*
G01*
X13207200Y-7590000D02*
G75*
G03*
X13207200Y-7590000I-20000J0D01*
G01*
X13228000Y-8839200D02*
G75*
G03*
X13228000Y-8839200I-20000J0D01*
G01*
X13228000Y-9017000D02*
G75*
G03*
X13228000Y-9017000I-20000J0D01*
G01*
X13253400Y-6934200D02*
G75*
G03*
X13253400Y-6934200I-20000J0D01*
G01*
X13253400Y-8636000D02*
G75*
G03*
X13253400Y-8636000I-20000J0D01*
G01*
X13268985Y-5710267D02*
G75*
G03*
X13268985Y-5710267I-20000J0D01*
G01*
X13288860Y-5852142D02*
G75*
G03*
X13288860Y-5852142I-20000J0D01*
G01*
X13304200Y-7493000D02*
G75*
G03*
X13304200Y-7493000I-20000J0D01*
G01*
X13308800Y-7590000D02*
G75*
G03*
X13308800Y-7590000I-20000J0D01*
G01*
X13355000Y-6286500D02*
G75*
G03*
X13355000Y-6286500I-20000J0D01*
G01*
X13355000Y-6477000D02*
G75*
G03*
X13355000Y-6477000I-20000J0D01*
G01*
X13363139Y-5704847D02*
G75*
G03*
X13363139Y-5704847I-20000J0D01*
G01*
X13379820Y-5871353D02*
G75*
G03*
X13379820Y-5871353I-20000J0D01*
G01*
X13405800Y-8636000D02*
G75*
G03*
X13405800Y-8636000I-20000J0D01*
G01*
X13428012Y-5790553D02*
G75*
G03*
X13428012Y-5790553I-20000J0D01*
G01*
X13518111Y-5820280D02*
G75*
G03*
X13518111Y-5820280I-20000J0D01*
G01*
X13530275Y-5680975D02*
G75*
G03*
X13530275Y-5680975I-20000J0D01*
G01*
X13594124Y-6949077D02*
G75*
G03*
X13594124Y-6949077I-20000J0D01*
G01*
X13601014Y-4847952D02*
G75*
G03*
X13601014Y-4847952I-20000J0D01*
G01*
X13610976Y-5816314D02*
G75*
G03*
X13610976Y-5816314I-20000J0D01*
G01*
X13622976Y-5681147D02*
G75*
G03*
X13622976Y-5681147I-20000J0D01*
G01*
X13659800Y-9017000D02*
G75*
G03*
X13659800Y-9017000I-20000J0D01*
G01*
X13661325Y-6885207D02*
G75*
G03*
X13661325Y-6885207I-20000J0D01*
G01*
X13672500Y-9804400D02*
G75*
G03*
X13672500Y-9804400I-20000J0D01*
G01*
X13704091Y-4560139D02*
G75*
G03*
X13704091Y-4560139I-20000J0D01*
G01*
X13707317Y-5642675D02*
G75*
G03*
X13707317Y-5642675I-20000J0D01*
G01*
X13708978Y-5813421D02*
G75*
G03*
X13708978Y-5813421I-20000J0D01*
G01*
X13759756Y-4890457D02*
G75*
G03*
X13759756Y-4890457I-20000J0D01*
G01*
X13789043Y-5942234D02*
G75*
G03*
X13789043Y-5942234I-20000J0D01*
G01*
X13805200Y-9405000D02*
G75*
G03*
X13805200Y-9405000I-20000J0D01*
G01*
X13820000Y-4820000D02*
G75*
G03*
X13820000Y-4820000I-20000J0D01*
G01*
X13879176Y-5920563D02*
G75*
G03*
X13879176Y-5920563I-20000J0D01*
G01*
X13888400Y-8610600D02*
G75*
G03*
X13888400Y-8610600I-20000J0D01*
G01*
X13888400Y-8813800D02*
G75*
G03*
X13888400Y-8813800I-20000J0D01*
G01*
X13888400Y-9017000D02*
G75*
G03*
X13888400Y-9017000I-20000J0D01*
G01*
X13893000Y-7590000D02*
G75*
G03*
X13893000Y-7590000I-20000J0D01*
G01*
X13953638Y-7710638D02*
G75*
G03*
X13953638Y-7710638I-20000J0D01*
G01*
X13958238Y-7473962D02*
G75*
G03*
X13958238Y-7473962I-20000J0D01*
G01*
X14066200Y-8610600D02*
G75*
G03*
X14066200Y-8610600I-20000J0D01*
G01*
X14117000Y-5765800D02*
G75*
G03*
X14117000Y-5765800I-20000J0D01*
G01*
X14117000Y-6286500D02*
G75*
G03*
X14117000Y-6286500I-20000J0D01*
G01*
X14117000Y-6477000D02*
G75*
G03*
X14117000Y-6477000I-20000J0D01*
G01*
X14152560Y-4846320D02*
G75*
G03*
X14152560Y-4846320I-20000J0D01*
G01*
X14160126Y-6975427D02*
G75*
G03*
X14160126Y-6975427I-20000J0D01*
G01*
X14162720Y-6882762D02*
G75*
G03*
X14162720Y-6882762I-20000J0D01*
G01*
X14307500Y-6286500D02*
G75*
G03*
X14307500Y-6286500I-20000J0D01*
G01*
X14307500Y-6477000D02*
G75*
G03*
X14307500Y-6477000I-20000J0D01*
G01*
X14320200Y-5765800D02*
G75*
G03*
X14320200Y-5765800I-20000J0D01*
G01*
X14320200Y-9017000D02*
G75*
G03*
X14320200Y-9017000I-20000J0D01*
G01*
X14330000Y-5620000D02*
G75*
G03*
X14330000Y-5620000I-20000J0D01*
G01*
X14332900Y-9804400D02*
G75*
G03*
X14332900Y-9804400I-20000J0D01*
G01*
X14406560Y-4836160D02*
G75*
G03*
X14406560Y-4836160I-20000J0D01*
G01*
X14465600Y-9405000D02*
G75*
G03*
X14465600Y-9405000I-20000J0D01*
G01*
X14498000Y-6286500D02*
G75*
G03*
X14498000Y-6286500I-20000J0D01*
G01*
X14498000Y-6477000D02*
G75*
G03*
X14498000Y-6477000I-20000J0D01*
G01*
X14498000Y-6667500D02*
G75*
G03*
X14498000Y-6667500I-20000J0D01*
G01*
X14520000Y-5550000D02*
G75*
G03*
X14520000Y-5550000I-20000J0D01*
G01*
X14523400Y-7467600D02*
G75*
G03*
X14523400Y-7467600I-20000J0D01*
G01*
X14523400Y-7569200D02*
G75*
G03*
X14523400Y-7569200I-20000J0D01*
G01*
X14548800Y-8636000D02*
G75*
G03*
X14548800Y-8636000I-20000J0D01*
G01*
X14548800Y-8813800D02*
G75*
G03*
X14548800Y-8813800I-20000J0D01*
G01*
X14548800Y-9017000D02*
G75*
G03*
X14548800Y-9017000I-20000J0D01*
G01*
X14625000Y-7467600D02*
G75*
G03*
X14625000Y-7467600I-20000J0D01*
G01*
X14625000Y-7569200D02*
G75*
G03*
X14625000Y-7569200I-20000J0D01*
G01*
X14650000Y-4850000D02*
G75*
G03*
X14650000Y-4850000I-20000J0D01*
G01*
X14688500Y-6286500D02*
G75*
G03*
X14688500Y-6286500I-20000J0D01*
G01*
X14688500Y-6477000D02*
G75*
G03*
X14688500Y-6477000I-20000J0D01*
G01*
X14688500Y-6667500D02*
G75*
G03*
X14688500Y-6667500I-20000J0D01*
G01*
X14701200Y-8636000D02*
G75*
G03*
X14701200Y-8636000I-20000J0D01*
G01*
X14864094Y-5539999D02*
G75*
G03*
X14864094Y-5539999I-20000J0D01*
G01*
X14879000Y-6667500D02*
G75*
G03*
X14879000Y-6667500I-20000J0D01*
G01*
X14889726Y-6957625D02*
G75*
G03*
X14889726Y-6957625I-20000J0D01*
G01*
X14893629Y-6862317D02*
G75*
G03*
X14893629Y-6862317I-20000J0D01*
G01*
X15031400Y-9017000D02*
G75*
G03*
X15031400Y-9017000I-20000J0D01*
G01*
X15058222Y-5473701D02*
G75*
G03*
X15058222Y-5473701I-20000J0D01*
G01*
X15069500Y-6667500D02*
G75*
G03*
X15069500Y-6667500I-20000J0D01*
G01*
X15077119Y-4632960D02*
G75*
G03*
X15077119Y-4632960I-20000J0D01*
G01*
X15077120Y-4754880D02*
G75*
G03*
X15077120Y-4754880I-20000J0D01*
G01*
X15126000Y-9405000D02*
G75*
G03*
X15126000Y-9405000I-20000J0D01*
G01*
X15183800Y-5435600D02*
G75*
G03*
X15183800Y-5435600I-20000J0D01*
G01*
X15183800Y-7658100D02*
G75*
G03*
X15183800Y-7658100I-20000J0D01*
G01*
X15209200Y-5308600D02*
G75*
G03*
X15209200Y-5308600I-20000J0D01*
G01*
X15209200Y-7543800D02*
G75*
G03*
X15209200Y-7543800I-20000J0D01*
G01*
X15209200Y-8636000D02*
G75*
G03*
X15209200Y-8636000I-20000J0D01*
G01*
X15209200Y-8813800D02*
G75*
G03*
X15209200Y-8813800I-20000J0D01*
G01*
X15209200Y-9017000D02*
G75*
G03*
X15209200Y-9017000I-20000J0D01*
G01*
X15254438Y-7473162D02*
G75*
G03*
X15254438Y-7473162I-20000J0D01*
G01*
X15260000Y-6667500D02*
G75*
G03*
X15260000Y-6667500I-20000J0D01*
G01*
X15262538Y-7698738D02*
G75*
G03*
X15262538Y-7698738I-20000J0D01*
G01*
X15340000Y-4640000D02*
G75*
G03*
X15340000Y-4640000I-20000J0D01*
G01*
X15361600Y-6502400D02*
G75*
G03*
X15361600Y-6502400I-20000J0D01*
G01*
X15412400Y-8636000D02*
G75*
G03*
X15412400Y-8636000I-20000J0D01*
G01*
X15420000Y-5000000D02*
G75*
G03*
X15420000Y-5000000I-20000J0D01*
G01*
X15436529Y-6981181D02*
G75*
G03*
X15436529Y-6981181I-20000J0D01*
G01*
X15448591Y-6862450D02*
G75*
G03*
X15448591Y-6862450I-20000J0D01*
G01*
X15450500Y-6667500D02*
G75*
G03*
X15450500Y-6667500I-20000J0D01*
G01*
X15564800Y-6731000D02*
G75*
G03*
X15564800Y-6731000I-20000J0D01*
G01*
X15580000Y-5000000D02*
G75*
G03*
X15580000Y-5000000I-20000J0D01*
G01*
X15625760Y-6238240D02*
G75*
G03*
X15625760Y-6238240I-20000J0D01*
G01*
X15641000Y-6858000D02*
G75*
G03*
X15641000Y-6858000I-20000J0D01*
G01*
X15641000Y-7048500D02*
G75*
G03*
X15641000Y-7048500I-20000J0D01*
G01*
X15707040Y-6319520D02*
G75*
G03*
X15707040Y-6319520I-20000J0D01*
G01*
X15723195Y-9316108D02*
G75*
G03*
X15723195Y-9316108I-20000J0D01*
G01*
X15742600Y-7493000D02*
G75*
G03*
X15742600Y-7493000I-20000J0D01*
G01*
X15742600Y-7594600D02*
G75*
G03*
X15742600Y-7594600I-20000J0D01*
G01*
X15742600Y-7696200D02*
G75*
G03*
X15742600Y-7696200I-20000J0D01*
G01*
X15747680Y-6217920D02*
G75*
G03*
X15747680Y-6217920I-20000J0D01*
G01*
X15748901Y-5000000D02*
G75*
G03*
X15748901Y-5000000I-20000J0D01*
G01*
X10147500Y-4725000D02*
X10147500Y-4775000D01*
X10122500Y-4750000D02*
X10172500Y-4750000D01*
X10147500Y-9625000D02*
X10147500Y-9675000D01*
X10122500Y-9650000D02*
X10172500Y-9650000D01*
X10206811Y-4581811D02*
X10206811Y-4631811D01*
X10181811Y-4606811D02*
X10231811Y-4606811D01*
X10206811Y-4868189D02*
X10206811Y-4918189D01*
X10181811Y-4893189D02*
X10231811Y-4893189D01*
X10206811Y-9481811D02*
X10206811Y-9531811D01*
X10181811Y-9506811D02*
X10231811Y-9506811D01*
X10206811Y-9768189D02*
X10206811Y-9818189D01*
X10181811Y-9793189D02*
X10231811Y-9793189D01*
X10350000Y-4522500D02*
X10350000Y-4572500D01*
X10325000Y-4547500D02*
X10375000Y-4547500D01*
X10350000Y-4927500D02*
X10350000Y-4977500D01*
X10325000Y-4952500D02*
X10375000Y-4952500D01*
X10350000Y-9422500D02*
X10350000Y-9472500D01*
X10325000Y-9447500D02*
X10375000Y-9447500D01*
X10350000Y-9827500D02*
X10350000Y-9877500D01*
X10325000Y-9852500D02*
X10375000Y-9852500D01*
X10493189Y-4581811D02*
X10493189Y-4631811D01*
X10468189Y-4606811D02*
X10518189Y-4606811D01*
X10493189Y-4868189D02*
X10493189Y-4918189D01*
X10468189Y-4893189D02*
X10518189Y-4893189D01*
X10493189Y-9481811D02*
X10493189Y-9531811D01*
X10468189Y-9506811D02*
X10518189Y-9506811D01*
X10493189Y-9768189D02*
X10493189Y-9818189D01*
X10468189Y-9793189D02*
X10518189Y-9793189D01*
X10552500Y-4725000D02*
X10552500Y-4775000D01*
X10527500Y-4750000D02*
X10577500Y-4750000D01*
X10552500Y-9625000D02*
X10552500Y-9675000D01*
X10527500Y-9650000D02*
X10577500Y-9650000D01*
X15947500Y-4725000D02*
X15947500Y-4775000D01*
X15922500Y-4750000D02*
X15972500Y-4750000D01*
X15947500Y-9625000D02*
X15947500Y-9675000D01*
X15922500Y-9650000D02*
X15972500Y-9650000D01*
X16006811Y-4581811D02*
X16006811Y-4631811D01*
X15981811Y-4606811D02*
X16031811Y-4606811D01*
X16006811Y-4868189D02*
X16006811Y-4918189D01*
X15981811Y-4893189D02*
X16031811Y-4893189D01*
X16006811Y-9481811D02*
X16006811Y-9531811D01*
X15981811Y-9506811D02*
X16031811Y-9506811D01*
X16006811Y-9768189D02*
X16006811Y-9818189D01*
X15981811Y-9793189D02*
X16031811Y-9793189D01*
X16150000Y-4522500D02*
X16150000Y-4572500D01*
X16125000Y-4547500D02*
X16175000Y-4547500D01*
X16150000Y-4927500D02*
X16150000Y-4977500D01*
X16125000Y-4952500D02*
X16175000Y-4952500D01*
X16150000Y-9422500D02*
X16150000Y-9472500D01*
X16125000Y-9447500D02*
X16175000Y-9447500D01*
X16150000Y-9827500D02*
X16150000Y-9877500D01*
X16125000Y-9852500D02*
X16175000Y-9852500D01*
X16293189Y-4581811D02*
X16293189Y-4631811D01*
X16268189Y-4606811D02*
X16318189Y-4606811D01*
X16293189Y-4868189D02*
X16293189Y-4918189D01*
X16268189Y-4893189D02*
X16318189Y-4893189D01*
X16293189Y-9481811D02*
X16293189Y-9531811D01*
X16268189Y-9506811D02*
X16318189Y-9506811D01*
X16293189Y-9768189D02*
X16293189Y-9818189D01*
X16268189Y-9793189D02*
X16318189Y-9793189D01*
X16352500Y-4725000D02*
X16352500Y-4775000D01*
X16327500Y-4750000D02*
X16377500Y-4750000D01*
X16352500Y-9625000D02*
X16352500Y-9675000D01*
X16327500Y-9650000D02*
X16377500Y-9650000D01*
X11057981Y-7524381D02*
X11057981Y-7478419D01*
X11012019Y-7478419D01*
X11012019Y-7524381D01*
X11057981Y-7524381D01*
X11090000Y-7478900D02*
X10980000Y-7478900D01*
X11090000Y-7523900D02*
X10980000Y-7523900D01*
X10980000Y-7478900D02*
G75*
G03*
X10980000Y-7523900I0J-22500D01*
G01*
X11090000Y-7523900D02*
G75*
G03*
X11090000Y-7478900I0J22500D01*
G01*
X11057981Y-8874381D02*
X11057981Y-8828419D01*
X11012019Y-8828419D01*
X11012019Y-8874381D01*
X11057981Y-8874381D01*
X11090000Y-8828900D02*
X10980000Y-8828900D01*
X11090000Y-8873900D02*
X10980000Y-8873900D01*
X10980000Y-8828900D02*
G75*
G03*
X10980000Y-8873900I0J-22500D01*
G01*
X11090000Y-8873900D02*
G75*
G03*
X11090000Y-8828900I0J22500D01*
G01*
X12070000Y-8842500D02*
X12107500Y-8805000D01*
X12070000Y-8767500D01*
X12032500Y-8805000D01*
X12070000Y-8842500D01*
X12070000Y-9042500D02*
X12107500Y-9005000D01*
X12070000Y-8967500D01*
X12032500Y-9005000D01*
X12070000Y-9042500D01*
X12070000Y-9242500D02*
X12107500Y-9205000D01*
X12070000Y-9167500D01*
X12032500Y-9205000D01*
X12070000Y-9242500D01*
X12070000Y-9442500D02*
X12107500Y-9405000D01*
X12070000Y-9367500D01*
X12032500Y-9405000D01*
X12070000Y-9442500D01*
X12070000Y-9642500D02*
X12107500Y-9605000D01*
X12070000Y-9567500D01*
X12032500Y-9605000D01*
X12070000Y-9642500D01*
X12070000Y-9842500D02*
X12107500Y-9805000D01*
X12070000Y-9767500D01*
X12032500Y-9805000D01*
X12070000Y-9842500D01*
X12738000Y-8842500D02*
X12775500Y-8805000D01*
X12738000Y-8767500D01*
X12700500Y-8805000D01*
X12738000Y-8842500D01*
X12738000Y-9042500D02*
X12775500Y-9005000D01*
X12738000Y-8967500D01*
X12700500Y-9005000D01*
X12738000Y-9042500D01*
X12738000Y-9242500D02*
X12775500Y-9205000D01*
X12738000Y-9167500D01*
X12700500Y-9205000D01*
X12738000Y-9242500D01*
X12738000Y-9442500D02*
X12775500Y-9405000D01*
X12738000Y-9367500D01*
X12700500Y-9405000D01*
X12738000Y-9442500D01*
X12738000Y-9642500D02*
X12775500Y-9605000D01*
X12738000Y-9567500D01*
X12700500Y-9605000D01*
X12738000Y-9642500D01*
X12738000Y-9842500D02*
X12775500Y-9805000D01*
X12738000Y-9767500D01*
X12700500Y-9805000D01*
X12738000Y-9842500D01*
X13406000Y-8842500D02*
X13443500Y-8805000D01*
X13406000Y-8767500D01*
X13368500Y-8805000D01*
X13406000Y-8842500D01*
X13406000Y-9042500D02*
X13443500Y-9005000D01*
X13406000Y-8967500D01*
X13368500Y-9005000D01*
X13406000Y-9042500D01*
X13406000Y-9242500D02*
X13443500Y-9205000D01*
X13406000Y-9167500D01*
X13368500Y-9205000D01*
X13406000Y-9242500D01*
X13406000Y-9442500D02*
X13443500Y-9405000D01*
X13406000Y-9367500D01*
X13368500Y-9405000D01*
X13406000Y-9442500D01*
X13406000Y-9642500D02*
X13443500Y-9605000D01*
X13406000Y-9567500D01*
X13368500Y-9605000D01*
X13406000Y-9642500D01*
X13406000Y-9842500D02*
X13443500Y-9805000D01*
X13406000Y-9767500D01*
X13368500Y-9805000D01*
X13406000Y-9842500D01*
X14074000Y-8842500D02*
X14111500Y-8805000D01*
X14074000Y-8767500D01*
X14036500Y-8805000D01*
X14074000Y-8842500D01*
X14074000Y-9042500D02*
X14111500Y-9005000D01*
X14074000Y-8967500D01*
X14036500Y-9005000D01*
X14074000Y-9042500D01*
X14074000Y-9242500D02*
X14111500Y-9205000D01*
X14074000Y-9167500D01*
X14036500Y-9205000D01*
X14074000Y-9242500D01*
X14074000Y-9442500D02*
X14111500Y-9405000D01*
X14074000Y-9367500D01*
X14036500Y-9405000D01*
X14074000Y-9442500D01*
X14074000Y-9642500D02*
X14111500Y-9605000D01*
X14074000Y-9567500D01*
X14036500Y-9605000D01*
X14074000Y-9642500D01*
X14074000Y-9842500D02*
X14111500Y-9805000D01*
X14074000Y-9767500D01*
X14036500Y-9805000D01*
X14074000Y-9842500D01*
X14742000Y-8842500D02*
X14779500Y-8805000D01*
X14742000Y-8767500D01*
X14704500Y-8805000D01*
X14742000Y-8842500D01*
X14742000Y-9042500D02*
X14779500Y-9005000D01*
X14742000Y-8967500D01*
X14704500Y-9005000D01*
X14742000Y-9042500D01*
X14742000Y-9242500D02*
X14779500Y-9205000D01*
X14742000Y-9167500D01*
X14704500Y-9205000D01*
X14742000Y-9242500D01*
X14742000Y-9442500D02*
X14779500Y-9405000D01*
X14742000Y-9367500D01*
X14704500Y-9405000D01*
X14742000Y-9442500D01*
X14742000Y-9642500D02*
X14779500Y-9605000D01*
X14742000Y-9567500D01*
X14704500Y-9605000D01*
X14742000Y-9642500D01*
X14742000Y-9842500D02*
X14779500Y-9805000D01*
X14742000Y-9767500D01*
X14704500Y-9805000D01*
X14742000Y-9842500D01*
X15410000Y-8842500D02*
X15447500Y-8805000D01*
X15410000Y-8767500D01*
X15372500Y-8805000D01*
X15410000Y-8842500D01*
X15410000Y-9042500D02*
X15447500Y-9005000D01*
X15410000Y-8967500D01*
X15372500Y-9005000D01*
X15410000Y-9042500D01*
X15410000Y-9242500D02*
X15447500Y-9205000D01*
X15410000Y-9167500D01*
X15372500Y-9205000D01*
X15410000Y-9242500D01*
X15410000Y-9442500D02*
X15447500Y-9405000D01*
X15410000Y-9367500D01*
X15372500Y-9405000D01*
X15410000Y-9442500D01*
X15410000Y-9642500D02*
X15447500Y-9605000D01*
X15410000Y-9567500D01*
X15372500Y-9605000D01*
X15410000Y-9642500D01*
X15410000Y-9842500D02*
X15447500Y-9805000D01*
X15410000Y-9767500D01*
X15372500Y-9805000D01*
X15410000Y-9842500D01*
X12080000Y-8120000D02*
X12160000Y-8200000D01*
X12160000Y-8120000D02*
X12080000Y-8200000D01*
X12160000Y-8160000D02*
G75*
G03*
X12160000Y-8160000I-40000J0D01*
G01*
X12080000Y-8370000D02*
X12160000Y-8450000D01*
X12160000Y-8370000D02*
X12080000Y-8450000D01*
X12160000Y-8410000D02*
G75*
G03*
X12160000Y-8410000I-40000J0D01*
G01*
X12835000Y-8120000D02*
X12915000Y-8200000D01*
X12915000Y-8120000D02*
X12835000Y-8200000D01*
X12915000Y-8160000D02*
G75*
G03*
X12915000Y-8160000I-40000J0D01*
G01*
X12835000Y-8370000D02*
X12915000Y-8450000D01*
X12915000Y-8370000D02*
X12835000Y-8450000D01*
X12915000Y-8410000D02*
G75*
G03*
X12915000Y-8410000I-40000J0D01*
G01*
X13385000Y-8120000D02*
X13465000Y-8200000D01*
X13465000Y-8120000D02*
X13385000Y-8200000D01*
X13465000Y-8160000D02*
G75*
G03*
X13465000Y-8160000I-40000J0D01*
G01*
X13385000Y-8370000D02*
X13465000Y-8450000D01*
X13465000Y-8370000D02*
X13385000Y-8450000D01*
X13465000Y-8410000D02*
G75*
G03*
X13465000Y-8410000I-40000J0D01*
G01*
X14135000Y-8120000D02*
X14215000Y-8200000D01*
X14215000Y-8120000D02*
X14135000Y-8200000D01*
X14215000Y-8160000D02*
G75*
G03*
X14215000Y-8160000I-40000J0D01*
G01*
X14135000Y-8370000D02*
X14215000Y-8450000D01*
X14215000Y-8370000D02*
X14135000Y-8450000D01*
X14215000Y-8410000D02*
G75*
G03*
X14215000Y-8410000I-40000J0D01*
G01*
X14680000Y-8120000D02*
X14760000Y-8200000D01*
X14760000Y-8120000D02*
X14680000Y-8200000D01*
X14760000Y-8160000D02*
G75*
G03*
X14760000Y-8160000I-40000J0D01*
G01*
X14680000Y-8370000D02*
X14760000Y-8450000D01*
X14760000Y-8370000D02*
X14680000Y-8450000D01*
X14760000Y-8410000D02*
G75*
G03*
X14760000Y-8410000I-40000J0D01*
G01*
X15360000Y-5210000D02*
X15440000Y-5290000D01*
X15440000Y-5210000D02*
X15360000Y-5290000D01*
X15440000Y-5250000D02*
G75*
G03*
X15440000Y-5250000I-40000J0D01*
G01*
X15360000Y-5460000D02*
X15440000Y-5540000D01*
X15440000Y-5460000D02*
X15360000Y-5540000D01*
X15440000Y-5500000D02*
G75*
G03*
X15440000Y-5500000I-40000J0D01*
G01*
X15360000Y-5920000D02*
X15440000Y-6000000D01*
X15440000Y-5920000D02*
X15360000Y-6000000D01*
X15440000Y-5960000D02*
G75*
G03*
X15440000Y-5960000I-40000J0D01*
G01*
X15360000Y-6170000D02*
X15440000Y-6250000D01*
X15440000Y-6170000D02*
X15360000Y-6250000D01*
X15440000Y-6210000D02*
G75*
G03*
X15440000Y-6210000I-40000J0D01*
G01*
X15430000Y-8120000D02*
X15510000Y-8200000D01*
X15510000Y-8120000D02*
X15430000Y-8200000D01*
X15510000Y-8160000D02*
G75*
G03*
X15510000Y-8160000I-40000J0D01*
G01*
X15430000Y-8370000D02*
X15510000Y-8450000D01*
X15510000Y-8370000D02*
X15430000Y-8450000D01*
X15510000Y-8410000D02*
G75*
G03*
X15510000Y-8410000I-40000J0D01*
G01*
X10173000Y-9121400D02*
X10273000Y-9221400D01*
X10273000Y-9121400D02*
X10173000Y-9221400D01*
X10223000Y-9121400D02*
X10223000Y-9221400D01*
X10173000Y-9171400D02*
X10273000Y-9171400D01*
X10427000Y-9121400D02*
X10527000Y-9221400D01*
X10527000Y-9121400D02*
X10427000Y-9221400D01*
X10477000Y-9121400D02*
X10477000Y-9221400D01*
X10427000Y-9171400D02*
X10527000Y-9171400D01*
X10787000Y-4573000D02*
X10887000Y-4673000D01*
X10887000Y-4573000D02*
X10787000Y-4673000D01*
X10837000Y-4573000D02*
X10837000Y-4673000D01*
X10787000Y-4623000D02*
X10887000Y-4623000D01*
X10787000Y-4827000D02*
X10887000Y-4927000D01*
X10887000Y-4827000D02*
X10787000Y-4927000D01*
X10837000Y-4827000D02*
X10837000Y-4927000D01*
X10787000Y-4877000D02*
X10887000Y-4877000D01*
X11041000Y-4573000D02*
X11141000Y-4673000D01*
X11141000Y-4573000D02*
X11041000Y-4673000D01*
X11091000Y-4573000D02*
X11091000Y-4673000D01*
X11041000Y-4623000D02*
X11141000Y-4623000D01*
X11041000Y-4827000D02*
X11141000Y-4927000D01*
X11141000Y-4827000D02*
X11041000Y-4927000D01*
X11091000Y-4827000D02*
X11091000Y-4927000D01*
X11041000Y-4877000D02*
X11141000Y-4877000D01*
X11295000Y-4573000D02*
X11395000Y-4673000D01*
X11395000Y-4573000D02*
X11295000Y-4673000D01*
X11345000Y-4573000D02*
X11345000Y-4673000D01*
X11295000Y-4623000D02*
X11395000Y-4623000D01*
X11295000Y-4827000D02*
X11395000Y-4927000D01*
X11395000Y-4827000D02*
X11295000Y-4927000D01*
X11345000Y-4827000D02*
X11345000Y-4927000D01*
X11295000Y-4877000D02*
X11395000Y-4877000D01*
X11549000Y-4573000D02*
X11649000Y-4673000D01*
X11649000Y-4573000D02*
X11549000Y-4673000D01*
X11599000Y-4573000D02*
X11599000Y-4673000D01*
X11549000Y-4623000D02*
X11649000Y-4623000D01*
X11549000Y-4827000D02*
X11649000Y-4927000D01*
X11649000Y-4827000D02*
X11549000Y-4927000D01*
X11599000Y-4827000D02*
X11599000Y-4927000D01*
X11549000Y-4877000D02*
X11649000Y-4877000D01*
X11803000Y-4573000D02*
X11903000Y-4673000D01*
X11903000Y-4573000D02*
X11803000Y-4673000D01*
X11853000Y-4573000D02*
X11853000Y-4673000D01*
X11803000Y-4623000D02*
X11903000Y-4623000D01*
X11803000Y-4827000D02*
X11903000Y-4927000D01*
X11903000Y-4827000D02*
X11803000Y-4927000D01*
X11853000Y-4827000D02*
X11853000Y-4927000D01*
X11803000Y-4877000D02*
X11903000Y-4877000D01*
X12057000Y-4573000D02*
X12157000Y-4673000D01*
X12157000Y-4573000D02*
X12057000Y-4673000D01*
X12107000Y-4573000D02*
X12107000Y-4673000D01*
X12057000Y-4623000D02*
X12157000Y-4623000D01*
X12057000Y-4827000D02*
X12157000Y-4927000D01*
X12157000Y-4827000D02*
X12057000Y-4927000D01*
X12107000Y-4827000D02*
X12107000Y-4927000D01*
X12057000Y-4877000D02*
X12157000Y-4877000D01*
X12311000Y-4573000D02*
X12411000Y-4673000D01*
X12411000Y-4573000D02*
X12311000Y-4673000D01*
X12361000Y-4573000D02*
X12361000Y-4673000D01*
X12311000Y-4623000D02*
X12411000Y-4623000D01*
X12311000Y-4827000D02*
X12411000Y-4927000D01*
X12411000Y-4827000D02*
X12311000Y-4927000D01*
X12361000Y-4827000D02*
X12361000Y-4927000D01*
X12311000Y-4877000D02*
X12411000Y-4877000D01*
X12565000Y-4573000D02*
X12665000Y-4673000D01*
X12665000Y-4573000D02*
X12565000Y-4673000D01*
X12615000Y-4573000D02*
X12615000Y-4673000D01*
X12565000Y-4623000D02*
X12665000Y-4623000D01*
X12565000Y-4827000D02*
X12665000Y-4927000D01*
X12665000Y-4827000D02*
X12565000Y-4927000D01*
X12615000Y-4827000D02*
X12615000Y-4927000D01*
X12565000Y-4877000D02*
X12665000Y-4877000D01*
X12819000Y-4573000D02*
X12919000Y-4673000D01*
X12919000Y-4573000D02*
X12819000Y-4673000D01*
X12869000Y-4573000D02*
X12869000Y-4673000D01*
X12819000Y-4623000D02*
X12919000Y-4623000D01*
X12819000Y-4827000D02*
X12919000Y-4927000D01*
X12919000Y-4827000D02*
X12819000Y-4927000D01*
X12869000Y-4827000D02*
X12869000Y-4927000D01*
X12819000Y-4877000D02*
X12919000Y-4877000D01*
X13073000Y-4573000D02*
X13173000Y-4673000D01*
X13173000Y-4573000D02*
X13073000Y-4673000D01*
X13123000Y-4573000D02*
X13123000Y-4673000D01*
X13073000Y-4623000D02*
X13173000Y-4623000D01*
X13073000Y-4827000D02*
X13173000Y-4927000D01*
X13173000Y-4827000D02*
X13073000Y-4927000D01*
X13123000Y-4827000D02*
X13123000Y-4927000D01*
X13073000Y-4877000D02*
X13173000Y-4877000D01*
X13327000Y-4573000D02*
X13427000Y-4673000D01*
X13427000Y-4573000D02*
X13327000Y-4673000D01*
X13377000Y-4573000D02*
X13377000Y-4673000D01*
X13327000Y-4623000D02*
X13427000Y-4623000D01*
X13327000Y-4827000D02*
X13427000Y-4927000D01*
X13427000Y-4827000D02*
X13327000Y-4927000D01*
X13377000Y-4827000D02*
X13377000Y-4927000D01*
X13327000Y-4877000D02*
X13427000Y-4877000D01*
X15875000Y-5190000D02*
X15975000Y-5290000D01*
X15975000Y-5190000D02*
X15875000Y-5290000D01*
X15925000Y-5190000D02*
X15925000Y-5290000D01*
X15875000Y-5240000D02*
X15975000Y-5240000D01*
X15875000Y-5444000D02*
X15975000Y-5544000D01*
X15975000Y-5444000D02*
X15875000Y-5544000D01*
X15925000Y-5444000D02*
X15925000Y-5544000D01*
X15875000Y-5494000D02*
X15975000Y-5494000D01*
X15875000Y-5698000D02*
X15975000Y-5798000D01*
X15975000Y-5698000D02*
X15875000Y-5798000D01*
X15925000Y-5698000D02*
X15925000Y-5798000D01*
X15875000Y-5748000D02*
X15975000Y-5748000D01*
X15875000Y-5952000D02*
X15975000Y-6052000D01*
X15975000Y-5952000D02*
X15875000Y-6052000D01*
X15925000Y-5952000D02*
X15925000Y-6052000D01*
X15875000Y-6002000D02*
X15975000Y-6002000D01*
X15875000Y-6319000D02*
X15975000Y-6419000D01*
X15975000Y-6319000D02*
X15875000Y-6419000D01*
X15925000Y-6319000D02*
X15925000Y-6419000D01*
X15875000Y-6369000D02*
X15975000Y-6369000D01*
X15875000Y-6573000D02*
X15975000Y-6673000D01*
X15975000Y-6573000D02*
X15875000Y-6673000D01*
X15925000Y-6573000D02*
X15925000Y-6673000D01*
X15875000Y-6623000D02*
X15975000Y-6623000D01*
X15875000Y-6827000D02*
X15975000Y-6927000D01*
X15975000Y-6827000D02*
X15875000Y-6927000D01*
X15925000Y-6827000D02*
X15925000Y-6927000D01*
X15875000Y-6877000D02*
X15975000Y-6877000D01*
X15875000Y-7081000D02*
X15975000Y-7181000D01*
X15975000Y-7081000D02*
X15875000Y-7181000D01*
X15925000Y-7081000D02*
X15925000Y-7181000D01*
X15875000Y-7131000D02*
X15975000Y-7131000D01*
X15875000Y-7449000D02*
X15975000Y-7549000D01*
X15975000Y-7449000D02*
X15875000Y-7549000D01*
X15925000Y-7449000D02*
X15925000Y-7549000D01*
X15875000Y-7499000D02*
X15975000Y-7499000D01*
X15875000Y-7820000D02*
X15975000Y-7920000D01*
X15975000Y-7820000D02*
X15875000Y-7920000D01*
X15925000Y-7820000D02*
X15925000Y-7920000D01*
X15875000Y-7870000D02*
X15975000Y-7870000D01*
X15875000Y-8074000D02*
X15975000Y-8174000D01*
X15975000Y-8074000D02*
X15875000Y-8174000D01*
X15925000Y-8074000D02*
X15925000Y-8174000D01*
X15875000Y-8124000D02*
X15975000Y-8124000D01*
X15875000Y-8328000D02*
X15975000Y-8428000D01*
X15975000Y-8328000D02*
X15875000Y-8428000D01*
X15925000Y-8328000D02*
X15925000Y-8428000D01*
X15875000Y-8378000D02*
X15975000Y-8378000D01*
X15875000Y-8582000D02*
X15975000Y-8682000D01*
X15975000Y-8582000D02*
X15875000Y-8682000D01*
X15925000Y-8582000D02*
X15925000Y-8682000D01*
X15875000Y-8632000D02*
X15975000Y-8632000D01*
X15875000Y-8836000D02*
X15975000Y-8936000D01*
X15975000Y-8836000D02*
X15875000Y-8936000D01*
X15925000Y-8836000D02*
X15925000Y-8936000D01*
X15875000Y-8886000D02*
X15975000Y-8886000D01*
X15875000Y-9090000D02*
X15975000Y-9190000D01*
X15975000Y-9090000D02*
X15875000Y-9190000D01*
X15925000Y-9090000D02*
X15925000Y-9190000D01*
X15875000Y-9140000D02*
X15975000Y-9140000D01*
X16129000Y-5190000D02*
X16229000Y-5290000D01*
X16229000Y-5190000D02*
X16129000Y-5290000D01*
X16179000Y-5190000D02*
X16179000Y-5290000D01*
X16129000Y-5240000D02*
X16229000Y-5240000D01*
X16129000Y-5444000D02*
X16229000Y-5544000D01*
X16229000Y-5444000D02*
X16129000Y-5544000D01*
X16179000Y-5444000D02*
X16179000Y-5544000D01*
X16129000Y-5494000D02*
X16229000Y-5494000D01*
X16129000Y-5698000D02*
X16229000Y-5798000D01*
X16229000Y-5698000D02*
X16129000Y-5798000D01*
X16179000Y-5698000D02*
X16179000Y-5798000D01*
X16129000Y-5748000D02*
X16229000Y-5748000D01*
X16129000Y-5952000D02*
X16229000Y-6052000D01*
X16229000Y-5952000D02*
X16129000Y-6052000D01*
X16179000Y-5952000D02*
X16179000Y-6052000D01*
X16129000Y-6002000D02*
X16229000Y-6002000D01*
X16129000Y-6319000D02*
X16229000Y-6419000D01*
X16229000Y-6319000D02*
X16129000Y-6419000D01*
X16179000Y-6319000D02*
X16179000Y-6419000D01*
X16129000Y-6369000D02*
X16229000Y-6369000D01*
X16129000Y-6573000D02*
X16229000Y-6673000D01*
X16229000Y-6573000D02*
X16129000Y-6673000D01*
X16179000Y-6573000D02*
X16179000Y-6673000D01*
X16129000Y-6623000D02*
X16229000Y-6623000D01*
X16129000Y-6827000D02*
X16229000Y-6927000D01*
X16229000Y-6827000D02*
X16129000Y-6927000D01*
X16179000Y-6827000D02*
X16179000Y-6927000D01*
X16129000Y-6877000D02*
X16229000Y-6877000D01*
X16129000Y-7081000D02*
X16229000Y-7181000D01*
X16229000Y-7081000D02*
X16129000Y-7181000D01*
X16179000Y-7081000D02*
X16179000Y-7181000D01*
X16129000Y-7131000D02*
X16229000Y-7131000D01*
X16129000Y-7449000D02*
X16229000Y-7549000D01*
X16229000Y-7449000D02*
X16129000Y-7549000D01*
X16179000Y-7449000D02*
X16179000Y-7549000D01*
X16129000Y-7499000D02*
X16229000Y-7499000D01*
X16129000Y-7820000D02*
X16229000Y-7920000D01*
X16229000Y-7820000D02*
X16129000Y-7920000D01*
X16179000Y-7820000D02*
X16179000Y-7920000D01*
X16129000Y-7870000D02*
X16229000Y-7870000D01*
X16129000Y-8074000D02*
X16229000Y-8174000D01*
X16229000Y-8074000D02*
X16129000Y-8174000D01*
X16179000Y-8074000D02*
X16179000Y-8174000D01*
X16129000Y-8124000D02*
X16229000Y-8124000D01*
X16129000Y-8328000D02*
X16229000Y-8428000D01*
X16229000Y-8328000D02*
X16129000Y-8428000D01*
X16179000Y-8328000D02*
X16179000Y-8428000D01*
X16129000Y-8378000D02*
X16229000Y-8378000D01*
X16129000Y-8582000D02*
X16229000Y-8682000D01*
X16229000Y-8582000D02*
X16129000Y-8682000D01*
X16179000Y-8582000D02*
X16179000Y-8682000D01*
X16129000Y-8632000D02*
X16229000Y-8632000D01*
X16129000Y-8836000D02*
X16229000Y-8936000D01*
X16229000Y-8836000D02*
X16129000Y-8936000D01*
X16179000Y-8836000D02*
X16179000Y-8936000D01*
X16129000Y-8886000D02*
X16229000Y-8886000D01*
X16129000Y-9090000D02*
X16229000Y-9190000D01*
X16229000Y-9090000D02*
X16129000Y-9190000D01*
X16179000Y-9090000D02*
X16179000Y-9190000D01*
X16129000Y-9140000D02*
X16229000Y-9140000D01*
X16383000Y-5190000D02*
X16483000Y-5290000D01*
X16483000Y-5190000D02*
X16383000Y-5290000D01*
X16433000Y-5190000D02*
X16433000Y-5290000D01*
X16383000Y-5240000D02*
X16483000Y-5240000D01*
X16383000Y-5444000D02*
X16483000Y-5544000D01*
X16483000Y-5444000D02*
X16383000Y-5544000D01*
X16433000Y-5444000D02*
X16433000Y-5544000D01*
X16383000Y-5494000D02*
X16483000Y-5494000D01*
X16383000Y-5698000D02*
X16483000Y-5798000D01*
X16483000Y-5698000D02*
X16383000Y-5798000D01*
X16433000Y-5698000D02*
X16433000Y-5798000D01*
X16383000Y-5748000D02*
X16483000Y-5748000D01*
X16383000Y-5952000D02*
X16483000Y-6052000D01*
X16483000Y-5952000D02*
X16383000Y-6052000D01*
X16433000Y-5952000D02*
X16433000Y-6052000D01*
X16383000Y-6002000D02*
X16483000Y-6002000D01*
X16383000Y-6319000D02*
X16483000Y-6419000D01*
X16483000Y-6319000D02*
X16383000Y-6419000D01*
X16433000Y-6319000D02*
X16433000Y-6419000D01*
X16383000Y-6369000D02*
X16483000Y-6369000D01*
X16383000Y-6573000D02*
X16483000Y-6673000D01*
X16483000Y-6573000D02*
X16383000Y-6673000D01*
X16433000Y-6573000D02*
X16433000Y-6673000D01*
X16383000Y-6623000D02*
X16483000Y-6623000D01*
X16383000Y-6827000D02*
X16483000Y-6927000D01*
X16483000Y-6827000D02*
X16383000Y-6927000D01*
X16433000Y-6827000D02*
X16433000Y-6927000D01*
X16383000Y-6877000D02*
X16483000Y-6877000D01*
X16383000Y-7081000D02*
X16483000Y-7181000D01*
X16483000Y-7081000D02*
X16383000Y-7181000D01*
X16433000Y-7081000D02*
X16433000Y-7181000D01*
X16383000Y-7131000D02*
X16483000Y-7131000D01*
X16383000Y-7449000D02*
X16483000Y-7549000D01*
X16483000Y-7449000D02*
X16383000Y-7549000D01*
X16433000Y-7449000D02*
X16433000Y-7549000D01*
X16383000Y-7499000D02*
X16483000Y-7499000D01*
X16383000Y-7820000D02*
X16483000Y-7920000D01*
X16483000Y-7820000D02*
X16383000Y-7920000D01*
X16433000Y-7820000D02*
X16433000Y-7920000D01*
X16383000Y-7870000D02*
X16483000Y-7870000D01*
X16383000Y-8074000D02*
X16483000Y-8174000D01*
X16483000Y-8074000D02*
X16383000Y-8174000D01*
X16433000Y-8074000D02*
X16433000Y-8174000D01*
X16383000Y-8124000D02*
X16483000Y-8124000D01*
X16383000Y-8328000D02*
X16483000Y-8428000D01*
X16483000Y-8328000D02*
X16383000Y-8428000D01*
X16433000Y-8328000D02*
X16433000Y-8428000D01*
X16383000Y-8378000D02*
X16483000Y-8378000D01*
X16383000Y-8582000D02*
X16483000Y-8682000D01*
X16483000Y-8582000D02*
X16383000Y-8682000D01*
X16433000Y-8582000D02*
X16433000Y-8682000D01*
X16383000Y-8632000D02*
X16483000Y-8632000D01*
X16383000Y-8836000D02*
X16483000Y-8936000D01*
X16483000Y-8836000D02*
X16383000Y-8936000D01*
X16433000Y-8836000D02*
X16433000Y-8936000D01*
X16383000Y-8886000D02*
X16483000Y-8886000D01*
X16383000Y-9090000D02*
X16483000Y-9190000D01*
X16483000Y-9090000D02*
X16383000Y-9190000D01*
X16433000Y-9090000D02*
X16433000Y-9190000D01*
X16383000Y-9140000D02*
X16483000Y-9140000D01*
X10215000Y-4615000D02*
X10485000Y-4885000D01*
X10485000Y-4615000D02*
X10215000Y-4885000D01*
X10445460Y-4845460D02*
X10445460Y-4654540D01*
X10254540Y-4654540D01*
X10254540Y-4845460D01*
X10445460Y-4845460D01*
X10215000Y-9515000D02*
X10485000Y-9785000D01*
X10485000Y-9515000D02*
X10215000Y-9785000D01*
X10445460Y-9745460D02*
X10445460Y-9554540D01*
X10254540Y-9554540D01*
X10254540Y-9745460D01*
X10445460Y-9745460D01*
X11500000Y-7681400D02*
X11770000Y-7951400D01*
X11770000Y-7681400D02*
X11500000Y-7951400D01*
X11730460Y-7911860D02*
X11730460Y-7720940D01*
X11539540Y-7720940D01*
X11539540Y-7911860D01*
X11730460Y-7911860D01*
X11500000Y-8401400D02*
X11770000Y-8671400D01*
X11770000Y-8401400D02*
X11500000Y-8671400D01*
X11730460Y-8631860D02*
X11730460Y-8440940D01*
X11539540Y-8440940D01*
X11539540Y-8631860D01*
X11730460Y-8631860D01*
X16015000Y-4615000D02*
X16285000Y-4885000D01*
X16285000Y-4615000D02*
X16015000Y-4885000D01*
X16245460Y-4845460D02*
X16245460Y-4654540D01*
X16054540Y-4654540D01*
X16054540Y-4845460D01*
X16245460Y-4845460D01*
X16015000Y-9515000D02*
X16285000Y-9785000D01*
X16285000Y-9515000D02*
X16015000Y-9785000D01*
X16245460Y-9745460D02*
X16245460Y-9554540D01*
X16054540Y-9554540D01*
X16054540Y-9745460D01*
X16245460Y-9745460D01*
D12*
X10283928Y-10468214D02*
X10283928Y-10168214D01*
X10355357Y-10168214D01*
X10398214Y-10182500D01*
X10426786Y-10211072D01*
X10441071Y-10239643D01*
X10455357Y-10296786D01*
X10455357Y-10339643D01*
X10441071Y-10396786D01*
X10426786Y-10425357D01*
X10398214Y-10453929D01*
X10355357Y-10468214D01*
X10283928Y-10468214D01*
X10583928Y-10468214D02*
X10583928Y-10268214D01*
X10583928Y-10325357D02*
X10598214Y-10296786D01*
X10612500Y-10282500D01*
X10641071Y-10268214D01*
X10669643Y-10268214D01*
X10769643Y-10468214D02*
X10769643Y-10268214D01*
X10769643Y-10168214D02*
X10755357Y-10182500D01*
X10769643Y-10196786D01*
X10783928Y-10182500D01*
X10769643Y-10168214D01*
X10769643Y-10196786D01*
X10955357Y-10468214D02*
X10926786Y-10453929D01*
X10912500Y-10425357D01*
X10912500Y-10168214D01*
X11112500Y-10468214D02*
X11083928Y-10453929D01*
X11069643Y-10425357D01*
X11069643Y-10168214D01*
X11455357Y-10468214D02*
X11455357Y-10168214D01*
X11555357Y-10382500D01*
X11655357Y-10168214D01*
X11655357Y-10468214D01*
X11926786Y-10468214D02*
X11926786Y-10311072D01*
X11912500Y-10282500D01*
X11883928Y-10268214D01*
X11826786Y-10268214D01*
X11798214Y-10282500D01*
X11926786Y-10453929D02*
X11898214Y-10468214D01*
X11826786Y-10468214D01*
X11798214Y-10453929D01*
X11783928Y-10425357D01*
X11783928Y-10396786D01*
X11798214Y-10368214D01*
X11826786Y-10353929D01*
X11898214Y-10353929D01*
X11926786Y-10339643D01*
X12069643Y-10268214D02*
X12069643Y-10568214D01*
X12069643Y-10282500D02*
X12098214Y-10268214D01*
X12155357Y-10268214D01*
X12183928Y-10282500D01*
X12198214Y-10296786D01*
X12212500Y-10325357D01*
X12212500Y-10411072D01*
X12198214Y-10439643D01*
X12183928Y-10453929D01*
X12155357Y-10468214D01*
X12098214Y-10468214D01*
X12069643Y-10453929D01*
X12341071Y-10439643D02*
X12355357Y-10453929D01*
X12341071Y-10468214D01*
X12326786Y-10453929D01*
X12341071Y-10439643D01*
X12341071Y-10468214D01*
X12341071Y-10282500D02*
X12355357Y-10296786D01*
X12341071Y-10311072D01*
X12326786Y-10296786D01*
X12341071Y-10282500D01*
X12341071Y-10311072D01*
X9964500Y-10946000D02*
X9997500Y-10979000D01*
X9997500Y-10946000D02*
X9964500Y-10979000D01*
X10341071Y-10798214D02*
X10369643Y-10798214D01*
X10398214Y-10812500D01*
X10412500Y-10826786D01*
X10426786Y-10855357D01*
X10441071Y-10912500D01*
X10441071Y-10983929D01*
X10426786Y-11041072D01*
X10412500Y-11069643D01*
X10398214Y-11083929D01*
X10369643Y-11098214D01*
X10341071Y-11098214D01*
X10312500Y-11083929D01*
X10298214Y-11069643D01*
X10283928Y-11041072D01*
X10269643Y-10983929D01*
X10269643Y-10912500D01*
X10283928Y-10855357D01*
X10298214Y-10826786D01*
X10312500Y-10812500D01*
X10341071Y-10798214D01*
X10569643Y-11069643D02*
X10583928Y-11083929D01*
X10569643Y-11098214D01*
X10555357Y-11083929D01*
X10569643Y-11069643D01*
X10569643Y-11098214D01*
X10683928Y-10798214D02*
X10869643Y-10798214D01*
X10769643Y-10912500D01*
X10812500Y-10912500D01*
X10841071Y-10926786D01*
X10855357Y-10941072D01*
X10869643Y-10969643D01*
X10869643Y-11041072D01*
X10855357Y-11069643D01*
X10841071Y-11083929D01*
X10812500Y-11098214D01*
X10726786Y-11098214D01*
X10698214Y-11083929D01*
X10683928Y-11069643D01*
X10969643Y-10798214D02*
X11155357Y-10798214D01*
X11055357Y-10912500D01*
X11098214Y-10912500D01*
X11126786Y-10926786D01*
X11141071Y-10941072D01*
X11155357Y-10969643D01*
X11155357Y-11041072D01*
X11141071Y-11069643D01*
X11126786Y-11083929D01*
X11098214Y-11098214D01*
X11012500Y-11098214D01*
X10983928Y-11083929D01*
X10969643Y-11069643D01*
X11341071Y-10798214D02*
X11369643Y-10798214D01*
X11398214Y-10812500D01*
X11412500Y-10826786D01*
X11426786Y-10855357D01*
X11441071Y-10912500D01*
X11441071Y-10983929D01*
X11426786Y-11041072D01*
X11412500Y-11069643D01*
X11398214Y-11083929D01*
X11369643Y-11098214D01*
X11341071Y-11098214D01*
X11312500Y-11083929D01*
X11298214Y-11069643D01*
X11283928Y-11041072D01*
X11269643Y-10983929D01*
X11269643Y-10912500D01*
X11283928Y-10855357D01*
X11298214Y-10826786D01*
X11312500Y-10812500D01*
X11341071Y-10798214D01*
X11569643Y-11098214D02*
X11569643Y-10898214D01*
X11569643Y-10926786D02*
X11583928Y-10912500D01*
X11612500Y-10898214D01*
X11655357Y-10898214D01*
X11683928Y-10912500D01*
X11698214Y-10941072D01*
X11698214Y-11098214D01*
X11698214Y-10941072D02*
X11712500Y-10912500D01*
X11741071Y-10898214D01*
X11783928Y-10898214D01*
X11812500Y-10912500D01*
X11826786Y-10941072D01*
X11826786Y-11098214D01*
X11969643Y-11098214D02*
X11969643Y-10898214D01*
X11969643Y-10926786D02*
X11983928Y-10912500D01*
X12012500Y-10898214D01*
X12055357Y-10898214D01*
X12083928Y-10912500D01*
X12098214Y-10941072D01*
X12098214Y-11098214D01*
X12098214Y-10941072D02*
X12112500Y-10912500D01*
X12141071Y-10898214D01*
X12183928Y-10898214D01*
X12212500Y-10912500D01*
X12226786Y-10941072D01*
X12226786Y-11098214D01*
X12812500Y-10783929D02*
X12555357Y-11169643D01*
X13198214Y-10798214D02*
X13226786Y-10798214D01*
X13255357Y-10812500D01*
X13269643Y-10826786D01*
X13283928Y-10855357D01*
X13298214Y-10912500D01*
X13298214Y-10983929D01*
X13283928Y-11041072D01*
X13269643Y-11069643D01*
X13255357Y-11083929D01*
X13226786Y-11098214D01*
X13198214Y-11098214D01*
X13169643Y-11083929D01*
X13155357Y-11069643D01*
X13141071Y-11041072D01*
X13126786Y-10983929D01*
X13126786Y-10912500D01*
X13141071Y-10855357D01*
X13155357Y-10826786D01*
X13169643Y-10812500D01*
X13198214Y-10798214D01*
X13426786Y-11069643D02*
X13441071Y-11083929D01*
X13426786Y-11098214D01*
X13412500Y-11083929D01*
X13426786Y-11069643D01*
X13426786Y-11098214D01*
X13626786Y-10798214D02*
X13655357Y-10798214D01*
X13683928Y-10812500D01*
X13698214Y-10826786D01*
X13712500Y-10855357D01*
X13726786Y-10912500D01*
X13726786Y-10983929D01*
X13712500Y-11041072D01*
X13698214Y-11069643D01*
X13683928Y-11083929D01*
X13655357Y-11098214D01*
X13626786Y-11098214D01*
X13598214Y-11083929D01*
X13583928Y-11069643D01*
X13569643Y-11041072D01*
X13555357Y-10983929D01*
X13555357Y-10912500D01*
X13569643Y-10855357D01*
X13583928Y-10826786D01*
X13598214Y-10812500D01*
X13626786Y-10798214D01*
X14012500Y-11098214D02*
X13841071Y-11098214D01*
X13926786Y-11098214D02*
X13926786Y-10798214D01*
X13898214Y-10841072D01*
X13869643Y-10869643D01*
X13841071Y-10883929D01*
X14112500Y-10798214D02*
X14298214Y-10798214D01*
X14198214Y-10912500D01*
X14241071Y-10912500D01*
X14269643Y-10926786D01*
X14283928Y-10941072D01*
X14298214Y-10969643D01*
X14298214Y-11041072D01*
X14283928Y-11069643D01*
X14269643Y-11083929D01*
X14241071Y-11098214D01*
X14155357Y-11098214D01*
X14126786Y-11083929D01*
X14112500Y-11069643D01*
X14483928Y-10798214D02*
X14512500Y-10798214D01*
X14541071Y-10812500D01*
X14555357Y-10826786D01*
X14569643Y-10855357D01*
X14583928Y-10912500D01*
X14583928Y-10983929D01*
X14569643Y-11041072D01*
X14555357Y-11069643D01*
X14541071Y-11083929D01*
X14512500Y-11098214D01*
X14483928Y-11098214D01*
X14455357Y-11083929D01*
X14441071Y-11069643D01*
X14426786Y-11041072D01*
X14412500Y-10983929D01*
X14412500Y-10912500D01*
X14426786Y-10855357D01*
X14441071Y-10826786D01*
X14455357Y-10812500D01*
X14483928Y-10798214D01*
X14698214Y-10798214D02*
X14698214Y-10855357D01*
X14812500Y-10798214D02*
X14812500Y-10855357D01*
X15255357Y-11212500D02*
X15241071Y-11198214D01*
X15212500Y-11155357D01*
X15198214Y-11126786D01*
X15183928Y-11083929D01*
X15169643Y-11012500D01*
X15169643Y-10955357D01*
X15183928Y-10883929D01*
X15198214Y-10841072D01*
X15212500Y-10812500D01*
X15241071Y-10769643D01*
X15255357Y-10755357D01*
X15341071Y-10798214D02*
X15526786Y-10798214D01*
X15426786Y-10912500D01*
X15469643Y-10912500D01*
X15498214Y-10926786D01*
X15512500Y-10941072D01*
X15526786Y-10969643D01*
X15526786Y-11041072D01*
X15512500Y-11069643D01*
X15498214Y-11083929D01*
X15469643Y-11098214D01*
X15383928Y-11098214D01*
X15355357Y-11083929D01*
X15341071Y-11069643D01*
X15783928Y-10798214D02*
X15726786Y-10798214D01*
X15698214Y-10812500D01*
X15683928Y-10826786D01*
X15655357Y-10869643D01*
X15641071Y-10926786D01*
X15641071Y-11041072D01*
X15655357Y-11069643D01*
X15669643Y-11083929D01*
X15698214Y-11098214D01*
X15755357Y-11098214D01*
X15783928Y-11083929D01*
X15798214Y-11069643D01*
X15812500Y-11041072D01*
X15812500Y-10969643D01*
X15798214Y-10941072D01*
X15783928Y-10926786D01*
X15755357Y-10912500D01*
X15698214Y-10912500D01*
X15669643Y-10926786D01*
X15655357Y-10941072D01*
X15641071Y-10969643D01*
X16169643Y-11098214D02*
X16169643Y-10798214D01*
X16298214Y-11098214D02*
X16298214Y-10941072D01*
X16283928Y-10912500D01*
X16255357Y-10898214D01*
X16212500Y-10898214D01*
X16183928Y-10912500D01*
X16169643Y-10926786D01*
X16483928Y-11098214D02*
X16455357Y-11083929D01*
X16441071Y-11069643D01*
X16426786Y-11041072D01*
X16426786Y-10955357D01*
X16441071Y-10926786D01*
X16455357Y-10912500D01*
X16483928Y-10898214D01*
X16526786Y-10898214D01*
X16555357Y-10912500D01*
X16569643Y-10926786D01*
X16583928Y-10955357D01*
X16583928Y-11041072D01*
X16569643Y-11069643D01*
X16555357Y-11083929D01*
X16526786Y-11098214D01*
X16483928Y-11098214D01*
X16755357Y-11098214D02*
X16726786Y-11083929D01*
X16712500Y-11055357D01*
X16712500Y-10798214D01*
X16983928Y-11083929D02*
X16955357Y-11098214D01*
X16898214Y-11098214D01*
X16869643Y-11083929D01*
X16855357Y-11055357D01*
X16855357Y-10941072D01*
X16869643Y-10912500D01*
X16898214Y-10898214D01*
X16955357Y-10898214D01*
X16983928Y-10912500D01*
X16998214Y-10941072D01*
X16998214Y-10969643D01*
X16855357Y-10998214D01*
X17112500Y-11083929D02*
X17141071Y-11098214D01*
X17198214Y-11098214D01*
X17226786Y-11083929D01*
X17241071Y-11055357D01*
X17241071Y-11041072D01*
X17226786Y-11012500D01*
X17198214Y-10998214D01*
X17155357Y-10998214D01*
X17126786Y-10983929D01*
X17112500Y-10955357D01*
X17112500Y-10941072D01*
X17126786Y-10912500D01*
X17155357Y-10898214D01*
X17198214Y-10898214D01*
X17226786Y-10912500D01*
X17341071Y-11212500D02*
X17355357Y-11198214D01*
X17383928Y-11155357D01*
X17398214Y-11126786D01*
X17412500Y-11083929D01*
X17426786Y-11012500D01*
X17426786Y-10955357D01*
X17412500Y-10883929D01*
X17398214Y-10841072D01*
X17383928Y-10812500D01*
X17355357Y-10769643D01*
X17341071Y-10755357D01*
X9997500Y-11358500D02*
G75*
G03*
X9997500Y-11358500I-20000J0D01*
G01*
X10341071Y-11194214D02*
X10369643Y-11194214D01*
X10398214Y-11208500D01*
X10412500Y-11222786D01*
X10426786Y-11251357D01*
X10441071Y-11308500D01*
X10441071Y-11379929D01*
X10426786Y-11437071D01*
X10412500Y-11465643D01*
X10398214Y-11479929D01*
X10369643Y-11494214D01*
X10341071Y-11494214D01*
X10312500Y-11479929D01*
X10298214Y-11465643D01*
X10283928Y-11437071D01*
X10269643Y-11379929D01*
X10269643Y-11308500D01*
X10283928Y-11251357D01*
X10298214Y-11222786D01*
X10312500Y-11208500D01*
X10341071Y-11194214D01*
X10569643Y-11465643D02*
X10583928Y-11479929D01*
X10569643Y-11494214D01*
X10555357Y-11479929D01*
X10569643Y-11465643D01*
X10569643Y-11494214D01*
X10841071Y-11294214D02*
X10841071Y-11494214D01*
X10769643Y-11179929D02*
X10698214Y-11394214D01*
X10883928Y-11394214D01*
X11055357Y-11194214D02*
X11083928Y-11194214D01*
X11112500Y-11208500D01*
X11126786Y-11222786D01*
X11141071Y-11251357D01*
X11155357Y-11308500D01*
X11155357Y-11379929D01*
X11141071Y-11437071D01*
X11126786Y-11465643D01*
X11112500Y-11479929D01*
X11083928Y-11494214D01*
X11055357Y-11494214D01*
X11026786Y-11479929D01*
X11012500Y-11465643D01*
X10998214Y-11437071D01*
X10983928Y-11379929D01*
X10983928Y-11308500D01*
X10998214Y-11251357D01*
X11012500Y-11222786D01*
X11026786Y-11208500D01*
X11055357Y-11194214D01*
X11341071Y-11194214D02*
X11369643Y-11194214D01*
X11398214Y-11208500D01*
X11412500Y-11222786D01*
X11426786Y-11251357D01*
X11441071Y-11308500D01*
X11441071Y-11379929D01*
X11426786Y-11437071D01*
X11412500Y-11465643D01*
X11398214Y-11479929D01*
X11369643Y-11494214D01*
X11341071Y-11494214D01*
X11312500Y-11479929D01*
X11298214Y-11465643D01*
X11283928Y-11437071D01*
X11269643Y-11379929D01*
X11269643Y-11308500D01*
X11283928Y-11251357D01*
X11298214Y-11222786D01*
X11312500Y-11208500D01*
X11341071Y-11194214D01*
X11569643Y-11494214D02*
X11569643Y-11294214D01*
X11569643Y-11322786D02*
X11583928Y-11308500D01*
X11612500Y-11294214D01*
X11655357Y-11294214D01*
X11683928Y-11308500D01*
X11698214Y-11337071D01*
X11698214Y-11494214D01*
X11698214Y-11337071D02*
X11712500Y-11308500D01*
X11741071Y-11294214D01*
X11783928Y-11294214D01*
X11812500Y-11308500D01*
X11826786Y-11337071D01*
X11826786Y-11494214D01*
X11969643Y-11494214D02*
X11969643Y-11294214D01*
X11969643Y-11322786D02*
X11983928Y-11308500D01*
X12012500Y-11294214D01*
X12055357Y-11294214D01*
X12083928Y-11308500D01*
X12098214Y-11337071D01*
X12098214Y-11494214D01*
X12098214Y-11337071D02*
X12112500Y-11308500D01*
X12141071Y-11294214D01*
X12183928Y-11294214D01*
X12212500Y-11308500D01*
X12226786Y-11337071D01*
X12226786Y-11494214D01*
X12812500Y-11179929D02*
X12555357Y-11565643D01*
X13198214Y-11194214D02*
X13226786Y-11194214D01*
X13255357Y-11208500D01*
X13269643Y-11222786D01*
X13283928Y-11251357D01*
X13298214Y-11308500D01*
X13298214Y-11379929D01*
X13283928Y-11437071D01*
X13269643Y-11465643D01*
X13255357Y-11479929D01*
X13226786Y-11494214D01*
X13198214Y-11494214D01*
X13169643Y-11479929D01*
X13155357Y-11465643D01*
X13141071Y-11437071D01*
X13126786Y-11379929D01*
X13126786Y-11308500D01*
X13141071Y-11251357D01*
X13155357Y-11222786D01*
X13169643Y-11208500D01*
X13198214Y-11194214D01*
X13426786Y-11465643D02*
X13441071Y-11479929D01*
X13426786Y-11494214D01*
X13412500Y-11479929D01*
X13426786Y-11465643D01*
X13426786Y-11494214D01*
X13626786Y-11194214D02*
X13655357Y-11194214D01*
X13683928Y-11208500D01*
X13698214Y-11222786D01*
X13712500Y-11251357D01*
X13726786Y-11308500D01*
X13726786Y-11379929D01*
X13712500Y-11437071D01*
X13698214Y-11465643D01*
X13683928Y-11479929D01*
X13655357Y-11494214D01*
X13626786Y-11494214D01*
X13598214Y-11479929D01*
X13583928Y-11465643D01*
X13569643Y-11437071D01*
X13555357Y-11379929D01*
X13555357Y-11308500D01*
X13569643Y-11251357D01*
X13583928Y-11222786D01*
X13598214Y-11208500D01*
X13626786Y-11194214D01*
X14012500Y-11494214D02*
X13841071Y-11494214D01*
X13926786Y-11494214D02*
X13926786Y-11194214D01*
X13898214Y-11237071D01*
X13869643Y-11265643D01*
X13841071Y-11279929D01*
X14283928Y-11194214D02*
X14141071Y-11194214D01*
X14126786Y-11337071D01*
X14141071Y-11322786D01*
X14169643Y-11308500D01*
X14241071Y-11308500D01*
X14269643Y-11322786D01*
X14283928Y-11337071D01*
X14298214Y-11365643D01*
X14298214Y-11437071D01*
X14283928Y-11465643D01*
X14269643Y-11479929D01*
X14241071Y-11494214D01*
X14169643Y-11494214D01*
X14141071Y-11479929D01*
X14126786Y-11465643D01*
X14398214Y-11194214D02*
X14598214Y-11194214D01*
X14469643Y-11494214D01*
X14698214Y-11194214D02*
X14698214Y-11251357D01*
X14812500Y-11194214D02*
X14812500Y-11251357D01*
X15255357Y-11608500D02*
X15241071Y-11594214D01*
X15212500Y-11551357D01*
X15198214Y-11522786D01*
X15183928Y-11479929D01*
X15169643Y-11408500D01*
X15169643Y-11351357D01*
X15183928Y-11279929D01*
X15198214Y-11237071D01*
X15212500Y-11208500D01*
X15241071Y-11165643D01*
X15255357Y-11151357D01*
X15355357Y-11222786D02*
X15369643Y-11208500D01*
X15398214Y-11194214D01*
X15469643Y-11194214D01*
X15498214Y-11208500D01*
X15512500Y-11222786D01*
X15526786Y-11251357D01*
X15526786Y-11279929D01*
X15512500Y-11322786D01*
X15341071Y-11494214D01*
X15526786Y-11494214D01*
X15712500Y-11194214D02*
X15741071Y-11194214D01*
X15769643Y-11208500D01*
X15783928Y-11222786D01*
X15798214Y-11251357D01*
X15812500Y-11308500D01*
X15812500Y-11379929D01*
X15798214Y-11437071D01*
X15783928Y-11465643D01*
X15769643Y-11479929D01*
X15741071Y-11494214D01*
X15712500Y-11494214D01*
X15683928Y-11479929D01*
X15669643Y-11465643D01*
X15655357Y-11437071D01*
X15641071Y-11379929D01*
X15641071Y-11308500D01*
X15655357Y-11251357D01*
X15669643Y-11222786D01*
X15683928Y-11208500D01*
X15712500Y-11194214D01*
X15912500Y-11194214D02*
X16112500Y-11194214D01*
X15983928Y-11494214D01*
X16455357Y-11494214D02*
X16455357Y-11194214D01*
X16583928Y-11494214D02*
X16583928Y-11337071D01*
X16569643Y-11308500D01*
X16541071Y-11294214D01*
X16498214Y-11294214D01*
X16469643Y-11308500D01*
X16455357Y-11322786D01*
X16769643Y-11494214D02*
X16741071Y-11479929D01*
X16726786Y-11465643D01*
X16712500Y-11437071D01*
X16712500Y-11351357D01*
X16726786Y-11322786D01*
X16741071Y-11308500D01*
X16769643Y-11294214D01*
X16812500Y-11294214D01*
X16841071Y-11308500D01*
X16855357Y-11322786D01*
X16869643Y-11351357D01*
X16869643Y-11437071D01*
X16855357Y-11465643D01*
X16841071Y-11479929D01*
X16812500Y-11494214D01*
X16769643Y-11494214D01*
X17041071Y-11494214D02*
X17012500Y-11479929D01*
X16998214Y-11451357D01*
X16998214Y-11194214D01*
X17269643Y-11479929D02*
X17241071Y-11494214D01*
X17183928Y-11494214D01*
X17155357Y-11479929D01*
X17141071Y-11451357D01*
X17141071Y-11337071D01*
X17155357Y-11308500D01*
X17183928Y-11294214D01*
X17241071Y-11294214D01*
X17269643Y-11308500D01*
X17283928Y-11337071D01*
X17283928Y-11365643D01*
X17141071Y-11394214D01*
X17398214Y-11479929D02*
X17426786Y-11494214D01*
X17483928Y-11494214D01*
X17512500Y-11479929D01*
X17526786Y-11451357D01*
X17526786Y-11437071D01*
X17512500Y-11408500D01*
X17483928Y-11394214D01*
X17441071Y-11394214D01*
X17412500Y-11379929D01*
X17398214Y-11351357D01*
X17398214Y-11337071D01*
X17412500Y-11308500D01*
X17441071Y-11294214D01*
X17483928Y-11294214D01*
X17512500Y-11308500D01*
X17626786Y-11608500D02*
X17641071Y-11594214D01*
X17669643Y-11551357D01*
X17683928Y-11522786D01*
X17698214Y-11479929D01*
X17712500Y-11408500D01*
X17712500Y-11351357D01*
X17698214Y-11279929D01*
X17683928Y-11237071D01*
X17669643Y-11208500D01*
X17641071Y-11165643D01*
X17626786Y-11151357D01*
X9972500Y-11729500D02*
X9972500Y-11779500D01*
X9947500Y-11754500D02*
X9997500Y-11754500D01*
X10341071Y-11590214D02*
X10369643Y-11590214D01*
X10398214Y-11604500D01*
X10412500Y-11618786D01*
X10426786Y-11647357D01*
X10441071Y-11704500D01*
X10441071Y-11775929D01*
X10426786Y-11833071D01*
X10412500Y-11861643D01*
X10398214Y-11875929D01*
X10369643Y-11890214D01*
X10341071Y-11890214D01*
X10312500Y-11875929D01*
X10298214Y-11861643D01*
X10283928Y-11833071D01*
X10269643Y-11775929D01*
X10269643Y-11704500D01*
X10283928Y-11647357D01*
X10298214Y-11618786D01*
X10312500Y-11604500D01*
X10341071Y-11590214D01*
X10569643Y-11861643D02*
X10583928Y-11875929D01*
X10569643Y-11890214D01*
X10555357Y-11875929D01*
X10569643Y-11861643D01*
X10569643Y-11890214D01*
X10855357Y-11590214D02*
X10712500Y-11590214D01*
X10698214Y-11733071D01*
X10712500Y-11718786D01*
X10741071Y-11704500D01*
X10812500Y-11704500D01*
X10841071Y-11718786D01*
X10855357Y-11733071D01*
X10869643Y-11761643D01*
X10869643Y-11833071D01*
X10855357Y-11861643D01*
X10841071Y-11875929D01*
X10812500Y-11890214D01*
X10741071Y-11890214D01*
X10712500Y-11875929D01*
X10698214Y-11861643D01*
X11055357Y-11590214D02*
X11083928Y-11590214D01*
X11112500Y-11604500D01*
X11126786Y-11618786D01*
X11141071Y-11647357D01*
X11155357Y-11704500D01*
X11155357Y-11775929D01*
X11141071Y-11833071D01*
X11126786Y-11861643D01*
X11112500Y-11875929D01*
X11083928Y-11890214D01*
X11055357Y-11890214D01*
X11026786Y-11875929D01*
X11012500Y-11861643D01*
X10998214Y-11833071D01*
X10983928Y-11775929D01*
X10983928Y-11704500D01*
X10998214Y-11647357D01*
X11012500Y-11618786D01*
X11026786Y-11604500D01*
X11055357Y-11590214D01*
X11341071Y-11590214D02*
X11369643Y-11590214D01*
X11398214Y-11604500D01*
X11412500Y-11618786D01*
X11426786Y-11647357D01*
X11441071Y-11704500D01*
X11441071Y-11775929D01*
X11426786Y-11833071D01*
X11412500Y-11861643D01*
X11398214Y-11875929D01*
X11369643Y-11890214D01*
X11341071Y-11890214D01*
X11312500Y-11875929D01*
X11298214Y-11861643D01*
X11283928Y-11833071D01*
X11269643Y-11775929D01*
X11269643Y-11704500D01*
X11283928Y-11647357D01*
X11298214Y-11618786D01*
X11312500Y-11604500D01*
X11341071Y-11590214D01*
X11569643Y-11890214D02*
X11569643Y-11690214D01*
X11569643Y-11718786D02*
X11583928Y-11704500D01*
X11612500Y-11690214D01*
X11655357Y-11690214D01*
X11683928Y-11704500D01*
X11698214Y-11733071D01*
X11698214Y-11890214D01*
X11698214Y-11733071D02*
X11712500Y-11704500D01*
X11741071Y-11690214D01*
X11783928Y-11690214D01*
X11812500Y-11704500D01*
X11826786Y-11733071D01*
X11826786Y-11890214D01*
X11969643Y-11890214D02*
X11969643Y-11690214D01*
X11969643Y-11718786D02*
X11983928Y-11704500D01*
X12012500Y-11690214D01*
X12055357Y-11690214D01*
X12083928Y-11704500D01*
X12098214Y-11733071D01*
X12098214Y-11890214D01*
X12098214Y-11733071D02*
X12112500Y-11704500D01*
X12141071Y-11690214D01*
X12183928Y-11690214D01*
X12212500Y-11704500D01*
X12226786Y-11733071D01*
X12226786Y-11890214D01*
X12812500Y-11575929D02*
X12555357Y-11961643D01*
X13198214Y-11590214D02*
X13226786Y-11590214D01*
X13255357Y-11604500D01*
X13269643Y-11618786D01*
X13283928Y-11647357D01*
X13298214Y-11704500D01*
X13298214Y-11775929D01*
X13283928Y-11833071D01*
X13269643Y-11861643D01*
X13255357Y-11875929D01*
X13226786Y-11890214D01*
X13198214Y-11890214D01*
X13169643Y-11875929D01*
X13155357Y-11861643D01*
X13141071Y-11833071D01*
X13126786Y-11775929D01*
X13126786Y-11704500D01*
X13141071Y-11647357D01*
X13155357Y-11618786D01*
X13169643Y-11604500D01*
X13198214Y-11590214D01*
X13426786Y-11861643D02*
X13441071Y-11875929D01*
X13426786Y-11890214D01*
X13412500Y-11875929D01*
X13426786Y-11861643D01*
X13426786Y-11890214D01*
X13626786Y-11590214D02*
X13655357Y-11590214D01*
X13683928Y-11604500D01*
X13698214Y-11618786D01*
X13712500Y-11647357D01*
X13726786Y-11704500D01*
X13726786Y-11775929D01*
X13712500Y-11833071D01*
X13698214Y-11861643D01*
X13683928Y-11875929D01*
X13655357Y-11890214D01*
X13626786Y-11890214D01*
X13598214Y-11875929D01*
X13583928Y-11861643D01*
X13569643Y-11833071D01*
X13555357Y-11775929D01*
X13555357Y-11704500D01*
X13569643Y-11647357D01*
X13583928Y-11618786D01*
X13598214Y-11604500D01*
X13626786Y-11590214D01*
X14012500Y-11890214D02*
X13841071Y-11890214D01*
X13926786Y-11890214D02*
X13926786Y-11590214D01*
X13898214Y-11633071D01*
X13869643Y-11661643D01*
X13841071Y-11675929D01*
X14155357Y-11890214D02*
X14212500Y-11890214D01*
X14241071Y-11875929D01*
X14255357Y-11861643D01*
X14283928Y-11818786D01*
X14298214Y-11761643D01*
X14298214Y-11647357D01*
X14283928Y-11618786D01*
X14269643Y-11604500D01*
X14241071Y-11590214D01*
X14183928Y-11590214D01*
X14155357Y-11604500D01*
X14141071Y-11618786D01*
X14126786Y-11647357D01*
X14126786Y-11718786D01*
X14141071Y-11747357D01*
X14155357Y-11761643D01*
X14183928Y-11775929D01*
X14241071Y-11775929D01*
X14269643Y-11761643D01*
X14283928Y-11747357D01*
X14298214Y-11718786D01*
X14398214Y-11590214D02*
X14598214Y-11590214D01*
X14469643Y-11890214D01*
X14698214Y-11590214D02*
X14698214Y-11647357D01*
X14812500Y-11590214D02*
X14812500Y-11647357D01*
X15255357Y-12004500D02*
X15241071Y-11990214D01*
X15212500Y-11947357D01*
X15198214Y-11918786D01*
X15183928Y-11875929D01*
X15169643Y-11804500D01*
X15169643Y-11747357D01*
X15183928Y-11675929D01*
X15198214Y-11633071D01*
X15212500Y-11604500D01*
X15241071Y-11561643D01*
X15255357Y-11547357D01*
X15341071Y-11590214D02*
X15526786Y-11590214D01*
X15426786Y-11704500D01*
X15469643Y-11704500D01*
X15498214Y-11718786D01*
X15512500Y-11733071D01*
X15526786Y-11761643D01*
X15526786Y-11833071D01*
X15512500Y-11861643D01*
X15498214Y-11875929D01*
X15469643Y-11890214D01*
X15383928Y-11890214D01*
X15355357Y-11875929D01*
X15341071Y-11861643D01*
X15641071Y-11618786D02*
X15655357Y-11604500D01*
X15683928Y-11590214D01*
X15755357Y-11590214D01*
X15783928Y-11604500D01*
X15798214Y-11618786D01*
X15812500Y-11647357D01*
X15812500Y-11675929D01*
X15798214Y-11718786D01*
X15626786Y-11890214D01*
X15812500Y-11890214D01*
X16169643Y-11890214D02*
X16169643Y-11590214D01*
X16298214Y-11890214D02*
X16298214Y-11733071D01*
X16283928Y-11704500D01*
X16255357Y-11690214D01*
X16212500Y-11690214D01*
X16183928Y-11704500D01*
X16169643Y-11718786D01*
X16483928Y-11890214D02*
X16455357Y-11875929D01*
X16441071Y-11861643D01*
X16426786Y-11833071D01*
X16426786Y-11747357D01*
X16441071Y-11718786D01*
X16455357Y-11704500D01*
X16483928Y-11690214D01*
X16526786Y-11690214D01*
X16555357Y-11704500D01*
X16569643Y-11718786D01*
X16583928Y-11747357D01*
X16583928Y-11833071D01*
X16569643Y-11861643D01*
X16555357Y-11875929D01*
X16526786Y-11890214D01*
X16483928Y-11890214D01*
X16755357Y-11890214D02*
X16726786Y-11875929D01*
X16712500Y-11847357D01*
X16712500Y-11590214D01*
X16983928Y-11875929D02*
X16955357Y-11890214D01*
X16898214Y-11890214D01*
X16869643Y-11875929D01*
X16855357Y-11847357D01*
X16855357Y-11733071D01*
X16869643Y-11704500D01*
X16898214Y-11690214D01*
X16955357Y-11690214D01*
X16983928Y-11704500D01*
X16998214Y-11733071D01*
X16998214Y-11761643D01*
X16855357Y-11790214D01*
X17112500Y-11875929D02*
X17141071Y-11890214D01*
X17198214Y-11890214D01*
X17226786Y-11875929D01*
X17241071Y-11847357D01*
X17241071Y-11833071D01*
X17226786Y-11804500D01*
X17198214Y-11790214D01*
X17155357Y-11790214D01*
X17126786Y-11775929D01*
X17112500Y-11747357D01*
X17112500Y-11733071D01*
X17126786Y-11704500D01*
X17155357Y-11690214D01*
X17198214Y-11690214D01*
X17226786Y-11704500D01*
X17341071Y-12004500D02*
X17355357Y-11990214D01*
X17383928Y-11947357D01*
X17398214Y-11918786D01*
X17412500Y-11875929D01*
X17426786Y-11804500D01*
X17426786Y-11747357D01*
X17412500Y-11675929D01*
X17398214Y-11633071D01*
X17383928Y-11604500D01*
X17355357Y-11561643D01*
X17341071Y-11547357D01*
X9987981Y-12173481D02*
X9987981Y-12127519D01*
X9942019Y-12127519D01*
X9942019Y-12173481D01*
X9987981Y-12173481D01*
X10341071Y-11986214D02*
X10369643Y-11986214D01*
X10398214Y-12000500D01*
X10412500Y-12014786D01*
X10426786Y-12043357D01*
X10441071Y-12100500D01*
X10441071Y-12171929D01*
X10426786Y-12229071D01*
X10412500Y-12257643D01*
X10398214Y-12271929D01*
X10369643Y-12286214D01*
X10341071Y-12286214D01*
X10312500Y-12271929D01*
X10298214Y-12257643D01*
X10283928Y-12229071D01*
X10269643Y-12171929D01*
X10269643Y-12100500D01*
X10283928Y-12043357D01*
X10298214Y-12014786D01*
X10312500Y-12000500D01*
X10341071Y-11986214D01*
X10569643Y-12257643D02*
X10583928Y-12271929D01*
X10569643Y-12286214D01*
X10555357Y-12271929D01*
X10569643Y-12257643D01*
X10569643Y-12286214D01*
X10841071Y-11986214D02*
X10783928Y-11986214D01*
X10755357Y-12000500D01*
X10741071Y-12014786D01*
X10712500Y-12057643D01*
X10698214Y-12114786D01*
X10698214Y-12229071D01*
X10712500Y-12257643D01*
X10726786Y-12271929D01*
X10755357Y-12286214D01*
X10812500Y-12286214D01*
X10841071Y-12271929D01*
X10855357Y-12257643D01*
X10869643Y-12229071D01*
X10869643Y-12157643D01*
X10855357Y-12129071D01*
X10841071Y-12114786D01*
X10812500Y-12100500D01*
X10755357Y-12100500D01*
X10726786Y-12114786D01*
X10712500Y-12129071D01*
X10698214Y-12157643D01*
X11141071Y-11986214D02*
X10998214Y-11986214D01*
X10983928Y-12129071D01*
X10998214Y-12114786D01*
X11026786Y-12100500D01*
X11098214Y-12100500D01*
X11126786Y-12114786D01*
X11141071Y-12129071D01*
X11155357Y-12157643D01*
X11155357Y-12229071D01*
X11141071Y-12257643D01*
X11126786Y-12271929D01*
X11098214Y-12286214D01*
X11026786Y-12286214D01*
X10998214Y-12271929D01*
X10983928Y-12257643D01*
X11341071Y-11986214D02*
X11369643Y-11986214D01*
X11398214Y-12000500D01*
X11412500Y-12014786D01*
X11426786Y-12043357D01*
X11441071Y-12100500D01*
X11441071Y-12171929D01*
X11426786Y-12229071D01*
X11412500Y-12257643D01*
X11398214Y-12271929D01*
X11369643Y-12286214D01*
X11341071Y-12286214D01*
X11312500Y-12271929D01*
X11298214Y-12257643D01*
X11283928Y-12229071D01*
X11269643Y-12171929D01*
X11269643Y-12100500D01*
X11283928Y-12043357D01*
X11298214Y-12014786D01*
X11312500Y-12000500D01*
X11341071Y-11986214D01*
X11569643Y-12286214D02*
X11569643Y-12086214D01*
X11569643Y-12114786D02*
X11583928Y-12100500D01*
X11612500Y-12086214D01*
X11655357Y-12086214D01*
X11683928Y-12100500D01*
X11698214Y-12129071D01*
X11698214Y-12286214D01*
X11698214Y-12129071D02*
X11712500Y-12100500D01*
X11741071Y-12086214D01*
X11783928Y-12086214D01*
X11812500Y-12100500D01*
X11826786Y-12129071D01*
X11826786Y-12286214D01*
X11969643Y-12286214D02*
X11969643Y-12086214D01*
X11969643Y-12114786D02*
X11983928Y-12100500D01*
X12012500Y-12086214D01*
X12055357Y-12086214D01*
X12083928Y-12100500D01*
X12098214Y-12129071D01*
X12098214Y-12286214D01*
X12098214Y-12129071D02*
X12112500Y-12100500D01*
X12141071Y-12086214D01*
X12183928Y-12086214D01*
X12212500Y-12100500D01*
X12226786Y-12129071D01*
X12226786Y-12286214D01*
X12812500Y-11971929D02*
X12555357Y-12357643D01*
X13198214Y-11986214D02*
X13226786Y-11986214D01*
X13255357Y-12000500D01*
X13269643Y-12014786D01*
X13283928Y-12043357D01*
X13298214Y-12100500D01*
X13298214Y-12171929D01*
X13283928Y-12229071D01*
X13269643Y-12257643D01*
X13255357Y-12271929D01*
X13226786Y-12286214D01*
X13198214Y-12286214D01*
X13169643Y-12271929D01*
X13155357Y-12257643D01*
X13141071Y-12229071D01*
X13126786Y-12171929D01*
X13126786Y-12100500D01*
X13141071Y-12043357D01*
X13155357Y-12014786D01*
X13169643Y-12000500D01*
X13198214Y-11986214D01*
X13426786Y-12257643D02*
X13441071Y-12271929D01*
X13426786Y-12286214D01*
X13412500Y-12271929D01*
X13426786Y-12257643D01*
X13426786Y-12286214D01*
X13626786Y-11986214D02*
X13655357Y-11986214D01*
X13683928Y-12000500D01*
X13698214Y-12014786D01*
X13712500Y-12043357D01*
X13726786Y-12100500D01*
X13726786Y-12171929D01*
X13712500Y-12229071D01*
X13698214Y-12257643D01*
X13683928Y-12271929D01*
X13655357Y-12286214D01*
X13626786Y-12286214D01*
X13598214Y-12271929D01*
X13583928Y-12257643D01*
X13569643Y-12229071D01*
X13555357Y-12171929D01*
X13555357Y-12100500D01*
X13569643Y-12043357D01*
X13583928Y-12014786D01*
X13598214Y-12000500D01*
X13626786Y-11986214D01*
X13841071Y-12014786D02*
X13855357Y-12000500D01*
X13883928Y-11986214D01*
X13955357Y-11986214D01*
X13983928Y-12000500D01*
X13998214Y-12014786D01*
X14012500Y-12043357D01*
X14012500Y-12071929D01*
X13998214Y-12114786D01*
X13826786Y-12286214D01*
X14012500Y-12286214D01*
X14283928Y-11986214D02*
X14141071Y-11986214D01*
X14126786Y-12129071D01*
X14141071Y-12114786D01*
X14169643Y-12100500D01*
X14241071Y-12100500D01*
X14269643Y-12114786D01*
X14283928Y-12129071D01*
X14298214Y-12157643D01*
X14298214Y-12229071D01*
X14283928Y-12257643D01*
X14269643Y-12271929D01*
X14241071Y-12286214D01*
X14169643Y-12286214D01*
X14141071Y-12271929D01*
X14126786Y-12257643D01*
X14555357Y-11986214D02*
X14498214Y-11986214D01*
X14469643Y-12000500D01*
X14455357Y-12014786D01*
X14426786Y-12057643D01*
X14412500Y-12114786D01*
X14412500Y-12229071D01*
X14426786Y-12257643D01*
X14441071Y-12271929D01*
X14469643Y-12286214D01*
X14526786Y-12286214D01*
X14555357Y-12271929D01*
X14569643Y-12257643D01*
X14583928Y-12229071D01*
X14583928Y-12157643D01*
X14569643Y-12129071D01*
X14555357Y-12114786D01*
X14526786Y-12100500D01*
X14469643Y-12100500D01*
X14441071Y-12114786D01*
X14426786Y-12129071D01*
X14412500Y-12157643D01*
X14698214Y-11986214D02*
X14698214Y-12043357D01*
X14812500Y-11986214D02*
X14812500Y-12043357D01*
X15255357Y-12400500D02*
X15241071Y-12386214D01*
X15212500Y-12343357D01*
X15198214Y-12314786D01*
X15183928Y-12271929D01*
X15169643Y-12200500D01*
X15169643Y-12143357D01*
X15183928Y-12071929D01*
X15198214Y-12029071D01*
X15212500Y-12000500D01*
X15241071Y-11957643D01*
X15255357Y-11943357D01*
X15426786Y-11986214D02*
X15455357Y-11986214D01*
X15483928Y-12000500D01*
X15498214Y-12014786D01*
X15512500Y-12043357D01*
X15526786Y-12100500D01*
X15526786Y-12171929D01*
X15512500Y-12229071D01*
X15498214Y-12257643D01*
X15483928Y-12271929D01*
X15455357Y-12286214D01*
X15426786Y-12286214D01*
X15398214Y-12271929D01*
X15383928Y-12257643D01*
X15369643Y-12229071D01*
X15355357Y-12171929D01*
X15355357Y-12100500D01*
X15369643Y-12043357D01*
X15383928Y-12014786D01*
X15398214Y-12000500D01*
X15426786Y-11986214D01*
X15883928Y-12286214D02*
X15883928Y-11986214D01*
X16012500Y-12286214D02*
X16012500Y-12129071D01*
X15998214Y-12100500D01*
X15969643Y-12086214D01*
X15926786Y-12086214D01*
X15898214Y-12100500D01*
X15883928Y-12114786D01*
X16198214Y-12286214D02*
X16169643Y-12271929D01*
X16155357Y-12257643D01*
X16141071Y-12229071D01*
X16141071Y-12143357D01*
X16155357Y-12114786D01*
X16169643Y-12100500D01*
X16198214Y-12086214D01*
X16241071Y-12086214D01*
X16269643Y-12100500D01*
X16283928Y-12114786D01*
X16298214Y-12143357D01*
X16298214Y-12229071D01*
X16283928Y-12257643D01*
X16269643Y-12271929D01*
X16241071Y-12286214D01*
X16198214Y-12286214D01*
X16469643Y-12286214D02*
X16441071Y-12271929D01*
X16426786Y-12243357D01*
X16426786Y-11986214D01*
X16698214Y-12271929D02*
X16669643Y-12286214D01*
X16612500Y-12286214D01*
X16583928Y-12271929D01*
X16569643Y-12243357D01*
X16569643Y-12129071D01*
X16583928Y-12100500D01*
X16612500Y-12086214D01*
X16669643Y-12086214D01*
X16698214Y-12100500D01*
X16712500Y-12129071D01*
X16712500Y-12157643D01*
X16569643Y-12186214D01*
X16826786Y-12271929D02*
X16855357Y-12286214D01*
X16912500Y-12286214D01*
X16941071Y-12271929D01*
X16955357Y-12243357D01*
X16955357Y-12229071D01*
X16941071Y-12200500D01*
X16912500Y-12186214D01*
X16869643Y-12186214D01*
X16841071Y-12171929D01*
X16826786Y-12143357D01*
X16826786Y-12129071D01*
X16841071Y-12100500D01*
X16869643Y-12086214D01*
X16912500Y-12086214D01*
X16941071Y-12100500D01*
X17312500Y-12171929D02*
X17541071Y-12171929D01*
X17426786Y-12286214D02*
X17426786Y-12057643D01*
X17898214Y-12014786D02*
X17912500Y-12000500D01*
X17941071Y-11986214D01*
X18012500Y-11986214D01*
X18041071Y-12000500D01*
X18055357Y-12014786D01*
X18069643Y-12043357D01*
X18069643Y-12071929D01*
X18055357Y-12114786D01*
X17883928Y-12286214D01*
X18069643Y-12286214D01*
X18412500Y-12271929D02*
X18441071Y-12286214D01*
X18498214Y-12286214D01*
X18526786Y-12271929D01*
X18541071Y-12243357D01*
X18541071Y-12229071D01*
X18526786Y-12200500D01*
X18498214Y-12186214D01*
X18455357Y-12186214D01*
X18426786Y-12171929D01*
X18412500Y-12143357D01*
X18412500Y-12129071D01*
X18426786Y-12100500D01*
X18455357Y-12086214D01*
X18498214Y-12086214D01*
X18526786Y-12100500D01*
X18712500Y-12286214D02*
X18683928Y-12271929D01*
X18669643Y-12243357D01*
X18669643Y-11986214D01*
X18869643Y-12286214D02*
X18841071Y-12271929D01*
X18826786Y-12257643D01*
X18812500Y-12229071D01*
X18812500Y-12143357D01*
X18826786Y-12114786D01*
X18841071Y-12100500D01*
X18869643Y-12086214D01*
X18912500Y-12086214D01*
X18941071Y-12100500D01*
X18955357Y-12114786D01*
X18969643Y-12143357D01*
X18969643Y-12229071D01*
X18955357Y-12257643D01*
X18941071Y-12271929D01*
X18912500Y-12286214D01*
X18869643Y-12286214D01*
X19055357Y-12086214D02*
X19169643Y-12086214D01*
X19098214Y-11986214D02*
X19098214Y-12243357D01*
X19112500Y-12271929D01*
X19141071Y-12286214D01*
X19169643Y-12286214D01*
X19255357Y-12271929D02*
X19283928Y-12286214D01*
X19341071Y-12286214D01*
X19369643Y-12271929D01*
X19383928Y-12243357D01*
X19383928Y-12229071D01*
X19369643Y-12200500D01*
X19341071Y-12186214D01*
X19298214Y-12186214D01*
X19269643Y-12171929D01*
X19255357Y-12143357D01*
X19255357Y-12129071D01*
X19269643Y-12100500D01*
X19298214Y-12086214D01*
X19341071Y-12086214D01*
X19369643Y-12100500D01*
X19483928Y-12400500D02*
X19498214Y-12386214D01*
X19526786Y-12343357D01*
X19541071Y-12314786D01*
X19555357Y-12271929D01*
X19569643Y-12200500D01*
X19569643Y-12143357D01*
X19555357Y-12071929D01*
X19541071Y-12029071D01*
X19526786Y-12000500D01*
X19498214Y-11957643D01*
X19483928Y-11943357D01*
X9960000Y-12584000D02*
X9997500Y-12546500D01*
X9960000Y-12509000D01*
X9922500Y-12546500D01*
X9960000Y-12584000D01*
X10341071Y-12382214D02*
X10369643Y-12382214D01*
X10398214Y-12396500D01*
X10412500Y-12410786D01*
X10426786Y-12439357D01*
X10441071Y-12496500D01*
X10441071Y-12567929D01*
X10426786Y-12625071D01*
X10412500Y-12653643D01*
X10398214Y-12667929D01*
X10369643Y-12682214D01*
X10341071Y-12682214D01*
X10312500Y-12667929D01*
X10298214Y-12653643D01*
X10283928Y-12625071D01*
X10269643Y-12567929D01*
X10269643Y-12496500D01*
X10283928Y-12439357D01*
X10298214Y-12410786D01*
X10312500Y-12396500D01*
X10341071Y-12382214D01*
X10569643Y-12653643D02*
X10583928Y-12667929D01*
X10569643Y-12682214D01*
X10555357Y-12667929D01*
X10569643Y-12653643D01*
X10569643Y-12682214D01*
X10683928Y-12382214D02*
X10883928Y-12382214D01*
X10755357Y-12682214D01*
X11141071Y-12382214D02*
X10998214Y-12382214D01*
X10983928Y-12525071D01*
X10998214Y-12510786D01*
X11026786Y-12496500D01*
X11098214Y-12496500D01*
X11126786Y-12510786D01*
X11141071Y-12525071D01*
X11155357Y-12553643D01*
X11155357Y-12625071D01*
X11141071Y-12653643D01*
X11126786Y-12667929D01*
X11098214Y-12682214D01*
X11026786Y-12682214D01*
X10998214Y-12667929D01*
X10983928Y-12653643D01*
X11341071Y-12382214D02*
X11369643Y-12382214D01*
X11398214Y-12396500D01*
X11412500Y-12410786D01*
X11426786Y-12439357D01*
X11441071Y-12496500D01*
X11441071Y-12567929D01*
X11426786Y-12625071D01*
X11412500Y-12653643D01*
X11398214Y-12667929D01*
X11369643Y-12682214D01*
X11341071Y-12682214D01*
X11312500Y-12667929D01*
X11298214Y-12653643D01*
X11283928Y-12625071D01*
X11269643Y-12567929D01*
X11269643Y-12496500D01*
X11283928Y-12439357D01*
X11298214Y-12410786D01*
X11312500Y-12396500D01*
X11341071Y-12382214D01*
X11569643Y-12682214D02*
X11569643Y-12482214D01*
X11569643Y-12510786D02*
X11583928Y-12496500D01*
X11612500Y-12482214D01*
X11655357Y-12482214D01*
X11683928Y-12496500D01*
X11698214Y-12525071D01*
X11698214Y-12682214D01*
X11698214Y-12525071D02*
X11712500Y-12496500D01*
X11741071Y-12482214D01*
X11783928Y-12482214D01*
X11812500Y-12496500D01*
X11826786Y-12525071D01*
X11826786Y-12682214D01*
X11969643Y-12682214D02*
X11969643Y-12482214D01*
X11969643Y-12510786D02*
X11983928Y-12496500D01*
X12012500Y-12482214D01*
X12055357Y-12482214D01*
X12083928Y-12496500D01*
X12098214Y-12525071D01*
X12098214Y-12682214D01*
X12098214Y-12525071D02*
X12112500Y-12496500D01*
X12141071Y-12482214D01*
X12183928Y-12482214D01*
X12212500Y-12496500D01*
X12226786Y-12525071D01*
X12226786Y-12682214D01*
X12812500Y-12367929D02*
X12555357Y-12753643D01*
X13198214Y-12382214D02*
X13226786Y-12382214D01*
X13255357Y-12396500D01*
X13269643Y-12410786D01*
X13283928Y-12439357D01*
X13298214Y-12496500D01*
X13298214Y-12567929D01*
X13283928Y-12625071D01*
X13269643Y-12653643D01*
X13255357Y-12667929D01*
X13226786Y-12682214D01*
X13198214Y-12682214D01*
X13169643Y-12667929D01*
X13155357Y-12653643D01*
X13141071Y-12625071D01*
X13126786Y-12567929D01*
X13126786Y-12496500D01*
X13141071Y-12439357D01*
X13155357Y-12410786D01*
X13169643Y-12396500D01*
X13198214Y-12382214D01*
X13426786Y-12653643D02*
X13441071Y-12667929D01*
X13426786Y-12682214D01*
X13412500Y-12667929D01*
X13426786Y-12653643D01*
X13426786Y-12682214D01*
X13626786Y-12382214D02*
X13655357Y-12382214D01*
X13683928Y-12396500D01*
X13698214Y-12410786D01*
X13712500Y-12439357D01*
X13726786Y-12496500D01*
X13726786Y-12567929D01*
X13712500Y-12625071D01*
X13698214Y-12653643D01*
X13683928Y-12667929D01*
X13655357Y-12682214D01*
X13626786Y-12682214D01*
X13598214Y-12667929D01*
X13583928Y-12653643D01*
X13569643Y-12625071D01*
X13555357Y-12567929D01*
X13555357Y-12496500D01*
X13569643Y-12439357D01*
X13583928Y-12410786D01*
X13598214Y-12396500D01*
X13626786Y-12382214D01*
X13841071Y-12410786D02*
X13855357Y-12396500D01*
X13883928Y-12382214D01*
X13955357Y-12382214D01*
X13983928Y-12396500D01*
X13998214Y-12410786D01*
X14012500Y-12439357D01*
X14012500Y-12467929D01*
X13998214Y-12510786D01*
X13826786Y-12682214D01*
X14012500Y-12682214D01*
X14155357Y-12682214D02*
X14212500Y-12682214D01*
X14241071Y-12667929D01*
X14255357Y-12653643D01*
X14283928Y-12610786D01*
X14298214Y-12553643D01*
X14298214Y-12439357D01*
X14283928Y-12410786D01*
X14269643Y-12396500D01*
X14241071Y-12382214D01*
X14183928Y-12382214D01*
X14155357Y-12396500D01*
X14141071Y-12410786D01*
X14126786Y-12439357D01*
X14126786Y-12510786D01*
X14141071Y-12539357D01*
X14155357Y-12553643D01*
X14183928Y-12567929D01*
X14241071Y-12567929D01*
X14269643Y-12553643D01*
X14283928Y-12539357D01*
X14298214Y-12510786D01*
X14569643Y-12382214D02*
X14426786Y-12382214D01*
X14412500Y-12525071D01*
X14426786Y-12510786D01*
X14455357Y-12496500D01*
X14526786Y-12496500D01*
X14555357Y-12510786D01*
X14569643Y-12525071D01*
X14583928Y-12553643D01*
X14583928Y-12625071D01*
X14569643Y-12653643D01*
X14555357Y-12667929D01*
X14526786Y-12682214D01*
X14455357Y-12682214D01*
X14426786Y-12667929D01*
X14412500Y-12653643D01*
X14698214Y-12382214D02*
X14698214Y-12439357D01*
X14812500Y-12382214D02*
X14812500Y-12439357D01*
X15255357Y-12796500D02*
X15241071Y-12782214D01*
X15212500Y-12739357D01*
X15198214Y-12710786D01*
X15183928Y-12667929D01*
X15169643Y-12596500D01*
X15169643Y-12539357D01*
X15183928Y-12467929D01*
X15198214Y-12425071D01*
X15212500Y-12396500D01*
X15241071Y-12353643D01*
X15255357Y-12339357D01*
X15341071Y-12382214D02*
X15526786Y-12382214D01*
X15426786Y-12496500D01*
X15469643Y-12496500D01*
X15498214Y-12510786D01*
X15512500Y-12525071D01*
X15526786Y-12553643D01*
X15526786Y-12625071D01*
X15512500Y-12653643D01*
X15498214Y-12667929D01*
X15469643Y-12682214D01*
X15383928Y-12682214D01*
X15355357Y-12667929D01*
X15341071Y-12653643D01*
X15783928Y-12382214D02*
X15726786Y-12382214D01*
X15698214Y-12396500D01*
X15683928Y-12410786D01*
X15655357Y-12453643D01*
X15641071Y-12510786D01*
X15641071Y-12625071D01*
X15655357Y-12653643D01*
X15669643Y-12667929D01*
X15698214Y-12682214D01*
X15755357Y-12682214D01*
X15783928Y-12667929D01*
X15798214Y-12653643D01*
X15812500Y-12625071D01*
X15812500Y-12553643D01*
X15798214Y-12525071D01*
X15783928Y-12510786D01*
X15755357Y-12496500D01*
X15698214Y-12496500D01*
X15669643Y-12510786D01*
X15655357Y-12525071D01*
X15641071Y-12553643D01*
X16169643Y-12682214D02*
X16169643Y-12382214D01*
X16298214Y-12682214D02*
X16298214Y-12525071D01*
X16283928Y-12496500D01*
X16255357Y-12482214D01*
X16212500Y-12482214D01*
X16183928Y-12496500D01*
X16169643Y-12510786D01*
X16483928Y-12682214D02*
X16455357Y-12667929D01*
X16441071Y-12653643D01*
X16426786Y-12625071D01*
X16426786Y-12539357D01*
X16441071Y-12510786D01*
X16455357Y-12496500D01*
X16483928Y-12482214D01*
X16526786Y-12482214D01*
X16555357Y-12496500D01*
X16569643Y-12510786D01*
X16583928Y-12539357D01*
X16583928Y-12625071D01*
X16569643Y-12653643D01*
X16555357Y-12667929D01*
X16526786Y-12682214D01*
X16483928Y-12682214D01*
X16755357Y-12682214D02*
X16726786Y-12667929D01*
X16712500Y-12639357D01*
X16712500Y-12382214D01*
X16983928Y-12667929D02*
X16955357Y-12682214D01*
X16898214Y-12682214D01*
X16869643Y-12667929D01*
X16855357Y-12639357D01*
X16855357Y-12525071D01*
X16869643Y-12496500D01*
X16898214Y-12482214D01*
X16955357Y-12482214D01*
X16983928Y-12496500D01*
X16998214Y-12525071D01*
X16998214Y-12553643D01*
X16855357Y-12582214D01*
X17112500Y-12667929D02*
X17141071Y-12682214D01*
X17198214Y-12682214D01*
X17226786Y-12667929D01*
X17241071Y-12639357D01*
X17241071Y-12625071D01*
X17226786Y-12596500D01*
X17198214Y-12582214D01*
X17155357Y-12582214D01*
X17126786Y-12567929D01*
X17112500Y-12539357D01*
X17112500Y-12525071D01*
X17126786Y-12496500D01*
X17155357Y-12482214D01*
X17198214Y-12482214D01*
X17226786Y-12496500D01*
X17341071Y-12796500D02*
X17355357Y-12782214D01*
X17383928Y-12739357D01*
X17398214Y-12710786D01*
X17412500Y-12667929D01*
X17426786Y-12596500D01*
X17426786Y-12539357D01*
X17412500Y-12467929D01*
X17398214Y-12425071D01*
X17383928Y-12396500D01*
X17355357Y-12353643D01*
X17341071Y-12339357D01*
X9917500Y-12902500D02*
X9997500Y-12982500D01*
X9997500Y-12902500D02*
X9917500Y-12982500D01*
X9997500Y-12942500D02*
G75*
G03*
X9997500Y-12942500I-40000J0D01*
G01*
X10341071Y-12778214D02*
X10369643Y-12778214D01*
X10398214Y-12792500D01*
X10412500Y-12806786D01*
X10426786Y-12835357D01*
X10441071Y-12892500D01*
X10441071Y-12963929D01*
X10426786Y-13021071D01*
X10412500Y-13049643D01*
X10398214Y-13063929D01*
X10369643Y-13078214D01*
X10341071Y-13078214D01*
X10312500Y-13063929D01*
X10298214Y-13049643D01*
X10283928Y-13021071D01*
X10269643Y-12963929D01*
X10269643Y-12892500D01*
X10283928Y-12835357D01*
X10298214Y-12806786D01*
X10312500Y-12792500D01*
X10341071Y-12778214D01*
X10569643Y-13049643D02*
X10583928Y-13063929D01*
X10569643Y-13078214D01*
X10555357Y-13063929D01*
X10569643Y-13049643D01*
X10569643Y-13078214D01*
X10755357Y-12906786D02*
X10726786Y-12892500D01*
X10712500Y-12878214D01*
X10698214Y-12849643D01*
X10698214Y-12835357D01*
X10712500Y-12806786D01*
X10726786Y-12792500D01*
X10755357Y-12778214D01*
X10812500Y-12778214D01*
X10841071Y-12792500D01*
X10855357Y-12806786D01*
X10869643Y-12835357D01*
X10869643Y-12849643D01*
X10855357Y-12878214D01*
X10841071Y-12892500D01*
X10812500Y-12906786D01*
X10755357Y-12906786D01*
X10726786Y-12921071D01*
X10712500Y-12935357D01*
X10698214Y-12963929D01*
X10698214Y-13021071D01*
X10712500Y-13049643D01*
X10726786Y-13063929D01*
X10755357Y-13078214D01*
X10812500Y-13078214D01*
X10841071Y-13063929D01*
X10855357Y-13049643D01*
X10869643Y-13021071D01*
X10869643Y-12963929D01*
X10855357Y-12935357D01*
X10841071Y-12921071D01*
X10812500Y-12906786D01*
X11055357Y-12778214D02*
X11083928Y-12778214D01*
X11112500Y-12792500D01*
X11126786Y-12806786D01*
X11141071Y-12835357D01*
X11155357Y-12892500D01*
X11155357Y-12963929D01*
X11141071Y-13021071D01*
X11126786Y-13049643D01*
X11112500Y-13063929D01*
X11083928Y-13078214D01*
X11055357Y-13078214D01*
X11026786Y-13063929D01*
X11012500Y-13049643D01*
X10998214Y-13021071D01*
X10983928Y-12963929D01*
X10983928Y-12892500D01*
X10998214Y-12835357D01*
X11012500Y-12806786D01*
X11026786Y-12792500D01*
X11055357Y-12778214D01*
X11341071Y-12778214D02*
X11369643Y-12778214D01*
X11398214Y-12792500D01*
X11412500Y-12806786D01*
X11426786Y-12835357D01*
X11441071Y-12892500D01*
X11441071Y-12963929D01*
X11426786Y-13021071D01*
X11412500Y-13049643D01*
X11398214Y-13063929D01*
X11369643Y-13078214D01*
X11341071Y-13078214D01*
X11312500Y-13063929D01*
X11298214Y-13049643D01*
X11283928Y-13021071D01*
X11269643Y-12963929D01*
X11269643Y-12892500D01*
X11283928Y-12835357D01*
X11298214Y-12806786D01*
X11312500Y-12792500D01*
X11341071Y-12778214D01*
X11569643Y-13078214D02*
X11569643Y-12878214D01*
X11569643Y-12906786D02*
X11583928Y-12892500D01*
X11612500Y-12878214D01*
X11655357Y-12878214D01*
X11683928Y-12892500D01*
X11698214Y-12921071D01*
X11698214Y-13078214D01*
X11698214Y-12921071D02*
X11712500Y-12892500D01*
X11741071Y-12878214D01*
X11783928Y-12878214D01*
X11812500Y-12892500D01*
X11826786Y-12921071D01*
X11826786Y-13078214D01*
X11969643Y-13078214D02*
X11969643Y-12878214D01*
X11969643Y-12906786D02*
X11983928Y-12892500D01*
X12012500Y-12878214D01*
X12055357Y-12878214D01*
X12083928Y-12892500D01*
X12098214Y-12921071D01*
X12098214Y-13078214D01*
X12098214Y-12921071D02*
X12112500Y-12892500D01*
X12141071Y-12878214D01*
X12183928Y-12878214D01*
X12212500Y-12892500D01*
X12226786Y-12921071D01*
X12226786Y-13078214D01*
X12812500Y-12763929D02*
X12555357Y-13149643D01*
X13198214Y-12778214D02*
X13226786Y-12778214D01*
X13255357Y-12792500D01*
X13269643Y-12806786D01*
X13283928Y-12835357D01*
X13298214Y-12892500D01*
X13298214Y-12963929D01*
X13283928Y-13021071D01*
X13269643Y-13049643D01*
X13255357Y-13063929D01*
X13226786Y-13078214D01*
X13198214Y-13078214D01*
X13169643Y-13063929D01*
X13155357Y-13049643D01*
X13141071Y-13021071D01*
X13126786Y-12963929D01*
X13126786Y-12892500D01*
X13141071Y-12835357D01*
X13155357Y-12806786D01*
X13169643Y-12792500D01*
X13198214Y-12778214D01*
X13426786Y-13049643D02*
X13441071Y-13063929D01*
X13426786Y-13078214D01*
X13412500Y-13063929D01*
X13426786Y-13049643D01*
X13426786Y-13078214D01*
X13626786Y-12778214D02*
X13655357Y-12778214D01*
X13683928Y-12792500D01*
X13698214Y-12806786D01*
X13712500Y-12835357D01*
X13726786Y-12892500D01*
X13726786Y-12963929D01*
X13712500Y-13021071D01*
X13698214Y-13049643D01*
X13683928Y-13063929D01*
X13655357Y-13078214D01*
X13626786Y-13078214D01*
X13598214Y-13063929D01*
X13583928Y-13049643D01*
X13569643Y-13021071D01*
X13555357Y-12963929D01*
X13555357Y-12892500D01*
X13569643Y-12835357D01*
X13583928Y-12806786D01*
X13598214Y-12792500D01*
X13626786Y-12778214D01*
X13826786Y-12778214D02*
X14012500Y-12778214D01*
X13912500Y-12892500D01*
X13955357Y-12892500D01*
X13983928Y-12906786D01*
X13998214Y-12921071D01*
X14012500Y-12949643D01*
X14012500Y-13021071D01*
X13998214Y-13049643D01*
X13983928Y-13063929D01*
X13955357Y-13078214D01*
X13869643Y-13078214D01*
X13841071Y-13063929D01*
X13826786Y-13049643D01*
X14298214Y-13078214D02*
X14126786Y-13078214D01*
X14212500Y-13078214D02*
X14212500Y-12778214D01*
X14183928Y-12821071D01*
X14155357Y-12849643D01*
X14126786Y-12863929D01*
X14569643Y-12778214D02*
X14426786Y-12778214D01*
X14412500Y-12921071D01*
X14426786Y-12906786D01*
X14455357Y-12892500D01*
X14526786Y-12892500D01*
X14555357Y-12906786D01*
X14569643Y-12921071D01*
X14583928Y-12949643D01*
X14583928Y-13021071D01*
X14569643Y-13049643D01*
X14555357Y-13063929D01*
X14526786Y-13078214D01*
X14455357Y-13078214D01*
X14426786Y-13063929D01*
X14412500Y-13049643D01*
X14698214Y-12778214D02*
X14698214Y-12835357D01*
X14812500Y-12778214D02*
X14812500Y-12835357D01*
X15255357Y-13192500D02*
X15241071Y-13178214D01*
X15212500Y-13135357D01*
X15198214Y-13106786D01*
X15183928Y-13063929D01*
X15169643Y-12992500D01*
X15169643Y-12935357D01*
X15183928Y-12863929D01*
X15198214Y-12821071D01*
X15212500Y-12792500D01*
X15241071Y-12749643D01*
X15255357Y-12735357D01*
X15526786Y-13078214D02*
X15355357Y-13078214D01*
X15441071Y-13078214D02*
X15441071Y-12778214D01*
X15412500Y-12821071D01*
X15383928Y-12849643D01*
X15355357Y-12863929D01*
X15783928Y-12778214D02*
X15726786Y-12778214D01*
X15698214Y-12792500D01*
X15683928Y-12806786D01*
X15655357Y-12849643D01*
X15641071Y-12906786D01*
X15641071Y-13021071D01*
X15655357Y-13049643D01*
X15669643Y-13063929D01*
X15698214Y-13078214D01*
X15755357Y-13078214D01*
X15783928Y-13063929D01*
X15798214Y-13049643D01*
X15812500Y-13021071D01*
X15812500Y-12949643D01*
X15798214Y-12921071D01*
X15783928Y-12906786D01*
X15755357Y-12892500D01*
X15698214Y-12892500D01*
X15669643Y-12906786D01*
X15655357Y-12921071D01*
X15641071Y-12949643D01*
X16169643Y-13078214D02*
X16169643Y-12778214D01*
X16298214Y-13078214D02*
X16298214Y-12921071D01*
X16283928Y-12892500D01*
X16255357Y-12878214D01*
X16212500Y-12878214D01*
X16183928Y-12892500D01*
X16169643Y-12906786D01*
X16483928Y-13078214D02*
X16455357Y-13063929D01*
X16441071Y-13049643D01*
X16426786Y-13021071D01*
X16426786Y-12935357D01*
X16441071Y-12906786D01*
X16455357Y-12892500D01*
X16483928Y-12878214D01*
X16526786Y-12878214D01*
X16555357Y-12892500D01*
X16569643Y-12906786D01*
X16583928Y-12935357D01*
X16583928Y-13021071D01*
X16569643Y-13049643D01*
X16555357Y-13063929D01*
X16526786Y-13078214D01*
X16483928Y-13078214D01*
X16755357Y-13078214D02*
X16726786Y-13063929D01*
X16712500Y-13035357D01*
X16712500Y-12778214D01*
X16983928Y-13063929D02*
X16955357Y-13078214D01*
X16898214Y-13078214D01*
X16869643Y-13063929D01*
X16855357Y-13035357D01*
X16855357Y-12921071D01*
X16869643Y-12892500D01*
X16898214Y-12878214D01*
X16955357Y-12878214D01*
X16983928Y-12892500D01*
X16998214Y-12921071D01*
X16998214Y-12949643D01*
X16855357Y-12978214D01*
X17112500Y-13063929D02*
X17141071Y-13078214D01*
X17198214Y-13078214D01*
X17226786Y-13063929D01*
X17241071Y-13035357D01*
X17241071Y-13021071D01*
X17226786Y-12992500D01*
X17198214Y-12978214D01*
X17155357Y-12978214D01*
X17126786Y-12963929D01*
X17112500Y-12935357D01*
X17112500Y-12921071D01*
X17126786Y-12892500D01*
X17155357Y-12878214D01*
X17198214Y-12878214D01*
X17226786Y-12892500D01*
X17341071Y-13192500D02*
X17355357Y-13178214D01*
X17383928Y-13135357D01*
X17398214Y-13106786D01*
X17412500Y-13063929D01*
X17426786Y-12992500D01*
X17426786Y-12935357D01*
X17412500Y-12863929D01*
X17398214Y-12821071D01*
X17383928Y-12792500D01*
X17355357Y-12749643D01*
X17341071Y-12735357D01*
X9897500Y-13288500D02*
X9997500Y-13388500D01*
X9997500Y-13288500D02*
X9897500Y-13388500D01*
X9947500Y-13288500D02*
X9947500Y-13388500D01*
X9897500Y-13338500D02*
X9997500Y-13338500D01*
X10441071Y-13474214D02*
X10269643Y-13474214D01*
X10355357Y-13474214D02*
X10355357Y-13174214D01*
X10326786Y-13217071D01*
X10298214Y-13245643D01*
X10269643Y-13259929D01*
X10569643Y-13445643D02*
X10583928Y-13459929D01*
X10569643Y-13474214D01*
X10555357Y-13459929D01*
X10569643Y-13445643D01*
X10569643Y-13474214D01*
X10769643Y-13174214D02*
X10798214Y-13174214D01*
X10826786Y-13188500D01*
X10841071Y-13202786D01*
X10855357Y-13231357D01*
X10869643Y-13288500D01*
X10869643Y-13359929D01*
X10855357Y-13417071D01*
X10841071Y-13445643D01*
X10826786Y-13459929D01*
X10798214Y-13474214D01*
X10769643Y-13474214D01*
X10741071Y-13459929D01*
X10726786Y-13445643D01*
X10712500Y-13417071D01*
X10698214Y-13359929D01*
X10698214Y-13288500D01*
X10712500Y-13231357D01*
X10726786Y-13202786D01*
X10741071Y-13188500D01*
X10769643Y-13174214D01*
X11055357Y-13174214D02*
X11083928Y-13174214D01*
X11112500Y-13188500D01*
X11126786Y-13202786D01*
X11141071Y-13231357D01*
X11155357Y-13288500D01*
X11155357Y-13359929D01*
X11141071Y-13417071D01*
X11126786Y-13445643D01*
X11112500Y-13459929D01*
X11083928Y-13474214D01*
X11055357Y-13474214D01*
X11026786Y-13459929D01*
X11012500Y-13445643D01*
X10998214Y-13417071D01*
X10983928Y-13359929D01*
X10983928Y-13288500D01*
X10998214Y-13231357D01*
X11012500Y-13202786D01*
X11026786Y-13188500D01*
X11055357Y-13174214D01*
X11341071Y-13174214D02*
X11369643Y-13174214D01*
X11398214Y-13188500D01*
X11412500Y-13202786D01*
X11426786Y-13231357D01*
X11441071Y-13288500D01*
X11441071Y-13359929D01*
X11426786Y-13417071D01*
X11412500Y-13445643D01*
X11398214Y-13459929D01*
X11369643Y-13474214D01*
X11341071Y-13474214D01*
X11312500Y-13459929D01*
X11298214Y-13445643D01*
X11283928Y-13417071D01*
X11269643Y-13359929D01*
X11269643Y-13288500D01*
X11283928Y-13231357D01*
X11298214Y-13202786D01*
X11312500Y-13188500D01*
X11341071Y-13174214D01*
X11569643Y-13474214D02*
X11569643Y-13274214D01*
X11569643Y-13302786D02*
X11583928Y-13288500D01*
X11612500Y-13274214D01*
X11655357Y-13274214D01*
X11683928Y-13288500D01*
X11698214Y-13317071D01*
X11698214Y-13474214D01*
X11698214Y-13317071D02*
X11712500Y-13288500D01*
X11741071Y-13274214D01*
X11783928Y-13274214D01*
X11812500Y-13288500D01*
X11826786Y-13317071D01*
X11826786Y-13474214D01*
X11969643Y-13474214D02*
X11969643Y-13274214D01*
X11969643Y-13302786D02*
X11983928Y-13288500D01*
X12012500Y-13274214D01*
X12055357Y-13274214D01*
X12083928Y-13288500D01*
X12098214Y-13317071D01*
X12098214Y-13474214D01*
X12098214Y-13317071D02*
X12112500Y-13288500D01*
X12141071Y-13274214D01*
X12183928Y-13274214D01*
X12212500Y-13288500D01*
X12226786Y-13317071D01*
X12226786Y-13474214D01*
X12812500Y-13159929D02*
X12555357Y-13545643D01*
X13198214Y-13174214D02*
X13226786Y-13174214D01*
X13255357Y-13188500D01*
X13269643Y-13202786D01*
X13283928Y-13231357D01*
X13298214Y-13288500D01*
X13298214Y-13359929D01*
X13283928Y-13417071D01*
X13269643Y-13445643D01*
X13255357Y-13459929D01*
X13226786Y-13474214D01*
X13198214Y-13474214D01*
X13169643Y-13459929D01*
X13155357Y-13445643D01*
X13141071Y-13417071D01*
X13126786Y-13359929D01*
X13126786Y-13288500D01*
X13141071Y-13231357D01*
X13155357Y-13202786D01*
X13169643Y-13188500D01*
X13198214Y-13174214D01*
X13426786Y-13445643D02*
X13441071Y-13459929D01*
X13426786Y-13474214D01*
X13412500Y-13459929D01*
X13426786Y-13445643D01*
X13426786Y-13474214D01*
X13626786Y-13174214D02*
X13655357Y-13174214D01*
X13683928Y-13188500D01*
X13698214Y-13202786D01*
X13712500Y-13231357D01*
X13726786Y-13288500D01*
X13726786Y-13359929D01*
X13712500Y-13417071D01*
X13698214Y-13445643D01*
X13683928Y-13459929D01*
X13655357Y-13474214D01*
X13626786Y-13474214D01*
X13598214Y-13459929D01*
X13583928Y-13445643D01*
X13569643Y-13417071D01*
X13555357Y-13359929D01*
X13555357Y-13288500D01*
X13569643Y-13231357D01*
X13583928Y-13202786D01*
X13598214Y-13188500D01*
X13626786Y-13174214D01*
X13826786Y-13174214D02*
X14012500Y-13174214D01*
X13912500Y-13288500D01*
X13955357Y-13288500D01*
X13983928Y-13302786D01*
X13998214Y-13317071D01*
X14012500Y-13345643D01*
X14012500Y-13417071D01*
X13998214Y-13445643D01*
X13983928Y-13459929D01*
X13955357Y-13474214D01*
X13869643Y-13474214D01*
X13841071Y-13459929D01*
X13826786Y-13445643D01*
X14155357Y-13474214D02*
X14212500Y-13474214D01*
X14241071Y-13459929D01*
X14255357Y-13445643D01*
X14283928Y-13402786D01*
X14298214Y-13345643D01*
X14298214Y-13231357D01*
X14283928Y-13202786D01*
X14269643Y-13188500D01*
X14241071Y-13174214D01*
X14183928Y-13174214D01*
X14155357Y-13188500D01*
X14141071Y-13202786D01*
X14126786Y-13231357D01*
X14126786Y-13302786D01*
X14141071Y-13331357D01*
X14155357Y-13345643D01*
X14183928Y-13359929D01*
X14241071Y-13359929D01*
X14269643Y-13345643D01*
X14283928Y-13331357D01*
X14298214Y-13302786D01*
X14555357Y-13274214D02*
X14555357Y-13474214D01*
X14483928Y-13159929D02*
X14412500Y-13374214D01*
X14598214Y-13374214D01*
X14698214Y-13174214D02*
X14698214Y-13231357D01*
X14812500Y-13174214D02*
X14812500Y-13231357D01*
X15255357Y-13588500D02*
X15241071Y-13574214D01*
X15212500Y-13531357D01*
X15198214Y-13502786D01*
X15183928Y-13459929D01*
X15169643Y-13388500D01*
X15169643Y-13331357D01*
X15183928Y-13259929D01*
X15198214Y-13217071D01*
X15212500Y-13188500D01*
X15241071Y-13145643D01*
X15255357Y-13131357D01*
X15498214Y-13174214D02*
X15441071Y-13174214D01*
X15412500Y-13188500D01*
X15398214Y-13202786D01*
X15369643Y-13245643D01*
X15355357Y-13302786D01*
X15355357Y-13417071D01*
X15369643Y-13445643D01*
X15383928Y-13459929D01*
X15412500Y-13474214D01*
X15469643Y-13474214D01*
X15498214Y-13459929D01*
X15512500Y-13445643D01*
X15526786Y-13417071D01*
X15526786Y-13345643D01*
X15512500Y-13317071D01*
X15498214Y-13302786D01*
X15469643Y-13288500D01*
X15412500Y-13288500D01*
X15383928Y-13302786D01*
X15369643Y-13317071D01*
X15355357Y-13345643D01*
X15669643Y-13474214D02*
X15726786Y-13474214D01*
X15755357Y-13459929D01*
X15769643Y-13445643D01*
X15798214Y-13402786D01*
X15812500Y-13345643D01*
X15812500Y-13231357D01*
X15798214Y-13202786D01*
X15783928Y-13188500D01*
X15755357Y-13174214D01*
X15698214Y-13174214D01*
X15669643Y-13188500D01*
X15655357Y-13202786D01*
X15641071Y-13231357D01*
X15641071Y-13302786D01*
X15655357Y-13331357D01*
X15669643Y-13345643D01*
X15698214Y-13359929D01*
X15755357Y-13359929D01*
X15783928Y-13345643D01*
X15798214Y-13331357D01*
X15812500Y-13302786D01*
X16169643Y-13474214D02*
X16169643Y-13174214D01*
X16298214Y-13474214D02*
X16298214Y-13317071D01*
X16283928Y-13288500D01*
X16255357Y-13274214D01*
X16212500Y-13274214D01*
X16183928Y-13288500D01*
X16169643Y-13302786D01*
X16483928Y-13474214D02*
X16455357Y-13459929D01*
X16441071Y-13445643D01*
X16426786Y-13417071D01*
X16426786Y-13331357D01*
X16441071Y-13302786D01*
X16455357Y-13288500D01*
X16483928Y-13274214D01*
X16526786Y-13274214D01*
X16555357Y-13288500D01*
X16569643Y-13302786D01*
X16583928Y-13331357D01*
X16583928Y-13417071D01*
X16569643Y-13445643D01*
X16555357Y-13459929D01*
X16526786Y-13474214D01*
X16483928Y-13474214D01*
X16755357Y-13474214D02*
X16726786Y-13459929D01*
X16712500Y-13431357D01*
X16712500Y-13174214D01*
X16983928Y-13459929D02*
X16955357Y-13474214D01*
X16898214Y-13474214D01*
X16869643Y-13459929D01*
X16855357Y-13431357D01*
X16855357Y-13317071D01*
X16869643Y-13288500D01*
X16898214Y-13274214D01*
X16955357Y-13274214D01*
X16983928Y-13288500D01*
X16998214Y-13317071D01*
X16998214Y-13345643D01*
X16855357Y-13374214D01*
X17112500Y-13459929D02*
X17141071Y-13474214D01*
X17198214Y-13474214D01*
X17226786Y-13459929D01*
X17241071Y-13431357D01*
X17241071Y-13417071D01*
X17226786Y-13388500D01*
X17198214Y-13374214D01*
X17155357Y-13374214D01*
X17126786Y-13359929D01*
X17112500Y-13331357D01*
X17112500Y-13317071D01*
X17126786Y-13288500D01*
X17155357Y-13274214D01*
X17198214Y-13274214D01*
X17226786Y-13288500D01*
X17341071Y-13588500D02*
X17355357Y-13574214D01*
X17383928Y-13531357D01*
X17398214Y-13502786D01*
X17412500Y-13459929D01*
X17426786Y-13388500D01*
X17426786Y-13331357D01*
X17412500Y-13259929D01*
X17398214Y-13217071D01*
X17383928Y-13188500D01*
X17355357Y-13145643D01*
X17341071Y-13131357D01*
X9727500Y-13599500D02*
X9997500Y-13869500D01*
X9997500Y-13599500D02*
X9727500Y-13869500D01*
X9957960Y-13829960D02*
X9957960Y-13639040D01*
X9767040Y-13639040D01*
X9767040Y-13829960D01*
X9957960Y-13829960D01*
X10269643Y-13598786D02*
X10283928Y-13584500D01*
X10312500Y-13570214D01*
X10383928Y-13570214D01*
X10412500Y-13584500D01*
X10426786Y-13598786D01*
X10441071Y-13627357D01*
X10441071Y-13655929D01*
X10426786Y-13698786D01*
X10255357Y-13870214D01*
X10441071Y-13870214D01*
X10569643Y-13841643D02*
X10583928Y-13855929D01*
X10569643Y-13870214D01*
X10555357Y-13855929D01*
X10569643Y-13841643D01*
X10569643Y-13870214D01*
X10683928Y-13570214D02*
X10883928Y-13570214D01*
X10755357Y-13870214D01*
X11055357Y-13570214D02*
X11083928Y-13570214D01*
X11112500Y-13584500D01*
X11126786Y-13598786D01*
X11141071Y-13627357D01*
X11155357Y-13684500D01*
X11155357Y-13755929D01*
X11141071Y-13813071D01*
X11126786Y-13841643D01*
X11112500Y-13855929D01*
X11083928Y-13870214D01*
X11055357Y-13870214D01*
X11026786Y-13855929D01*
X11012500Y-13841643D01*
X10998214Y-13813071D01*
X10983928Y-13755929D01*
X10983928Y-13684500D01*
X10998214Y-13627357D01*
X11012500Y-13598786D01*
X11026786Y-13584500D01*
X11055357Y-13570214D01*
X11341071Y-13570214D02*
X11369643Y-13570214D01*
X11398214Y-13584500D01*
X11412500Y-13598786D01*
X11426786Y-13627357D01*
X11441071Y-13684500D01*
X11441071Y-13755929D01*
X11426786Y-13813071D01*
X11412500Y-13841643D01*
X11398214Y-13855929D01*
X11369643Y-13870214D01*
X11341071Y-13870214D01*
X11312500Y-13855929D01*
X11298214Y-13841643D01*
X11283928Y-13813071D01*
X11269643Y-13755929D01*
X11269643Y-13684500D01*
X11283928Y-13627357D01*
X11298214Y-13598786D01*
X11312500Y-13584500D01*
X11341071Y-13570214D01*
X11569643Y-13870214D02*
X11569643Y-13670214D01*
X11569643Y-13698786D02*
X11583928Y-13684500D01*
X11612500Y-13670214D01*
X11655357Y-13670214D01*
X11683928Y-13684500D01*
X11698214Y-13713071D01*
X11698214Y-13870214D01*
X11698214Y-13713071D02*
X11712500Y-13684500D01*
X11741071Y-13670214D01*
X11783928Y-13670214D01*
X11812500Y-13684500D01*
X11826786Y-13713071D01*
X11826786Y-13870214D01*
X11969643Y-13870214D02*
X11969643Y-13670214D01*
X11969643Y-13698786D02*
X11983928Y-13684500D01*
X12012500Y-13670214D01*
X12055357Y-13670214D01*
X12083928Y-13684500D01*
X12098214Y-13713071D01*
X12098214Y-13870214D01*
X12098214Y-13713071D02*
X12112500Y-13684500D01*
X12141071Y-13670214D01*
X12183928Y-13670214D01*
X12212500Y-13684500D01*
X12226786Y-13713071D01*
X12226786Y-13870214D01*
X12812500Y-13555929D02*
X12555357Y-13941643D01*
X13198214Y-13570214D02*
X13226786Y-13570214D01*
X13255357Y-13584500D01*
X13269643Y-13598786D01*
X13283928Y-13627357D01*
X13298214Y-13684500D01*
X13298214Y-13755929D01*
X13283928Y-13813071D01*
X13269643Y-13841643D01*
X13255357Y-13855929D01*
X13226786Y-13870214D01*
X13198214Y-13870214D01*
X13169643Y-13855929D01*
X13155357Y-13841643D01*
X13141071Y-13813071D01*
X13126786Y-13755929D01*
X13126786Y-13684500D01*
X13141071Y-13627357D01*
X13155357Y-13598786D01*
X13169643Y-13584500D01*
X13198214Y-13570214D01*
X13426786Y-13841643D02*
X13441071Y-13855929D01*
X13426786Y-13870214D01*
X13412500Y-13855929D01*
X13426786Y-13841643D01*
X13426786Y-13870214D01*
X13726786Y-13870214D02*
X13555357Y-13870214D01*
X13641071Y-13870214D02*
X13641071Y-13570214D01*
X13612500Y-13613071D01*
X13583928Y-13641643D01*
X13555357Y-13655929D01*
X13912500Y-13570214D02*
X13941071Y-13570214D01*
X13969643Y-13584500D01*
X13983928Y-13598786D01*
X13998214Y-13627357D01*
X14012500Y-13684500D01*
X14012500Y-13755929D01*
X13998214Y-13813071D01*
X13983928Y-13841643D01*
X13969643Y-13855929D01*
X13941071Y-13870214D01*
X13912500Y-13870214D01*
X13883928Y-13855929D01*
X13869643Y-13841643D01*
X13855357Y-13813071D01*
X13841071Y-13755929D01*
X13841071Y-13684500D01*
X13855357Y-13627357D01*
X13869643Y-13598786D01*
X13883928Y-13584500D01*
X13912500Y-13570214D01*
X14269643Y-13570214D02*
X14212500Y-13570214D01*
X14183928Y-13584500D01*
X14169643Y-13598786D01*
X14141071Y-13641643D01*
X14126786Y-13698786D01*
X14126786Y-13813071D01*
X14141071Y-13841643D01*
X14155357Y-13855929D01*
X14183928Y-13870214D01*
X14241071Y-13870214D01*
X14269643Y-13855929D01*
X14283928Y-13841643D01*
X14298214Y-13813071D01*
X14298214Y-13741643D01*
X14283928Y-13713071D01*
X14269643Y-13698786D01*
X14241071Y-13684500D01*
X14183928Y-13684500D01*
X14155357Y-13698786D01*
X14141071Y-13713071D01*
X14126786Y-13741643D01*
X14398214Y-13570214D02*
X14583928Y-13570214D01*
X14483928Y-13684500D01*
X14526786Y-13684500D01*
X14555357Y-13698786D01*
X14569643Y-13713071D01*
X14583928Y-13741643D01*
X14583928Y-13813071D01*
X14569643Y-13841643D01*
X14555357Y-13855929D01*
X14526786Y-13870214D01*
X14441071Y-13870214D01*
X14412500Y-13855929D01*
X14398214Y-13841643D01*
X14698214Y-13570214D02*
X14698214Y-13627357D01*
X14812500Y-13570214D02*
X14812500Y-13627357D01*
X15255357Y-13984500D02*
X15241071Y-13970214D01*
X15212500Y-13927357D01*
X15198214Y-13898786D01*
X15183928Y-13855929D01*
X15169643Y-13784500D01*
X15169643Y-13727357D01*
X15183928Y-13655929D01*
X15198214Y-13613071D01*
X15212500Y-13584500D01*
X15241071Y-13541643D01*
X15255357Y-13527357D01*
X15498214Y-13570214D02*
X15441071Y-13570214D01*
X15412500Y-13584500D01*
X15398214Y-13598786D01*
X15369643Y-13641643D01*
X15355357Y-13698786D01*
X15355357Y-13813071D01*
X15369643Y-13841643D01*
X15383928Y-13855929D01*
X15412500Y-13870214D01*
X15469643Y-13870214D01*
X15498214Y-13855929D01*
X15512500Y-13841643D01*
X15526786Y-13813071D01*
X15526786Y-13741643D01*
X15512500Y-13713071D01*
X15498214Y-13698786D01*
X15469643Y-13684500D01*
X15412500Y-13684500D01*
X15383928Y-13698786D01*
X15369643Y-13713071D01*
X15355357Y-13741643D01*
X15883928Y-13870214D02*
X15883928Y-13570214D01*
X16012500Y-13870214D02*
X16012500Y-13713071D01*
X15998214Y-13684500D01*
X15969643Y-13670214D01*
X15926786Y-13670214D01*
X15898214Y-13684500D01*
X15883928Y-13698786D01*
X16198214Y-13870214D02*
X16169643Y-13855929D01*
X16155357Y-13841643D01*
X16141071Y-13813071D01*
X16141071Y-13727357D01*
X16155357Y-13698786D01*
X16169643Y-13684500D01*
X16198214Y-13670214D01*
X16241071Y-13670214D01*
X16269643Y-13684500D01*
X16283928Y-13698786D01*
X16298214Y-13727357D01*
X16298214Y-13813071D01*
X16283928Y-13841643D01*
X16269643Y-13855929D01*
X16241071Y-13870214D01*
X16198214Y-13870214D01*
X16469643Y-13870214D02*
X16441071Y-13855929D01*
X16426786Y-13827357D01*
X16426786Y-13570214D01*
X16698214Y-13855929D02*
X16669643Y-13870214D01*
X16612500Y-13870214D01*
X16583928Y-13855929D01*
X16569643Y-13827357D01*
X16569643Y-13713071D01*
X16583928Y-13684500D01*
X16612500Y-13670214D01*
X16669643Y-13670214D01*
X16698214Y-13684500D01*
X16712500Y-13713071D01*
X16712500Y-13741643D01*
X16569643Y-13770214D01*
X16826786Y-13855929D02*
X16855357Y-13870214D01*
X16912500Y-13870214D01*
X16941071Y-13855929D01*
X16955357Y-13827357D01*
X16955357Y-13813071D01*
X16941071Y-13784500D01*
X16912500Y-13770214D01*
X16869643Y-13770214D01*
X16841071Y-13755929D01*
X16826786Y-13727357D01*
X16826786Y-13713071D01*
X16841071Y-13684500D01*
X16869643Y-13670214D01*
X16912500Y-13670214D01*
X16941071Y-13684500D01*
X17055357Y-13984500D02*
X17069643Y-13970214D01*
X17098214Y-13927357D01*
X17112500Y-13898786D01*
X17126786Y-13855929D01*
X17141071Y-13784500D01*
X17141071Y-13727357D01*
X17126786Y-13655929D01*
X17112500Y-13613071D01*
X17098214Y-13584500D01*
X17069643Y-13541643D01*
X17055357Y-13527357D01*
M02*
