%FSLAX45Y45*%
G04 Gerber Fmt 4.5, Leading zero omitted, Abs format (unit mm)*
G04 Created by KiCad (PCBNEW (5.1.10)-1) date 2021-06-06 14:27:14*
%MOMM*%
%LPD*%
G01*
G04 APERTURE LIST*
%TA.AperFunction,Profile*%
%ADD10C,0.050000*%
%TD*%
%ADD11C,0.200000*%
%ADD12C,0.300000*%
G04 APERTURE END LIST*
D10*
X16260000Y-4400000D02*
X10300000Y-4400000D01*
X16260000Y-10000000D02*
X10300000Y-10000000D01*
X16260000Y-10000000D02*
G75*
G03*
X16560000Y-9700000I0J300000D01*
G01*
X16560000Y-4700000D02*
G75*
G03*
X16260000Y-4400000I-300000J0D01*
G01*
X16560000Y-9700000D02*
X16560000Y-4700000D01*
X10000000Y-4700000D02*
X10000000Y-9700000D01*
X10000000Y-9700000D02*
G75*
G03*
X10300000Y-10000000I300000J0D01*
G01*
X10300000Y-4400000D02*
G75*
G03*
X10000000Y-4700000I0J-300000D01*
G01*
D11*
D12*
X10283928Y-10468214D02*
X10283928Y-10168214D01*
X10355357Y-10168214D01*
X10398214Y-10182500D01*
X10426786Y-10211072D01*
X10441071Y-10239643D01*
X10455357Y-10296786D01*
X10455357Y-10339643D01*
X10441071Y-10396786D01*
X10426786Y-10425357D01*
X10398214Y-10453929D01*
X10355357Y-10468214D01*
X10283928Y-10468214D01*
X10583928Y-10468214D02*
X10583928Y-10268214D01*
X10583928Y-10325357D02*
X10598214Y-10296786D01*
X10612500Y-10282500D01*
X10641071Y-10268214D01*
X10669643Y-10268214D01*
X10769643Y-10468214D02*
X10769643Y-10268214D01*
X10769643Y-10168214D02*
X10755357Y-10182500D01*
X10769643Y-10196786D01*
X10783928Y-10182500D01*
X10769643Y-10168214D01*
X10769643Y-10196786D01*
X10955357Y-10468214D02*
X10926786Y-10453929D01*
X10912500Y-10425357D01*
X10912500Y-10168214D01*
X11112500Y-10468214D02*
X11083928Y-10453929D01*
X11069643Y-10425357D01*
X11069643Y-10168214D01*
X11455357Y-10468214D02*
X11455357Y-10168214D01*
X11555357Y-10382500D01*
X11655357Y-10168214D01*
X11655357Y-10468214D01*
X11926786Y-10468214D02*
X11926786Y-10311072D01*
X11912500Y-10282500D01*
X11883928Y-10268214D01*
X11826786Y-10268214D01*
X11798214Y-10282500D01*
X11926786Y-10453929D02*
X11898214Y-10468214D01*
X11826786Y-10468214D01*
X11798214Y-10453929D01*
X11783928Y-10425357D01*
X11783928Y-10396786D01*
X11798214Y-10368214D01*
X11826786Y-10353929D01*
X11898214Y-10353929D01*
X11926786Y-10339643D01*
X12069643Y-10268214D02*
X12069643Y-10568214D01*
X12069643Y-10282500D02*
X12098214Y-10268214D01*
X12155357Y-10268214D01*
X12183928Y-10282500D01*
X12198214Y-10296786D01*
X12212500Y-10325357D01*
X12212500Y-10411072D01*
X12198214Y-10439643D01*
X12183928Y-10453929D01*
X12155357Y-10468214D01*
X12098214Y-10468214D01*
X12069643Y-10453929D01*
X12341071Y-10439643D02*
X12355357Y-10453929D01*
X12341071Y-10468214D01*
X12326786Y-10453929D01*
X12341071Y-10439643D01*
X12341071Y-10468214D01*
X12341071Y-10282500D02*
X12355357Y-10296786D01*
X12341071Y-10311072D01*
X12326786Y-10296786D01*
X12341071Y-10282500D01*
X12341071Y-10311072D01*
M02*
