M48
; DRILL file {KiCad (5.1.10)-1} date 06/06/21 14:27:05
; FORMAT={-:-/ absolute / metric / decimal}
; #@! TF.CreationDate,2021-06-06T14:27:05+02:00
; #@! TF.GenerationSoftware,Kicad,Pcbnew,(5.1.10)-1
; #@! TF.FileFunction,Plated,1,2,PTH
FMAT,2
METRIC
T1C0.330
T2C0.400
T3C0.500
T4C0.650
T5C0.750
T6C0.800
T7C1.000
T8C2.700
%
G90
G05
T1
X121.9Y-75.25
X121.9Y-76.55
X123.2Y-75.25
X123.2Y-76.55
X124.5Y-75.25
X124.5Y-76.55
X127.4Y-75.25
X127.4Y-76.55
X128.7Y-75.25
X128.7Y-76.55
X130.0Y-75.25
X130.0Y-76.55
X134.9Y-75.25
X134.9Y-76.55
X136.2Y-75.25
X136.2Y-76.55
X137.5Y-75.25
X137.5Y-76.55
X140.4Y-75.25
X140.4Y-76.55
X141.7Y-75.25
X141.7Y-76.55
X143.0Y-75.25
X143.0Y-76.55
X147.87Y-75.25
X147.87Y-76.55
X149.17Y-75.25
X149.17Y-76.55
X150.47Y-75.25
X150.47Y-76.55
X153.37Y-75.25
X153.37Y-76.55
X154.67Y-75.25
X154.67Y-76.55
X155.97Y-75.25
X155.97Y-76.55
T2
X100.65Y-55.25
X100.65Y-56.6
X100.65Y-57.9
X101.65Y-55.25
X101.65Y-56.6
X101.65Y-57.9
X102.362Y-82.804
X102.362Y-84.328
X102.362Y-85.852
X102.362Y-87.376
X102.362Y-88.9
X105.8Y-79.0
X107.0Y-81.2
X107.0Y-82.3
X107.086Y-83.515
X107.406Y-85.344
X107.56Y-75.756
X107.75Y-87.25
X108.5Y-86.5
X108.509Y-85.344
X108.65Y-55.6
X108.65Y-56.85
X108.65Y-58.05
X108.75Y-61.35
X108.75Y-62.5
X109.85Y-55.6
X109.85Y-56.85
X109.85Y-58.05
X109.88Y-68.986
X109.9Y-61.35
X109.9Y-62.5
X110.3Y-68.0
X110.4Y-64.4
X111.5Y-87.2
X111.5Y-95.2
X112.1Y-74.6
X114.6Y-56.6
X116.192Y-63.997
X116.2Y-62.9
X116.2Y-66.6
X116.2Y-65.255
X116.253Y-54.746
X116.8Y-95.2
X117.19Y-54.927
X117.45Y-67.259
X118.453Y-68.466
X118.8Y-82.8
X118.8Y-83.7
X118.8Y-84.6
X119.7Y-82.8
X119.7Y-83.7
X119.7Y-84.6
X119.888Y-75.692
X120.6Y-69.6
X120.65Y-76.708
X121.019Y-74.815
X121.92Y-60.96
X121.92Y-62.865
X121.92Y-64.77
X121.92Y-66.675
X122.8Y-96.0
X122.917Y-69.464
X122.965Y-68.526
X123.19Y-97.917
X123.825Y-60.96
X123.825Y-62.865
X123.825Y-64.77
X123.825Y-66.675
X123.835Y-79.975
X124.46Y-93.218
X124.968Y-69.342
X125.2Y-96.0
X125.222Y-86.36
X125.222Y-88.392
X125.222Y-90.17
X125.522Y-75.9
X125.73Y-60.96
X125.73Y-62.865
X125.73Y-64.77
X125.73Y-66.675
X126.532Y-74.89
X126.613Y-76.829
X127.254Y-86.36
X127.635Y-60.96
X127.635Y-62.865
X127.635Y-64.77
X128.422Y-68.514
X128.445Y-69.44
X129.54Y-62.865
X129.54Y-64.77
X129.794Y-55.0
X129.921Y-97.917
X130.048Y-90.17
X130.556Y-69.342
X130.81Y-93.218
X131.2Y-96.0
X131.445Y-62.865
X131.445Y-64.77
X131.85Y-74.906
X131.872Y-75.9
X132.08Y-88.392
X132.08Y-90.17
X132.334Y-69.342
X132.334Y-86.36
X132.49Y-57.103
X132.689Y-58.521
X132.842Y-74.93
X132.888Y-75.9
X133.35Y-62.865
X133.35Y-64.77
X133.431Y-57.048
X133.598Y-58.714
X133.858Y-86.36
X134.08Y-57.906
X134.981Y-58.203
X135.103Y-56.81
X135.741Y-69.491
X135.81Y-48.48
X135.91Y-58.163
X136.03Y-56.811
X136.398Y-90.17
X136.413Y-68.852
X136.525Y-98.044
X136.841Y-45.601
X136.873Y-56.427
X136.89Y-58.134
X137.398Y-48.905
X137.69Y-59.422
X137.852Y-94.05
X138.0Y-48.2
X138.592Y-59.206
X138.684Y-86.106
X138.684Y-88.138
X138.684Y-90.17
X138.73Y-75.9
X139.336Y-77.106
X139.382Y-74.74
X140.462Y-86.106
X140.97Y-57.658
X140.97Y-62.865
X140.97Y-64.77
X141.326Y-48.463
X141.401Y-69.754
X141.427Y-68.828
X142.875Y-62.865
X142.875Y-64.77
X143.002Y-57.658
X143.002Y-90.17
X143.1Y-56.2
X143.129Y-98.044
X143.866Y-48.362
X144.456Y-94.05
X144.78Y-62.865
X144.78Y-64.77
X144.78Y-66.675
X145.0Y-55.5
X145.034Y-74.676
X145.034Y-75.692
X145.288Y-86.36
X145.288Y-88.138
X145.288Y-90.17
X146.05Y-74.676
X146.05Y-75.692
X146.3Y-48.5
X146.685Y-62.865
X146.685Y-64.77
X146.685Y-66.675
X146.812Y-86.36
X148.441Y-55.4
X148.59Y-66.675
X148.697Y-69.576
X148.736Y-68.623
X150.114Y-90.17
X150.382Y-54.737
X150.495Y-66.675
X150.571Y-46.33
X150.571Y-47.549
X151.06Y-94.05
X151.638Y-54.356
X151.638Y-76.581
X151.892Y-53.086
X151.892Y-75.438
X151.892Y-86.36
X151.892Y-88.138
X151.892Y-90.17
X152.344Y-74.732
X152.4Y-66.675
X152.425Y-76.987
X153.2Y-46.4
X153.416Y-65.024
X153.924Y-86.36
X154.0Y-50.0
X154.165Y-69.812
X154.286Y-68.624
X154.305Y-66.675
X155.448Y-67.31
X155.6Y-50.0
X156.058Y-62.382
X156.21Y-68.58
X156.21Y-70.485
X156.87Y-63.195
X157.032Y-93.161
X157.226Y-74.93
X157.226Y-75.946
X157.226Y-76.962
X157.277Y-62.179
X157.289Y-50.0
T3
X101.475Y-47.5
X101.475Y-96.5
X102.068Y-46.068
X102.068Y-48.932
X102.068Y-95.068
X102.068Y-97.932
X103.5Y-45.475
X103.5Y-49.525
X103.5Y-94.475
X103.5Y-98.525
X104.932Y-46.068
X104.932Y-48.932
X104.932Y-95.068
X104.932Y-97.932
X105.525Y-47.5
X105.525Y-96.5
X159.475Y-47.5
X159.475Y-96.5
X160.068Y-46.068
X160.068Y-48.932
X160.068Y-95.068
X160.068Y-97.932
X161.5Y-45.475
X161.5Y-49.525
X161.5Y-94.475
X161.5Y-98.525
X162.932Y-46.068
X162.932Y-48.932
X162.932Y-95.068
X162.932Y-97.932
X163.525Y-47.5
X163.525Y-96.5
T5
X120.7Y-88.05
X120.7Y-90.05
X120.7Y-92.05
X120.7Y-94.05
X120.7Y-96.05
X120.7Y-98.05
X127.38Y-88.05
X127.38Y-90.05
X127.38Y-92.05
X127.38Y-94.05
X127.38Y-96.05
X127.38Y-98.05
X134.06Y-88.05
X134.06Y-90.05
X134.06Y-92.05
X134.06Y-94.05
X134.06Y-96.05
X134.06Y-98.05
X140.74Y-88.05
X140.74Y-90.05
X140.74Y-92.05
X140.74Y-94.05
X140.74Y-96.05
X140.74Y-98.05
X147.42Y-88.05
X147.42Y-90.05
X147.42Y-92.05
X147.42Y-94.05
X147.42Y-96.05
X147.42Y-98.05
X154.1Y-88.05
X154.1Y-90.05
X154.1Y-92.05
X154.1Y-94.05
X154.1Y-96.05
X154.1Y-98.05
T6
X121.2Y-81.6
X121.2Y-84.1
X128.75Y-81.6
X128.75Y-84.1
X134.25Y-81.6
X134.25Y-84.1
X141.75Y-81.6
X141.75Y-84.1
X147.2Y-81.6
X147.2Y-84.1
X154.0Y-52.5
X154.0Y-55.0
X154.0Y-59.6
X154.0Y-62.1
X154.7Y-81.6
X154.7Y-84.1
T7
X102.23Y-91.714
X104.77Y-91.714
X108.37Y-46.23
X108.37Y-48.77
X110.91Y-46.23
X110.91Y-48.77
X113.45Y-46.23
X113.45Y-48.77
X115.99Y-46.23
X115.99Y-48.77
X118.53Y-46.23
X118.53Y-48.77
X121.07Y-46.23
X121.07Y-48.77
X123.61Y-46.23
X123.61Y-48.77
X126.15Y-46.23
X126.15Y-48.77
X128.69Y-46.23
X128.69Y-48.77
X131.23Y-46.23
X131.23Y-48.77
X133.77Y-46.23
X133.77Y-48.77
X159.25Y-52.4
X159.25Y-54.94
X159.25Y-57.48
X159.25Y-60.02
X159.25Y-63.69
X159.25Y-66.23
X159.25Y-68.77
X159.25Y-71.31
X159.25Y-74.99
X159.25Y-78.7
X159.25Y-81.24
X159.25Y-83.78
X159.25Y-86.32
X159.25Y-88.86
X159.25Y-91.4
X161.79Y-52.4
X161.79Y-54.94
X161.79Y-57.48
X161.79Y-60.02
X161.79Y-63.69
X161.79Y-66.23
X161.79Y-68.77
X161.79Y-71.31
X161.79Y-74.99
X161.79Y-78.7
X161.79Y-81.24
X161.79Y-83.78
X161.79Y-86.32
X161.79Y-88.86
X161.79Y-91.4
X164.33Y-52.4
X164.33Y-54.94
X164.33Y-57.48
X164.33Y-60.02
X164.33Y-63.69
X164.33Y-66.23
X164.33Y-68.77
X164.33Y-71.31
X164.33Y-74.99
X164.33Y-78.7
X164.33Y-81.24
X164.33Y-83.78
X164.33Y-86.32
X164.33Y-88.86
X164.33Y-91.4
T8
X103.5Y-47.5
X103.5Y-96.5
X116.35Y-78.164
X116.35Y-85.364
X161.5Y-47.5
X161.5Y-96.5
T4
X110.9Y-75.014G85X109.8Y-75.014
G05
X110.9Y-88.514G85X109.8Y-88.514
G05
T0
M30
